<svg width="100" height="39" viewBox="0 0 100 39" fill="none" xmlns="http://www.w3.org/2000/svg">
<path d="M15.6526 20.3089C15.6526 20.7411 15.5678 21.104 15.3981 21.3975C15.2322 21.6868 14.9946 21.9318 14.7064 22.1106C14.3954 22.3003 14.0509 22.433 13.6901 22.5022C13.2877 22.5829 12.8777 22.6227 12.4668 22.621C12.0451 22.6227 11.6242 22.5866 11.2095 22.5131C10.9955 22.4751 10.7847 22.4216 10.5789 22.353C10.5732 22.3506 10.5673 22.3486 10.5613 22.3469C10.5262 22.3351 10.4916 22.3226 10.4578 22.3098C10.4332 22.2992 10.4097 22.2883 10.3874 22.2778C10.3116 22.239 10.2407 22.1917 10.1763 22.1369V20.4606C10.2454 20.5168 10.3157 20.5701 10.3874 20.6207C10.9696 21.0274 11.6693 21.2477 12.3881 21.2506C12.589 21.2534 12.7895 21.2334 12.9855 21.191C13.1358 21.1592 13.2796 21.1036 13.411 21.0264C13.5158 20.965 13.6033 20.8797 13.6659 20.7779C13.7217 20.6833 13.7506 20.5762 13.7499 20.4674C13.7517 20.3218 13.7046 20.1795 13.6154 20.062C13.514 19.9324 13.3899 19.8209 13.2487 19.7325C13.0734 19.6209 12.8889 19.5234 12.6971 19.4408C12.4845 19.3473 12.2549 19.2519 12.0084 19.1545C11.3816 18.9026 10.914 18.5947 10.6058 18.2308C10.2976 17.8668 10.1433 17.4268 10.1428 16.9109C10.1428 16.5077 10.2268 16.1611 10.3947 15.8712C10.5608 15.5831 10.7961 15.3376 11.0808 15.1552C11.3875 14.9608 11.7279 14.8209 12.0857 14.7422C12.4822 14.6521 12.8882 14.6076 13.2955 14.6096C13.6673 14.6065 14.0388 14.6309 14.4067 14.6826C14.7118 14.7267 15.0111 14.8019 15.2998 14.9068V16.5222C15.1613 16.4299 15.0142 16.3503 14.8604 16.2843C14.7019 16.2161 14.5383 16.1592 14.3712 16.1142C14.2067 16.0698 14.0393 16.0364 13.87 16.0143C13.7132 15.9934 13.5551 15.9827 13.3967 15.9823C13.2084 15.9807 13.0206 15.9998 12.8368 16.0393C12.6871 16.0705 12.5434 16.1245 12.4113 16.1994C12.3035 16.2606 12.2115 16.3447 12.1425 16.4453C12.0792 16.5409 12.0461 16.6521 12.0472 16.7655C12.0455 16.8894 12.0826 17.0108 12.1538 17.1139C12.2359 17.2276 12.3382 17.3264 12.4561 17.4056C12.6062 17.5084 12.7652 17.5985 12.9314 17.6749C13.1179 17.7631 13.3288 17.854 13.564 17.9477C13.8619 18.0661 14.151 18.2041 14.4292 18.3608C14.6707 18.496 14.892 18.6623 15.0871 18.8551C15.2684 19.0365 15.4111 19.2504 15.5072 19.4847C15.6042 19.7208 15.6526 19.9955 15.6526 20.3089Z" fill="#4E7DB6"/>
<path d="M62.1278 22.1896V20.4606C62.4411 20.7171 62.7995 20.9174 63.186 21.052C63.5558 21.1816 63.9462 21.2484 64.3397 21.2492C64.5406 21.2521 64.7411 21.2321 64.9371 21.1897C65.0874 21.1578 65.2312 21.1022 65.3626 21.0251C65.4674 20.9637 65.555 20.8783 65.6175 20.7766C65.6732 20.6819 65.7021 20.5749 65.7015 20.466C65.7039 20.3206 65.6573 20.1784 65.5687 20.0607C65.4677 19.9313 65.3442 19.8198 65.2036 19.7312C65.0283 19.6196 64.8438 19.522 64.652 19.4395C64.4394 19.346 64.2098 19.2505 63.9633 19.1532C63.336 18.9013 62.8683 18.5934 62.5603 18.2294C62.2523 17.8655 62.0984 17.4261 62.0986 16.9112C62.0986 16.5079 62.1826 16.1614 62.3506 15.8715C62.5166 15.5834 62.7519 15.3379 63.0366 15.1555C63.3434 14.9611 63.6838 14.8212 64.0416 14.7425C64.4379 14.6524 64.8439 14.6079 65.2511 14.6099C65.623 14.6068 65.9946 14.6312 66.3627 14.6829C66.6678 14.727 66.9671 14.8022 67.2558 14.9071V16.5221C67.1173 16.4299 66.9702 16.3503 66.8164 16.2842C66.6575 16.2161 66.4937 16.1592 66.3262 16.1142C66.1617 16.0697 65.9942 16.0364 65.825 16.0143C65.6683 15.9934 65.5102 15.9827 65.352 15.9823C65.1637 15.9806 64.9759 15.9997 64.7921 16.0393C64.6422 16.0705 64.4985 16.1245 64.3662 16.1994C64.2586 16.2606 64.1667 16.3447 64.0977 16.4453C64.0342 16.5408 64.0011 16.6521 64.0025 16.7655C64.0007 16.8893 64.0378 17.0107 64.1087 17.1139C64.1909 17.2275 64.2933 17.3262 64.411 17.4056C64.5614 17.5086 64.7206 17.599 64.887 17.6758C65.0738 17.764 65.2847 17.8549 65.52 17.9486C65.8177 18.067 66.1068 18.205 66.3849 18.3617C66.6266 18.4968 66.848 18.6632 67.0431 18.8561C67.2243 19.0373 67.367 19.2511 67.463 19.4853C67.5599 19.7213 67.6084 19.996 67.6087 20.3091C67.6087 20.7414 67.5237 21.1043 67.3538 21.3978C67.1881 21.687 66.9505 21.9321 66.6624 22.1109C66.3513 22.3005 66.0067 22.4333 65.6458 22.5025C65.2434 22.5832 64.8333 22.623 64.4223 22.6213C64.0008 22.623 63.58 22.5869 63.1654 22.5134C62.7649 22.441 62.419 22.3331 62.1278 22.1896Z" fill="black" stroke="black" stroke-miterlimit="10"/>
<path d="M23.923 22.4858H22.1089V19.3312H18.7826V22.4858H16.9741V14.7393H18.7826V17.8292H22.1089V14.7393H23.923V22.4858Z" fill="black" stroke="black" stroke-miterlimit="10"/>
<path d="M29.1531 22.621C28.0026 22.621 27.0655 22.26 26.342 21.5381C25.6184 20.8161 25.2569 19.8752 25.2573 18.7152C25.2573 17.4908 25.6251 16.5004 26.3605 15.7441C27.096 14.9878 28.0704 14.6096 29.2836 14.6096C30.4293 14.6096 31.3559 14.9716 32.0635 15.6954C32.7711 16.4193 33.1251 17.3737 33.1256 18.5586C33.1256 19.7754 32.7588 20.7568 32.0254 21.5028C31.2919 22.2489 30.3345 22.6216 29.1531 22.621ZM29.2315 16.1114C28.5969 16.1114 28.0929 16.341 27.7197 16.8004C27.3464 17.2598 27.1598 17.8674 27.1598 18.6233C27.1598 19.3905 27.3464 19.9974 27.7197 20.4439C28.0929 20.8905 28.5819 21.1138 29.1866 21.1138C29.8099 21.1138 30.3046 20.8968 30.6706 20.4628C31.0365 20.0289 31.2194 19.4266 31.2192 18.656C31.2192 17.8529 31.0422 17.228 30.6881 16.7812C30.3341 16.3344 29.8486 16.1111 29.2315 16.1114V16.1114Z" fill="black" stroke="black" stroke-miterlimit="10"/>
<path d="M36.2643 19.8173V22.4858H34.4558V14.7393H37.2889C39.3121 14.7393 40.3238 15.5622 40.3241 17.208C40.3241 17.9861 40.0338 18.6158 39.4532 19.0972C38.8726 19.5785 38.097 19.8189 37.1266 19.8182L36.2643 19.8173ZM36.2643 16.079V18.4939H36.9756C37.9385 18.4939 38.42 18.0869 38.42 17.273C38.42 16.477 37.9385 16.079 36.9756 16.079H36.2643Z" fill="black" stroke="black" stroke-miterlimit="10"/>
<path d="M43.3083 19.8173V22.4858H41.4995V14.7393H44.3329C46.3561 14.7393 47.3678 15.5622 47.3678 17.208C47.3678 17.9861 47.0776 18.6158 46.4972 19.0972C45.9168 19.5785 45.1413 19.8189 44.1706 19.8182L43.3083 19.8173ZM43.3083 16.079V18.4939H44.0196C44.9823 18.4939 45.4638 18.0869 45.464 17.273C45.464 16.477 44.9825 16.079 44.0196 16.079H43.3083Z" fill="black" stroke="black" stroke-miterlimit="10"/>
<path d="M53.3595 22.4858H48.5437V14.7393H53.1746V16.16H50.3535V17.8833H52.9795V19.2986H50.3535V21.0705H53.3605L53.3595 22.4858Z" fill="black" stroke="black" stroke-miterlimit="10"/>
<path d="M61.3834 22.4858H59.3062L58.0576 20.4926C57.9641 20.3414 57.8744 20.2064 57.7888 20.0875C57.7114 19.9786 57.6242 19.8764 57.5283 19.782C57.4486 19.7032 57.356 19.6375 57.2542 19.5877C57.1573 19.5423 57.0509 19.5192 56.9432 19.5201H56.4556V22.4858H54.6472V14.7393H57.514C59.4624 14.7393 60.4367 15.4416 60.4369 16.8462C60.4394 17.1009 60.3959 17.3542 60.3081 17.5945C60.2241 17.8193 60.1006 18.0284 59.9431 18.2128C59.782 18.4003 59.59 18.5609 59.3749 18.6883C59.1437 18.8252 58.894 18.9306 58.6328 19.0014V19.0232C58.758 19.0621 58.8755 19.1215 58.98 19.1987C59.0967 19.2838 59.2054 19.3787 59.3049 19.4823C59.4113 19.5928 59.5111 19.7091 59.6036 19.8307C59.6987 19.955 59.7855 20.0765 59.8641 20.1954L61.3834 22.4858ZM56.4556 16.0467V18.2022H57.2396C57.6279 18.2022 57.9396 18.0941 58.1748 17.8779C58.2908 17.774 58.3827 17.6476 58.4445 17.5071C58.5062 17.3665 58.5365 17.215 58.5332 17.0623C58.5332 16.385 58.1128 16.0464 57.2721 16.0467H56.4556Z" fill="black" stroke="black" stroke-miterlimit="10"/>
<path d="M73.344 22.4858H68.562V14.7393H70.3705V21.0705H73.344V22.4858Z" fill="black" stroke="black" stroke-miterlimit="10"/>
<path d="M77.5307 22.621C76.3801 22.621 75.4431 22.26 74.7198 21.5381C73.9965 20.8161 73.6344 19.8752 73.6335 18.7152C73.6335 17.4908 74.0013 16.5004 74.7368 15.7441C75.4722 14.9878 76.4465 14.6096 77.6594 14.6096C78.8054 14.6096 79.7321 14.9716 80.4397 15.6954C81.1473 16.4193 81.5013 17.3737 81.5018 18.5586C81.5018 19.7754 81.135 20.7568 80.4015 21.5028C79.6681 22.2489 78.7111 22.6216 77.5307 22.621ZM77.6093 16.1114C76.9745 16.1114 76.4705 16.341 76.0972 16.8004C75.7239 17.2598 75.538 17.8674 75.5393 18.6233C75.5393 19.3905 75.7259 19.9974 76.0992 20.4439C76.4725 20.8905 76.9616 21.1138 77.5665 21.1138C78.1898 21.1138 78.6843 20.8968 79.0501 20.4628C79.4158 20.0289 79.5988 19.4266 79.599 18.656C79.599 17.8529 79.422 17.228 79.068 16.7812C78.714 16.3344 78.2282 16.1111 77.6106 16.1114H77.6093Z" fill="black" stroke="black" stroke-miterlimit="10"/>
<path d="M86.2279 22.621C85.0774 22.621 84.1404 22.26 83.4171 21.5381C82.6938 20.8161 82.3317 19.8752 82.3308 18.7152C82.3308 17.4908 82.6986 16.5004 83.434 15.7441C84.1695 14.9878 85.1437 14.6096 86.3567 14.6096C87.5028 14.6096 88.4296 14.9716 89.137 15.6954C89.8444 16.4193 90.1984 17.3737 90.1991 18.5586C90.1991 19.7754 89.8323 20.7568 89.0988 21.5028C88.3653 22.2489 87.4084 22.6216 86.2279 22.621ZM86.3063 16.1114C85.6717 16.1114 85.1677 16.341 84.7945 16.8004C84.4212 17.2598 84.2347 17.8674 84.2349 18.6233C84.2349 19.3905 84.4215 19.9974 84.7948 20.4439C85.1681 20.8905 85.6571 21.1138 86.2618 21.1138C86.8853 21.1138 87.3799 20.8968 87.7457 20.4628C88.1114 20.0289 88.2944 19.4266 88.2946 18.656C88.2946 17.8529 88.1176 17.228 87.7636 16.7812C87.4096 16.3344 86.9238 16.1111 86.3063 16.1114V16.1114Z" fill="black" stroke="black" stroke-miterlimit="10"/>
<path d="M93.3396 19.8173V22.4858H91.5308V14.7393H94.3641C96.3874 14.7393 97.399 15.5622 97.399 17.208C97.399 17.9861 97.1088 18.6158 96.5284 19.0972C95.9481 19.5785 95.1725 19.8189 94.2019 19.8182L93.3396 19.8173ZM93.3396 16.079V18.4939H94.0505C95.0137 18.4939 95.4952 18.0869 95.4952 17.273C95.4952 16.477 95.0137 16.079 94.0505 16.079H93.3396Z" fill="#4E7DB6"/>
<path d="M77.365 8.89092C77.365 8.89092 52.7781 7.24606 25.6781 8.89092C-1.42186 10.5358 10.3883 20.6069 10.3883 20.6069V20.6191C10.3166 20.5692 10.2463 20.5158 10.1772 20.459V22.1359L10.1709 22.1298L10.157 22.117C10.152 22.1119 10.147 22.1074 10.1421 22.1029L10.1348 22.0959C-19.3642 -5.73795 25.0495 0.665684 25.0495 0.665684L68.9295 5.42702V2.22505L77.365 8.89092Z" fill="url(#paint0_linear)"/>
<path d="M93.3233 22.5061C100.451 27.3353 100.055 30.5231 99.9281 31.1859C98.8248 36.9882 82.4594 38.6145 80.645 38.782C77.631 39.0599 75.3711 38.9907 74.9812 38.9773C61.7452 38.5255 39.3622 36.0414 31.0266 35.0888V38.2908L22.5935 31.6259C22.5935 31.6259 47.1803 33.2707 74.2802 31.6259C74.2802 31.6259 89.6728 30.3131 92.0366 25.4074C92.2328 24.994 92.3239 24.5414 92.3021 24.0872C92.2307 23.3325 91.7834 22.7834 91.5155 22.5061H93.3233Z" fill="url(#paint1_linear)"/>
<g opacity="0.16">
<path opacity="0.16" d="M90.7621 33.3645C90.6879 33.3645 90.6155 33.3433 90.5538 33.3036C90.4922 33.2638 90.4441 33.2073 90.4157 33.1412C90.3874 33.0751 90.3799 33.0023 90.3944 32.9321C90.4089 32.8619 90.4446 32.7975 90.497 32.7469C90.5494 32.6963 90.6162 32.6618 90.689 32.6478C90.7617 32.6339 90.837 32.641 90.9055 32.6684C90.974 32.6958 91.0326 32.7422 91.0738 32.8017C91.115 32.8612 91.137 32.9311 91.137 33.0027C91.1369 33.0986 91.0974 33.1906 91.0271 33.2585C90.9568 33.3263 90.8615 33.3644 90.7621 33.3645V33.3645Z" fill="white"/>
<path opacity="0.16" d="M92.4464 33.3645C92.3722 33.3645 92.2997 33.3433 92.238 33.3036C92.1763 33.2638 92.1282 33.2073 92.0998 33.1412C92.0715 33.0751 92.064 33.0023 92.0785 32.9321C92.093 32.8619 92.1287 32.7975 92.1812 32.7469C92.2336 32.6963 92.3005 32.6618 92.3732 32.6478C92.446 32.6339 92.5214 32.641 92.59 32.6684C92.6585 32.6958 92.7171 32.7422 92.7583 32.8017C92.7996 32.8612 92.8215 32.9311 92.8215 33.0027C92.8214 33.0986 92.7818 33.1906 92.7115 33.2584C92.6412 33.3262 92.5459 33.3644 92.4464 33.3645V33.3645Z" fill="white"/>
<path opacity="0.16" d="M92.4463 33.0578H90.846C90.8237 33.0577 90.8018 33.0526 90.782 33.0429C90.7621 33.0331 90.745 33.019 90.7319 33.0017C90.7187 32.9843 90.71 32.9643 90.7064 32.9431C90.7029 32.9219 90.7045 32.9002 90.7112 32.8798L90.9263 32.3703C90.9289 32.3632 90.9329 32.3567 90.9382 32.3512C90.9435 32.3456 90.9499 32.3412 90.9571 32.3381C90.9642 32.335 90.9719 32.3333 90.9797 32.3332C90.9875 32.3331 90.9952 32.3345 91.0025 32.3373C91.0097 32.3401 91.0163 32.3444 91.0218 32.3497C91.0273 32.3551 91.0316 32.3614 91.0344 32.3685C91.0373 32.3755 91.0387 32.383 91.0384 32.3905C91.0382 32.398 91.0364 32.4054 91.0331 32.4123L90.8197 32.9179C90.8192 32.9244 90.821 32.9308 90.8251 32.9361C90.8275 32.9392 90.8307 32.9416 90.8343 32.9434C90.8379 32.9451 90.8419 32.946 90.846 32.946H92.4463C92.4609 32.9471 92.4746 32.9534 92.4845 32.9638C92.4945 32.9742 92.5 32.9878 92.5 33.0019C92.5 33.016 92.4945 33.0296 92.4845 33.04C92.4746 33.0504 92.4609 33.0567 92.4463 33.0578Z" fill="white"/>
<path opacity="0.16" d="M92.9399 31.0293C92.9267 31.012 92.9095 30.998 92.8897 30.9883C92.8698 30.9786 92.8479 30.9736 92.8257 30.9736H90.4154L90.3022 30.7232C90.2975 30.7135 90.2899 30.7054 90.2805 30.6997C90.2711 30.694 90.2602 30.6911 90.2491 30.6912H89.7138C89.6984 30.6912 89.6837 30.6971 89.6729 30.7075C89.6621 30.718 89.656 30.7321 89.656 30.7469C89.656 30.7617 89.6621 30.7759 89.6729 30.7863C89.6837 30.7968 89.6984 30.8026 89.7138 30.8026H90.2116L90.9186 32.3652C90.9294 32.3897 90.9475 32.4106 90.9706 32.4253C90.9937 32.44 91.0207 32.4478 91.0483 32.4478H92.4327C92.4628 32.4477 92.4922 32.4384 92.5164 32.4211C92.5407 32.4038 92.5585 32.3795 92.5675 32.3517L92.9604 31.151C92.9671 31.1306 92.9687 31.1089 92.9651 31.0878C92.9615 31.0667 92.9529 31.0467 92.9399 31.0293V31.0293ZM92.3149 32.1241H91.1323C91.117 32.1241 91.1023 32.1182 91.0915 32.1078C91.0806 32.0973 91.0746 32.0831 91.0746 32.0684C91.0746 32.0536 91.0806 32.0394 91.0915 32.029C91.1023 32.0185 91.117 32.0126 91.1323 32.0126H92.3149C92.3302 32.0126 92.3449 32.0185 92.3557 32.029C92.3665 32.0394 92.3726 32.0536 92.3726 32.0684C92.3726 32.0831 92.3665 32.0973 92.3557 32.1078C92.3449 32.1182 92.3302 32.1241 92.3149 32.1241V32.1241ZM92.4144 31.7719H91.0301C91.0155 31.7708 91.0018 31.7644 90.9919 31.7541C90.9819 31.7437 90.9764 31.7301 90.9764 31.716C90.9764 31.7019 90.9819 31.6882 90.9919 31.6779C91.0018 31.6675 91.0155 31.6612 91.0301 31.6601H92.4144C92.4291 31.6612 92.4427 31.6675 92.4527 31.6779C92.4626 31.6882 92.4681 31.7019 92.4681 31.716C92.4681 31.7301 92.4626 31.7437 92.4527 31.7541C92.4427 31.7644 92.4291 31.7708 92.4144 31.7719V31.7719ZM92.4974 31.4196H90.9474C90.9395 31.4202 90.9314 31.4192 90.9239 31.4167C90.9163 31.4141 90.9094 31.4101 90.9036 31.4049C90.8977 31.3996 90.893 31.3933 90.8898 31.3862C90.8866 31.3791 90.885 31.3715 90.885 31.3638C90.885 31.3561 90.8866 31.3484 90.8898 31.3413C90.893 31.3343 90.8977 31.3279 90.9036 31.3227C90.9094 31.3174 90.9163 31.3134 90.9239 31.3109C90.9314 31.3083 90.9395 31.3073 90.9474 31.3079H92.4991C92.5137 31.309 92.5273 31.3153 92.5373 31.3257C92.5472 31.336 92.5528 31.3496 92.5528 31.3638C92.5528 31.3779 92.5472 31.3915 92.5373 31.4019C92.5273 31.4122 92.5137 31.4186 92.4991 31.4196H92.4974Z" fill="white"/>
<path opacity="0.16" d="M89.8229 30.7501C89.8229 30.7675 89.8175 30.7846 89.8075 30.799C89.7975 30.8135 89.7832 30.8248 89.7665 30.8315C89.7498 30.8381 89.7314 30.8399 89.7137 30.8365C89.696 30.8331 89.6797 30.8247 89.6669 30.8124C89.6541 30.8001 89.6454 30.7844 89.6419 30.7673C89.6384 30.7502 89.6402 30.7325 89.6471 30.7164C89.654 30.7003 89.6657 30.6866 89.6808 30.6769C89.6958 30.6672 89.7134 30.6621 89.7315 30.6621C89.7558 30.6621 89.779 30.6713 89.7961 30.6879C89.8133 30.7044 89.8229 30.7268 89.8229 30.7501Z" fill="white"/>
</g>
<g opacity="0.16">
<path opacity="0.16" d="M3.16086 6.97421C3.08661 6.97427 3.014 6.95309 2.95223 6.91333C2.89045 6.87358 2.84229 6.81704 2.81383 6.75087C2.78536 6.68471 2.77788 6.61188 2.79233 6.54161C2.80678 6.47134 2.8425 6.40678 2.89498 6.35611C2.94747 6.30543 3.01435 6.27091 3.08718 6.25691C3.16 6.24291 3.23549 6.25006 3.3041 6.27746C3.37272 6.30486 3.43136 6.35128 3.47262 6.41084C3.51388 6.4704 3.53591 6.54043 3.53591 6.61207C3.53582 6.70803 3.49629 6.80004 3.42598 6.86793C3.35568 6.93582 3.26034 6.97404 3.16086 6.97421V6.97421Z" fill="white"/>
<path opacity="0.16" d="M4.84567 6.97421C4.77142 6.97427 4.69881 6.95309 4.63704 6.91333C4.57526 6.87358 4.5271 6.81704 4.49864 6.75087C4.47018 6.68471 4.4627 6.61188 4.47714 6.54161C4.49159 6.47134 4.52731 6.40678 4.5798 6.35611C4.63228 6.30543 4.69916 6.27091 4.77199 6.25691C4.84481 6.24291 4.9203 6.25006 4.98891 6.27746C5.05752 6.30486 5.11616 6.35128 5.15743 6.41084C5.19869 6.4704 5.22071 6.54043 5.22071 6.61207C5.22062 6.70803 5.18109 6.80004 5.11079 6.86793C5.04048 6.93582 4.94514 6.97404 4.84567 6.97421V6.97421Z" fill="white"/>
<path opacity="0.16" d="M4.84571 6.6681H3.24464C3.22239 6.66805 3.20047 6.66294 3.18065 6.6532C3.16082 6.64345 3.14366 6.62934 3.13054 6.61201C3.11742 6.59468 3.10871 6.5746 3.10512 6.55342C3.10154 6.53224 3.10317 6.51054 3.10989 6.49007L3.32496 5.98064C3.32757 5.97354 3.33164 5.96702 3.33693 5.96148C3.34222 5.95594 3.34862 5.95149 3.35574 5.9484C3.36287 5.94532 3.37056 5.94366 3.37837 5.94352C3.38618 5.94339 3.39393 5.94478 3.40117 5.94762C3.4084 5.95046 3.41496 5.95468 3.42045 5.96004C3.42594 5.96539 3.43025 5.97177 3.43312 5.97877C3.43599 5.98578 3.43735 5.99328 3.43713 6.00081C3.43691 6.00834 3.43511 6.01575 3.43183 6.02259L3.21942 6.52818C3.21883 6.53468 3.22072 6.54117 3.22473 6.54643C3.22717 6.54955 3.23033 6.55207 3.23396 6.55379C3.23759 6.55551 3.24159 6.55639 3.24564 6.55635H4.84571C4.85368 6.55577 4.86169 6.55678 4.86924 6.55933C4.87679 6.56187 4.88372 6.56589 4.88958 6.57114C4.89545 6.57638 4.90012 6.58274 4.90332 6.58981C4.90652 6.59688 4.90817 6.60451 4.90817 6.61223C4.90817 6.61994 4.90652 6.62758 4.90332 6.63465C4.90012 6.64172 4.89545 6.64808 4.88958 6.65332C4.88372 6.65857 4.87679 6.66259 4.86924 6.66513C4.86169 6.66767 4.85368 6.66869 4.84571 6.6681V6.6681Z" fill="white"/>
<path opacity="0.16" d="M5.33846 4.63965C5.32529 4.62238 5.30809 4.60833 5.28826 4.59865C5.26843 4.58898 5.24651 4.58393 5.22429 4.58393H2.81406L2.70089 4.33386C2.69616 4.32416 2.68864 4.31598 2.67922 4.3103C2.66981 4.30462 2.65889 4.30169 2.64778 4.30184H2.11244C2.09712 4.30184 2.08243 4.30771 2.0716 4.31816C2.06077 4.32861 2.05469 4.34278 2.05469 4.35756C2.05469 4.37233 2.06077 4.3865 2.0716 4.39695C2.08243 4.4074 2.09712 4.41327 2.11244 4.41327H2.61028L3.31722 5.97583C3.32808 6.00035 3.34617 6.02126 3.36924 6.03594C3.39231 6.05063 3.41935 6.05845 3.44699 6.05844H4.83199C4.86213 6.05838 4.89146 6.04902 4.9157 6.03174C4.93994 6.01446 4.95782 5.99016 4.96674 5.96238L5.3597 4.76164C5.36629 4.74112 5.36781 4.7194 5.36412 4.69821C5.36043 4.67702 5.35164 4.65696 5.33846 4.63965V4.63965ZM4.71284 5.7344H3.53096C3.51564 5.7344 3.50095 5.72853 3.49012 5.71808C3.47929 5.70764 3.47321 5.69346 3.47321 5.67869C3.47321 5.66391 3.47929 5.64974 3.49012 5.63929C3.50095 5.62884 3.51564 5.62297 3.53096 5.62297H4.71284C4.72815 5.62297 4.74284 5.62884 4.75367 5.63929C4.7645 5.64974 4.77059 5.66391 4.77059 5.67869C4.77059 5.69346 4.7645 5.70764 4.75367 5.71808C4.74284 5.72853 4.72815 5.7344 4.71284 5.7344V5.7344ZM4.8124 5.38219H3.43006C3.41474 5.38219 3.40006 5.37632 3.38923 5.36587C3.3784 5.35542 3.37231 5.34125 3.37231 5.32647C3.37231 5.31169 3.3784 5.29752 3.38923 5.28708C3.40006 5.27663 3.41474 5.27076 3.43006 5.27076H4.8144C4.82971 5.27076 4.8444 5.27663 4.85523 5.28708C4.86606 5.29752 4.87215 5.31169 4.87215 5.32647C4.87215 5.34125 4.86606 5.35542 4.85523 5.36587C4.8444 5.37632 4.82971 5.38219 4.8144 5.38219H4.8124ZM4.89538 5.02997H3.34543C3.33745 5.03055 3.32944 5.02954 3.32189 5.027C3.31434 5.02445 3.30742 5.02043 3.30155 5.01519C3.29569 5.00994 3.29101 5.00358 3.28781 4.99651C3.28461 4.98944 3.28296 4.98181 3.28296 4.97409C3.28296 4.96638 3.28461 4.95875 3.28781 4.95168C3.29101 4.9446 3.29569 4.93825 3.30155 4.933C3.30742 4.92776 3.31434 4.92374 3.32189 4.92119C3.32944 4.91865 3.33745 4.91764 3.34543 4.91822H4.89538C4.90998 4.91929 4.92363 4.92564 4.93358 4.936C4.94354 4.94636 4.94907 4.95996 4.94907 4.97409C4.94907 4.98822 4.94354 5.00183 4.93358 5.01219C4.92363 5.02255 4.90998 5.0289 4.89538 5.02997V5.02997Z" fill="white"/>
<path opacity="0.16" d="M2.22136 4.36044C2.22136 4.37785 2.21601 4.39488 2.20598 4.40936C2.19595 4.42384 2.1817 4.43513 2.16502 4.44179C2.14834 4.44845 2.12999 4.4502 2.11228 4.4468C2.09458 4.4434 2.07832 4.43502 2.06555 4.4227C2.05279 4.41039 2.04409 4.3947 2.04057 4.37762C2.03705 4.36054 2.03886 4.34283 2.04577 4.32674C2.05267 4.31065 2.06437 4.2969 2.07938 4.28722C2.09439 4.27755 2.11204 4.27238 2.13009 4.27238C2.1543 4.27238 2.17751 4.28166 2.19463 4.29818C2.21175 4.31469 2.22136 4.33709 2.22136 4.36044V4.36044Z" fill="white"/>
</g>
<g opacity="0.16">
<path opacity="0.16" d="M77.9133 34.7475C77.8392 34.7474 77.7667 34.7261 77.705 34.6863C77.6434 34.6465 77.5954 34.59 77.567 34.5239C77.5387 34.4578 77.5313 34.385 77.5458 34.3149C77.5603 34.2447 77.5961 34.1802 77.6485 34.1297C77.701 34.0791 77.7678 34.0447 77.8406 34.0307C77.9133 34.0168 77.9887 34.024 78.0573 34.0514C78.1258 34.0788 78.1843 34.1252 78.2255 34.1847C78.2667 34.2441 78.2887 34.3141 78.2887 34.3856C78.2886 34.4816 78.249 34.5737 78.1787 34.6415C78.1083 34.7094 78.0128 34.7475 77.9133 34.7475V34.7475Z" fill="white"/>
<path opacity="0.16" d="M79.5975 34.7475C79.5234 34.7475 79.4508 34.7262 79.3891 34.6865C79.3274 34.6467 79.2794 34.5902 79.251 34.5241C79.2226 34.458 79.2151 34.3852 79.2296 34.3151C79.2441 34.2449 79.2798 34.1804 79.3323 34.1298C79.3848 34.0792 79.4516 34.0447 79.5244 34.0308C79.5971 34.0168 79.6725 34.024 79.7411 34.0514C79.8096 34.0787 79.8682 34.1251 79.9094 34.1846C79.9507 34.2441 79.9727 34.3141 79.9727 34.3856C79.9726 34.4816 79.933 34.5736 79.8627 34.6414C79.7924 34.7092 79.697 34.7474 79.5975 34.7475Z" fill="white"/>
<path opacity="0.16" d="M79.5973 34.4414H77.997C77.9747 34.4413 77.9529 34.4362 77.933 34.4265C77.9132 34.4169 77.896 34.4029 77.8828 34.3856C77.8697 34.3683 77.861 34.3482 77.8575 34.327C77.854 34.3058 77.8557 34.2841 77.8625 34.2636L78.0773 33.7539C78.0801 33.7471 78.0844 33.7409 78.0897 33.7357C78.0951 33.7305 78.1014 33.7264 78.1085 33.7235C78.1155 33.7207 78.123 33.7192 78.1306 33.7192C78.1382 33.7191 78.1457 33.7205 78.1528 33.7233C78.1598 33.7261 78.1662 33.7302 78.1716 33.7353C78.177 33.7405 78.1813 33.7466 78.1843 33.7534C78.1872 33.7602 78.1887 33.7674 78.1888 33.7748C78.1888 33.7821 78.1873 33.7894 78.1845 33.7962L77.9711 34.3017C77.9703 34.3082 77.9722 34.3146 77.9764 34.3197C77.9787 34.3229 77.9818 34.3255 77.9854 34.3273C77.9889 34.329 77.9929 34.33 77.997 34.3299H79.5973C79.6126 34.3299 79.6273 34.3358 79.6381 34.3462C79.6489 34.3567 79.655 34.3709 79.655 34.3856C79.655 34.4004 79.6489 34.4146 79.6381 34.425C79.6273 34.4355 79.6126 34.4414 79.5973 34.4414Z" fill="white"/>
<path opacity="0.16" d="M80.091 32.4129C80.0778 32.3958 80.0606 32.3818 80.0409 32.3722C80.0211 32.3626 79.9993 32.3576 79.9772 32.3575H77.5669L77.4534 32.1071C77.4487 32.0974 77.4412 32.0893 77.4319 32.0836C77.4225 32.0779 77.4116 32.075 77.4006 32.0751H76.8649C76.8496 32.0751 76.8349 32.081 76.824 32.0914C76.8132 32.1019 76.8071 32.116 76.8071 32.1308C76.8071 32.1456 76.8132 32.1598 76.824 32.1702C76.8349 32.1807 76.8496 32.1865 76.8649 32.1865H77.3627L78.0697 33.7491C78.0806 33.7735 78.0986 33.7943 78.1216 33.809C78.1446 33.8236 78.1716 33.8314 78.1991 33.8314H79.5842C79.6144 33.8315 79.6438 33.8222 79.6681 33.8049C79.6923 33.7876 79.7102 33.7632 79.719 33.7353L80.1119 32.5343C80.1185 32.5139 80.1201 32.4923 80.1165 32.4712C80.1128 32.4501 80.1041 32.4301 80.091 32.4129ZM79.466 33.508H78.2838C78.2685 33.508 78.2538 33.5021 78.243 33.4917C78.2321 33.4812 78.226 33.467 78.226 33.4523C78.226 33.4375 78.2321 33.4233 78.243 33.4129C78.2538 33.4024 78.2685 33.3965 78.2838 33.3965H79.466C79.4814 33.3965 79.496 33.4024 79.5069 33.4129C79.5177 33.4233 79.5238 33.4375 79.5238 33.4523C79.5238 33.467 79.5177 33.4812 79.5069 33.4917C79.496 33.5021 79.4814 33.508 79.466 33.508V33.508ZM79.5673 33.1558H78.1829C78.1749 33.1563 78.1669 33.1553 78.1594 33.1528C78.1518 33.1502 78.1449 33.1462 78.139 33.141C78.1331 33.1357 78.1285 33.1294 78.1253 33.1223C78.1221 33.1152 78.1204 33.1076 78.1204 33.0999C78.1204 33.0922 78.1221 33.0845 78.1253 33.0775C78.1285 33.0704 78.1331 33.064 78.139 33.0588C78.1449 33.0535 78.1518 33.0495 78.1594 33.047C78.1669 33.0444 78.1749 33.0434 78.1829 33.044H79.5673C79.5819 33.0451 79.5955 33.0514 79.6055 33.0618C79.6154 33.0721 79.621 33.0858 79.621 33.0999C79.621 33.114 79.6154 33.1276 79.6055 33.138C79.5955 33.1483 79.5819 33.1547 79.5673 33.1558V33.1558ZM79.6499 32.8035H78.0999C78.0846 32.8035 78.0699 32.7977 78.0591 32.7872C78.0482 32.7768 78.0422 32.7626 78.0422 32.7478C78.0422 32.7331 78.0482 32.7189 78.0591 32.7084C78.0699 32.698 78.0846 32.6921 78.0999 32.6921H79.6499C79.6652 32.6921 79.6799 32.698 79.6908 32.7084C79.7016 32.7189 79.7077 32.7331 79.7077 32.7478C79.7077 32.7626 79.7016 32.7768 79.6908 32.7872C79.6799 32.7977 79.6652 32.8035 79.6499 32.8035Z" fill="white"/>
<path opacity="0.16" d="M76.9735 32.134C76.9735 32.1514 76.9682 32.1684 76.9582 32.1829C76.9482 32.1974 76.9339 32.2086 76.9173 32.2153C76.9006 32.222 76.8823 32.2237 76.8646 32.2203C76.8469 32.2169 76.8307 32.2085 76.8179 32.1962C76.8052 32.1839 76.7965 32.1682 76.793 32.1512C76.7895 32.1341 76.7913 32.1164 76.7982 32.1003C76.8051 32.0842 76.8168 32.0705 76.8318 32.0608C76.8467 32.0511 76.8644 32.046 76.8824 32.046C76.9066 32.046 76.9297 32.0552 76.9468 32.0717C76.9639 32.0883 76.9735 32.1106 76.9735 32.134Z" fill="white"/>
</g>
<g opacity="0.16">
<path opacity="0.16" d="M17.9791 3.63743C17.9049 3.6375 17.8324 3.61633 17.7707 3.57661C17.709 3.53689 17.6608 3.48041 17.6324 3.4143C17.604 3.34819 17.5965 3.27543 17.6109 3.20522C17.6254 3.13501 17.661 3.07051 17.7135 3.01988C17.7659 2.96924 17.8327 2.93475 17.9055 2.92076C17.9782 2.90678 18.0537 2.91392 18.1222 2.9413C18.1907 2.96868 18.2493 3.01505 18.2905 3.07456C18.3318 3.13407 18.3538 3.20403 18.3538 3.27561C18.3537 3.37149 18.3142 3.46342 18.244 3.53125C18.1737 3.59908 18.0785 3.63726 17.9791 3.63743V3.63743Z" fill="white"/>
<path opacity="0.16" d="M19.6631 3.63743C19.5889 3.63743 19.5164 3.61621 19.4548 3.57646C19.3931 3.5367 19.345 3.48019 19.3166 3.41407C19.2882 3.34796 19.2808 3.27521 19.2953 3.20502C19.3098 3.13484 19.3455 3.07037 19.3979 3.01976C19.4504 2.96916 19.5172 2.9347 19.5899 2.92074C19.6627 2.90678 19.7381 2.91394 19.8066 2.94133C19.8751 2.96872 19.9337 3.01509 19.9749 3.07459C20.0161 3.13409 20.0381 3.20405 20.0381 3.27561C20.0379 3.37152 19.9984 3.46345 19.9281 3.53127C19.8578 3.59909 19.7625 3.63726 19.6631 3.63743V3.63743Z" fill="white"/>
<path opacity="0.16" d="M19.663 3.33004H18.0626C18.0404 3.33011 18.0184 3.32509 17.9986 3.3154C17.9787 3.30572 17.9615 3.29163 17.9484 3.2743C17.9352 3.25697 17.9265 3.23688 17.923 3.21568C17.9194 3.19448 17.9211 3.17277 17.9279 3.15233L18.143 2.64289C18.1487 2.62918 18.1599 2.61823 18.174 2.61247C18.1882 2.60671 18.2041 2.60659 18.2183 2.61215C18.2325 2.61772 18.2439 2.6285 18.2498 2.64213C18.2558 2.65576 18.2559 2.67112 18.2502 2.68484L18.0368 3.19043C18.0363 3.19364 18.0365 3.1969 18.0374 3.20003C18.0382 3.20317 18.0397 3.2061 18.0417 3.20868C18.0442 3.21174 18.0474 3.21423 18.051 3.21594C18.0546 3.21766 18.0586 3.21857 18.0626 3.21861H19.663C19.6783 3.21861 19.693 3.22448 19.7038 3.23493C19.7146 3.24538 19.7207 3.25955 19.7207 3.27432C19.7207 3.2891 19.7146 3.30327 19.7038 3.31372C19.693 3.32417 19.6783 3.33004 19.663 3.33004V3.33004Z" fill="white"/>
<path opacity="0.16" d="M20.1568 1.3032C20.1437 1.28597 20.1266 1.27196 20.1068 1.26228C20.087 1.2526 20.0652 1.24754 20.043 1.24749H17.6324L17.5192 0.997094C17.5145 0.987446 17.5071 0.9793 17.4977 0.973624C17.4884 0.967948 17.4775 0.964982 17.4665 0.965075H16.9308C16.9155 0.965075 16.9008 0.970944 16.89 0.981392C16.8791 0.991841 16.873 1.00601 16.873 1.02079C16.873 1.03557 16.8791 1.04974 16.89 1.06018C16.9008 1.07063 16.9155 1.0765 16.9308 1.0765H17.4286L18.1356 2.63906C18.1464 2.66359 18.1645 2.68449 18.1876 2.69918C18.2107 2.71386 18.2377 2.72169 18.2654 2.72168H19.6504C19.6805 2.72166 19.7099 2.71233 19.7341 2.69504C19.7584 2.67775 19.7762 2.65342 19.7851 2.62562L20.1794 1.42488C20.1858 1.40431 20.187 1.38258 20.1831 1.36145C20.1792 1.34032 20.1702 1.32037 20.1568 1.3032ZM19.5319 2.39796H18.3493C18.334 2.39796 18.3193 2.39209 18.3085 2.38164C18.2977 2.37119 18.2916 2.35702 18.2916 2.34224C18.2916 2.32747 18.2977 2.31329 18.3085 2.30285C18.3193 2.2924 18.334 2.28653 18.3493 2.28653H19.5319C19.5472 2.28653 19.5619 2.2924 19.5727 2.30285C19.5835 2.31329 19.5896 2.32747 19.5896 2.34224C19.5896 2.35702 19.5835 2.37119 19.5727 2.38164C19.5619 2.39209 19.5472 2.39796 19.5319 2.39796ZM19.6314 2.04574H18.2484C18.2338 2.04467 18.2202 2.03832 18.2102 2.02796C18.2003 2.0176 18.1947 2.00399 18.1947 1.98986C18.1947 1.97574 18.2003 1.96213 18.2102 1.95177C18.2202 1.94141 18.2338 1.93506 18.2484 1.93399H19.6328C19.6407 1.93341 19.6488 1.93442 19.6563 1.93696C19.6639 1.93951 19.6708 1.94353 19.6766 1.94877C19.6825 1.95402 19.6872 1.96038 19.6904 1.96745C19.6936 1.97452 19.6952 1.98215 19.6952 1.98986C19.6952 1.99758 19.6936 2.00521 19.6904 2.01228C19.6872 2.01935 19.6825 2.02571 19.6766 2.03096C19.6708 2.0362 19.6639 2.04022 19.6563 2.04277C19.6488 2.04531 19.6407 2.04632 19.6328 2.04574H19.6314ZM19.7144 1.69352H18.1645C18.1491 1.69352 18.1345 1.68765 18.1236 1.6772C18.1128 1.66676 18.1067 1.65258 18.1067 1.63781C18.1067 1.62303 18.1128 1.60886 18.1236 1.59841C18.1345 1.58796 18.1491 1.58209 18.1645 1.58209H19.7147C19.7301 1.58209 19.7448 1.58796 19.7556 1.59841C19.7664 1.60886 19.7725 1.62303 19.7725 1.63781C19.7725 1.65258 19.7664 1.66676 19.7556 1.6772C19.7448 1.68765 19.7301 1.69352 19.7147 1.69352H19.7144Z" fill="white"/>
<path opacity="0.16" d="M17.0395 1.02462C17.0395 1.04204 17.0342 1.05906 17.0241 1.07354C17.0141 1.08802 16.9998 1.09931 16.9832 1.10598C16.9665 1.11264 16.9481 1.11438 16.9304 1.11099C16.9127 1.10759 16.8964 1.0992 16.8837 1.08689C16.8709 1.07457 16.8622 1.05888 16.8587 1.0418C16.8552 1.02472 16.857 1.00702 16.8639 0.990927C16.8708 0.974837 16.8825 0.961085 16.8975 0.951409C16.9125 0.941734 16.9302 0.936569 16.9482 0.936569C16.9724 0.936569 16.9957 0.945846 17.0128 0.962359C17.0299 0.978873 17.0395 1.00127 17.0395 1.02462Z" fill="white"/>
</g>
<g opacity="0.16">
<path opacity="0.16" d="M86.9345 30.6317H84.0414C83.9647 30.632 83.8912 30.6616 83.837 30.7139C83.7828 30.7663 83.7522 30.8372 83.752 30.9112V31.0857H87.2242V30.9115C87.2242 30.8373 87.1937 30.7662 87.1394 30.7137C87.0851 30.6613 87.0114 30.6317 86.9345 30.6317V30.6317Z" fill="white"/>
<path opacity="0.16" d="M84.5645 32.158H84.3435V32.2397H84.5645V32.158Z" fill="white"/>
<path opacity="0.16" d="M83.752 32.5208C83.7519 32.5575 83.7594 32.5938 83.7739 32.6277C83.7884 32.6616 83.8096 32.6924 83.8365 32.7183C83.8633 32.7443 83.8952 32.7649 83.9303 32.779C83.9654 32.793 84.003 32.8003 84.041 32.8003H86.9348C87.0115 32.8002 87.0851 32.7707 87.1393 32.7184C87.1935 32.666 87.2241 32.5951 87.2243 32.5211V31.426H83.752V32.5208ZM85.5306 31.6918H86.7735C86.7911 31.6918 86.808 31.6985 86.8205 31.7105C86.8329 31.7225 86.8399 31.7388 86.8399 31.7558C86.8399 31.7728 86.8329 31.7891 86.8205 31.8011C86.808 31.8131 86.7911 31.8199 86.7735 31.8199H85.5293C85.5117 31.8199 85.4948 31.8131 85.4823 31.8011C85.4699 31.7891 85.4629 31.7728 85.4629 31.7558C85.4629 31.7388 85.4699 31.7225 85.4823 31.7105C85.4948 31.6985 85.5117 31.6918 85.5293 31.6918H85.5306ZM85.5306 31.9659H86.0284C86.046 31.9659 86.0629 31.9726 86.0754 31.9846C86.0878 31.9966 86.0948 32.0129 86.0948 32.0299C86.0948 32.0469 86.0878 32.0632 86.0754 32.0752C86.0629 32.0872 86.046 32.094 86.0284 32.094H85.5306C85.513 32.094 85.4961 32.0872 85.4836 32.0752C85.4712 32.0632 85.4642 32.0469 85.4642 32.0299C85.4642 32.0129 85.4712 31.9966 85.4836 31.9846C85.4961 31.9726 85.513 31.9659 85.5306 31.9659ZM85.5306 32.2397H86.7735C86.7911 32.2397 86.808 32.2464 86.8205 32.2584C86.8329 32.2704 86.8399 32.2867 86.8399 32.3037C86.8399 32.3207 86.8329 32.337 86.8205 32.349C86.808 32.361 86.7911 32.3677 86.7735 32.3677H85.5293C85.5117 32.3677 85.4948 32.361 85.4823 32.349C85.4699 32.337 85.4629 32.3207 85.4629 32.3037C85.4629 32.2867 85.4699 32.2704 85.4823 32.2584C85.4948 32.2464 85.5117 32.2397 85.5293 32.2397H85.5306ZM84.2093 32.0933V31.5867C84.2093 31.5698 84.2163 31.5535 84.2287 31.5415C84.2412 31.5294 84.2581 31.5227 84.2757 31.5227H84.6331C84.6507 31.5227 84.6676 31.5294 84.6801 31.5415C84.6925 31.5535 84.6995 31.5698 84.6995 31.5867V31.7331H84.8323C84.8499 31.7331 84.8668 31.7398 84.8792 31.7518C84.8917 31.7638 84.8987 31.7801 84.8987 31.7971V32.0927C84.8987 32.1097 84.8917 32.1259 84.8792 32.138C84.8668 32.15 84.8499 32.1567 84.8323 32.1567H84.6995V32.3031C84.6995 32.32 84.6925 32.3363 84.6801 32.3483C84.6676 32.3603 84.6507 32.3671 84.6331 32.3671H84.278C84.2604 32.3671 84.2435 32.3603 84.2311 32.3483C84.2186 32.3363 84.2116 32.32 84.2116 32.3031L84.2093 32.0933Z" fill="white"/>
<path opacity="0.16" d="M84.765 31.8629H84.6316H84.3435V32.0287H84.6316H84.765V31.8629Z" fill="white"/>
<path opacity="0.16" d="M84.5645 31.6515H84.3435V31.7331H84.5645V31.6515Z" fill="white"/>
<path opacity="0.16" d="M83.8399 30.9922H83.752V31.426H83.8399V30.9922Z" fill="white"/>
<path opacity="0.16" d="M87.2242 30.9922H87.1362V31.426H87.2242V30.9922Z" fill="white"/>
</g>
<g opacity="0.16">
<path opacity="0.16" d="M72.7551 32.6025H69.8633C69.7866 32.6026 69.713 32.6321 69.6588 32.6844C69.6046 32.7368 69.574 32.8077 69.5739 32.8817V33.0562H73.0458V32.882C73.0458 32.8452 73.0383 32.8088 73.0237 32.7748C73.009 32.7408 72.9876 32.71 72.9606 32.684C72.9336 32.658 72.9015 32.6375 72.8663 32.6235C72.831 32.6095 72.7932 32.6023 72.7551 32.6025V32.6025Z" fill="white"/>
<path opacity="0.16" d="M70.3858 34.1285H70.1648V34.2102H70.3858V34.1285Z" fill="white"/>
<path opacity="0.16" d="M69.5732 34.4913C69.5732 34.528 69.5806 34.5643 69.5951 34.5982C69.6096 34.6321 69.6309 34.6629 69.6578 34.6888C69.6846 34.7148 69.7165 34.7354 69.7516 34.7495C69.7867 34.7635 69.8243 34.7708 69.8623 34.7708H72.7561C72.8328 34.7707 72.9063 34.7412 72.9605 34.6888C73.0147 34.6365 73.0451 34.5656 73.0452 34.4916V33.3965H69.5732V34.4913ZM71.3519 33.6623H72.5948C72.6124 33.6623 72.6293 33.6691 72.6418 33.6811C72.6542 33.6931 72.6612 33.7094 72.6612 33.7264C72.6612 33.7433 72.6542 33.7596 72.6418 33.7716C72.6293 33.7836 72.6124 33.7904 72.5948 33.7904H71.3519C71.3343 33.7904 71.3174 33.7836 71.3049 33.7716C71.2925 33.7596 71.2855 33.7433 71.2855 33.7264C71.2855 33.7094 71.2925 33.6931 71.3049 33.6811C71.3174 33.6691 71.3343 33.6623 71.3519 33.6623ZM71.3519 33.9364H71.8497C71.8673 33.9364 71.8842 33.9431 71.8967 33.9552C71.9091 33.9672 71.9161 33.9835 71.9161 34.0004C71.9161 34.0174 71.9091 34.0337 71.8967 34.0457C71.8842 34.0577 71.8673 34.0645 71.8497 34.0645H71.3519C71.3343 34.0645 71.3174 34.0577 71.3049 34.0457C71.2925 34.0337 71.2855 34.0174 71.2855 34.0004C71.2855 33.9835 71.2925 33.9672 71.3049 33.9552C71.3174 33.9431 71.3343 33.9364 71.3519 33.9364ZM71.3519 34.2102H72.5948C72.6124 34.2102 72.6293 34.2169 72.6418 34.2289C72.6542 34.2409 72.6612 34.2572 72.6612 34.2742C72.6612 34.2912 72.6542 34.3075 72.6418 34.3195C72.6293 34.3315 72.6124 34.3382 72.5948 34.3382H71.3519C71.3343 34.3382 71.3174 34.3315 71.3049 34.3195C71.2925 34.3075 71.2855 34.2912 71.2855 34.2742C71.2855 34.2572 71.2925 34.2409 71.3049 34.2289C71.3174 34.2169 71.3343 34.2102 71.3519 34.2102ZM70.0303 34.0638V33.5566C70.0303 33.5397 70.0373 33.5234 70.0497 33.5114C70.0622 33.4994 70.079 33.4926 70.0966 33.4926H70.4518C70.4694 33.4926 70.4863 33.4994 70.4987 33.5114C70.5112 33.5234 70.5182 33.5397 70.5182 33.5566V33.703H70.6509C70.6685 33.703 70.6854 33.7097 70.6979 33.7217C70.7103 33.7337 70.7173 33.75 70.7173 33.767V34.0626C70.7173 34.0795 70.7103 34.0958 70.6979 34.1078C70.6854 34.1199 70.6685 34.1266 70.6509 34.1266H70.5182V34.2729C70.5182 34.2899 70.5112 34.3062 70.4987 34.3182C70.4863 34.3302 70.4694 34.337 70.4518 34.337H70.0963C70.0787 34.337 70.0618 34.3302 70.0494 34.3182C70.0369 34.3062 70.0299 34.2899 70.0299 34.2729L70.0303 34.0638Z" fill="white"/>
<path opacity="0.16" d="M70.5863 33.833H70.4529H70.1648V33.9992H70.4529H70.5863V33.833Z" fill="white"/>
<path opacity="0.16" d="M70.3858 33.622H70.1648V33.7036H70.3858V33.622Z" fill="white"/>
<path opacity="0.16" d="M69.6612 32.9627H69.5732V33.3965H69.6612V32.9627Z" fill="white"/>
<path opacity="0.16" d="M73.0455 32.9627H72.9575V33.3965H73.0455V32.9627Z" fill="white"/>
</g>
<g opacity="0.16">
<path opacity="0.16" d="M11.1742 8.22906H8.28144C8.20468 8.22932 8.13113 8.25885 8.07685 8.31122C8.02257 8.36358 7.99196 8.43454 7.9917 8.5086V8.6831H11.464V8.50764C11.4636 8.43369 11.4329 8.36289 11.3786 8.31069C11.3244 8.25849 11.2509 8.22915 11.1742 8.22906V8.22906Z" fill="white"/>
<path opacity="0.16" d="M8.80429 9.75449H8.58325V9.83614H8.80429V9.75449Z" fill="white"/>
<path opacity="0.16" d="M7.9917 10.1182C7.99166 10.1549 7.99911 10.1913 8.01363 10.2252C8.02816 10.2591 8.04947 10.2899 8.07635 10.3159C8.10323 10.3418 8.13515 10.3624 8.17028 10.3765C8.20542 10.3905 8.24308 10.3978 8.28111 10.3978H11.1746C11.2513 10.3977 11.3249 10.3682 11.3791 10.3159C11.4334 10.2635 11.4639 10.1926 11.464 10.1185V9.02347H7.9917V10.1182ZM9.77032 9.28923H11.0133C11.0309 9.28923 11.0477 9.29598 11.0602 9.30799C11.0726 9.32 11.0796 9.33629 11.0796 9.35327C11.0796 9.37026 11.0726 9.38654 11.0602 9.39855C11.0477 9.41056 11.0309 9.41731 11.0133 9.41731H9.77032C9.75271 9.41731 9.73583 9.41056 9.72338 9.39855C9.71093 9.38654 9.70394 9.37026 9.70394 9.35327C9.70394 9.33629 9.71093 9.32 9.72338 9.30799C9.73583 9.29598 9.75271 9.28923 9.77032 9.28923ZM9.77032 9.56332H10.2682C10.2858 9.56332 10.3026 9.57007 10.3151 9.58208C10.3275 9.59409 10.3345 9.61038 10.3345 9.62736C10.3345 9.64434 10.3275 9.66063 10.3151 9.67264C10.3026 9.68465 10.2858 9.6914 10.2682 9.6914H9.77032C9.75271 9.6914 9.73583 9.68465 9.72338 9.67264C9.71093 9.66063 9.70394 9.64434 9.70394 9.62736C9.70394 9.61038 9.71093 9.59409 9.72338 9.58208C9.73583 9.57007 9.75271 9.56332 9.77032 9.56332ZM9.77032 9.83709H11.0133C11.0309 9.83709 11.0477 9.84384 11.0602 9.85585C11.0726 9.86786 11.0796 9.88414 11.0796 9.90113C11.0796 9.91811 11.0726 9.9344 11.0602 9.94641C11.0477 9.95842 11.0309 9.96517 11.0133 9.96517H9.77032C9.75271 9.96517 9.73583 9.95842 9.72338 9.94641C9.71093 9.9344 9.70394 9.91811 9.70394 9.90113C9.70394 9.88414 9.71093 9.86786 9.72338 9.85585C9.73583 9.84384 9.75271 9.83709 9.77032 9.83709ZM8.44905 9.69076V9.18325C8.44905 9.16626 8.45604 9.14997 8.46849 9.13796C8.48094 9.12595 8.49782 9.11921 8.51543 9.11921H8.87055C8.88816 9.11921 8.90504 9.12595 8.91749 9.13796C8.92994 9.14997 8.93693 9.16626 8.93693 9.18325V9.32958H9.06969C9.08729 9.32958 9.10418 9.33632 9.11663 9.34833C9.12908 9.36034 9.13607 9.37663 9.13607 9.39362V9.68916C9.13607 9.70614 9.12908 9.72243 9.11663 9.73444C9.10418 9.74645 9.08729 9.7532 9.06969 9.7532H8.93693V9.89953C8.93693 9.91651 8.92994 9.9328 8.91749 9.94481C8.90504 9.95682 8.88816 9.96357 8.87055 9.96357H8.51543C8.49782 9.96357 8.48094 9.95682 8.46849 9.94481C8.45604 9.9328 8.44905 9.91651 8.44905 9.89953V9.69076Z" fill="white"/>
<path opacity="0.16" d="M9.00509 9.45894H8.87134H8.58325V9.62512H8.87134H9.00509V9.45894Z" fill="white"/>
<path opacity="0.16" d="M8.80429 9.24792H8.58325V9.32957H8.80429V9.24792Z" fill="white"/>
<path opacity="0.16" d="M8.07959 8.58864H7.9917V9.02251H8.07959V8.58864Z" fill="white"/>
<path opacity="0.16" d="M11.4639 8.58864H11.376V9.02251H11.4639V8.58864Z" fill="white"/>
</g>
<g opacity="0.16">
<path opacity="0.16" d="M95.3574 30.6329V32.1907H98.4401V30.6329H95.3574ZM98.2904 31.7318C98.2018 31.7318 98.1169 31.7658 98.0543 31.8262C97.9917 31.8866 97.9565 31.9685 97.9565 32.054H95.8417C95.8417 31.9685 95.8065 31.8866 95.7439 31.8262C95.6812 31.7658 95.5963 31.7318 95.5078 31.7318V31.0914C95.5963 31.0914 95.6812 31.0575 95.7439 30.9971C95.8065 30.9367 95.8417 30.8548 95.8417 30.7693H97.9565C97.9565 30.8548 97.9917 30.9367 98.0543 30.9971C98.1169 31.0575 98.2018 31.0914 98.2904 31.0914V31.7318Z" fill="white"/>
<path opacity="0.16" d="M96.6749 31.1872C96.6744 31.1924 96.6744 31.1977 96.6749 31.2029C96.6749 31.2727 96.7456 31.331 96.8408 31.3492V31.0562C96.7516 31.0726 96.6842 31.1231 96.6749 31.1872Z" fill="white"/>
<path opacity="0.16" d="M96.9583 31.7674C97.0542 31.7498 97.1242 31.6909 97.1242 31.6207C97.1242 31.5506 97.0532 31.4926 96.9583 31.4744V31.7674Z" fill="white"/>
<path opacity="0.16" d="M96.8992 30.7709C96.5865 30.7709 96.3323 31.0591 96.3323 31.4113C96.3323 31.7635 96.5865 32.0536 96.8992 32.0536C97.2118 32.0536 97.466 31.7655 97.466 31.4113C97.466 31.0572 97.2121 30.7709 96.8992 30.7709ZM97.2423 31.6217C97.2423 31.7527 97.1192 31.8615 96.9582 31.8833V31.8977C96.9588 31.9055 96.9578 31.9134 96.9551 31.9208C96.9524 31.9282 96.9482 31.935 96.9426 31.9407C96.9371 31.9465 96.9304 31.9511 96.9229 31.9542C96.9155 31.9574 96.9074 31.959 96.8993 31.959C96.8912 31.959 96.8831 31.9574 96.8757 31.9542C96.8682 31.9511 96.8615 31.9465 96.856 31.9407C96.8505 31.935 96.8462 31.9282 96.8436 31.9208C96.8409 31.9134 96.8398 31.9055 96.8404 31.8977V31.8833C96.6791 31.8615 96.556 31.7527 96.556 31.6217C96.5571 31.6074 96.5638 31.594 96.5747 31.5842C96.5856 31.5744 96.6 31.569 96.6149 31.569C96.6298 31.569 96.6441 31.5744 96.6551 31.5842C96.666 31.594 96.6727 31.6074 96.6738 31.6217C96.6738 31.6918 96.7445 31.7498 96.8397 31.7683V31.4658C96.6784 31.444 96.5553 31.3348 96.5553 31.2042C96.5553 31.1861 96.5576 31.1682 96.5623 31.1507C96.5908 31.0444 96.701 30.9611 96.8397 30.9426V30.9278C96.8409 30.9135 96.8476 30.9001 96.8585 30.8903C96.8694 30.8805 96.8838 30.8751 96.8987 30.8751C96.9136 30.8751 96.9279 30.8805 96.9388 30.8903C96.9498 30.9001 96.9565 30.9135 96.9576 30.9278V30.9426C97.1185 30.964 97.2417 31.0732 97.2417 31.2042C97.2417 31.2192 97.2355 31.2336 97.2245 31.2442C97.2134 31.2549 97.1985 31.2608 97.1829 31.2608C97.1673 31.2608 97.1524 31.2549 97.1414 31.2442C97.1304 31.2336 97.1242 31.2192 97.1242 31.2042C97.1242 31.134 97.0535 31.0761 96.9582 31.0575V31.3601C97.1192 31.3793 97.2423 31.4898 97.2423 31.6207V31.6217Z" fill="white"/>
<path opacity="0.16" d="M98.5247 32.013L98.9863 31.0236L98.5247 30.8231V31.2832C98.5585 31.3262 98.6028 31.3603 98.6538 31.3825L98.5247 31.6595V32.013Z" fill="white"/>
<path opacity="0.16" d="M98.0002 32.3037L98.3235 32.444L98.3889 32.3037H98.0002Z" fill="white"/>
<path opacity="0.16" d="M95.9987 30.5333L96.1168 30.2804C96.1974 30.3155 96.2891 30.3184 96.3719 30.2884C96.4546 30.2584 96.5217 30.1979 96.5583 30.1203L97.5125 30.5346H97.858L96.1749 29.8036L95.8337 30.5346L95.9987 30.5333Z" fill="white"/>
</g>
<g opacity="0.16">
<path opacity="0.16" d="M21.5503 6.58806V8.14614H24.6336V6.58806H21.5503ZM24.4833 7.68697C24.3947 7.68697 24.3098 7.72091 24.2472 7.78132C24.1845 7.84173 24.1494 7.92366 24.1494 8.00909H22.0345C22.0345 7.92366 21.9994 7.84173 21.9367 7.78132C21.8741 7.72091 21.7892 7.68697 21.7006 7.68697V7.04658C21.7445 7.04658 21.788 7.03824 21.8285 7.02203C21.869 7.00582 21.9058 6.98207 21.9369 6.95212C21.9679 6.92217 21.9924 6.88663 22.0092 6.84751C22.026 6.80839 22.0346 6.76647 22.0345 6.72414H24.1494C24.1494 6.80957 24.1845 6.8915 24.2472 6.95191C24.3098 7.01232 24.3947 7.04626 24.4833 7.04626V7.68697Z" fill="white"/>
<path opacity="0.16" d="M22.8676 7.14295C22.8671 7.14807 22.8671 7.15321 22.8676 7.15832C22.8676 7.22813 22.9383 7.2864 23.0335 7.30497V7.01231C22.9446 7.02768 22.8772 7.07956 22.8676 7.14295Z" fill="white"/>
<path opacity="0.16" d="M23.1511 7.72251C23.2467 7.7049 23.3171 7.64599 23.3171 7.57586C23.3171 7.50574 23.2457 7.44779 23.1511 7.42953V7.72251Z" fill="white"/>
<path opacity="0.16" d="M23.092 6.72414C22.7794 6.72414 22.5251 7.01231 22.5251 7.36613C22.5251 7.71995 22.7794 8.00652 23.092 8.00652C23.4047 8.00652 23.6589 7.71835 23.6589 7.36613C23.6589 7.01391 23.405 6.72414 23.092 6.72414ZM23.4352 7.57586C23.4352 7.70682 23.3121 7.81569 23.1511 7.83746V7.85187C23.1517 7.85969 23.1506 7.86755 23.148 7.87496C23.1453 7.88236 23.141 7.88915 23.1355 7.8949C23.13 7.90065 23.1233 7.90524 23.1158 7.90838C23.1084 7.91152 23.1003 7.91313 23.0922 7.91313C23.0841 7.91313 23.076 7.91152 23.0686 7.90838C23.0611 7.90524 23.0544 7.90065 23.0489 7.8949C23.0433 7.88915 23.0391 7.88236 23.0364 7.87496C23.0337 7.86755 23.0327 7.85969 23.0333 7.85187V7.83746C22.872 7.81569 22.7488 7.70682 22.7488 7.57586C22.75 7.56152 22.7567 7.54812 22.7676 7.53835C22.7785 7.52857 22.7929 7.52313 22.8078 7.52313C22.8227 7.52313 22.837 7.52857 22.8479 7.53835C22.8589 7.54812 22.8655 7.56152 22.8667 7.57586C22.8667 7.64598 22.9374 7.70394 23.0326 7.72251V7.41992C22.8713 7.39815 22.7482 7.28928 22.7482 7.15832C22.7481 7.14028 22.7505 7.12231 22.7551 7.10485C22.7834 6.99855 22.8939 6.91529 23.0326 6.89672V6.88199C23.0337 6.86766 23.0404 6.85426 23.0513 6.84448C23.0623 6.8347 23.0766 6.82927 23.0915 6.82927C23.1064 6.82927 23.1208 6.8347 23.1317 6.84448C23.1426 6.85426 23.1493 6.86766 23.1504 6.88199V6.89672C23.3114 6.91818 23.4345 7.02736 23.4345 7.15832C23.4345 7.17335 23.4284 7.18777 23.4173 7.1984C23.4063 7.20903 23.3914 7.215 23.3758 7.215C23.3602 7.215 23.3453 7.20903 23.3343 7.1984C23.3232 7.18777 23.317 7.17335 23.317 7.15832C23.317 7.0882 23.246 7.03024 23.1511 7.01167V7.31426C23.3121 7.33603 23.4352 7.4449 23.4352 7.57586Z" fill="white"/>
<path opacity="0.16" d="M24.7175 7.9681L25.1791 6.98029L24.7175 6.77985V7.23997C24.7513 7.2829 24.7957 7.31702 24.8466 7.33923L24.7175 7.6162V7.9681Z" fill="white"/>
<path opacity="0.16" d="M24.1931 8.25885L24.5164 8.3991L24.5818 8.25885H24.1931Z" fill="white"/>
<path opacity="0.16" d="M22.1916 6.48847L22.3097 6.23552C22.3903 6.27065 22.482 6.27352 22.5647 6.24351C22.6475 6.2135 22.7145 6.15305 22.7511 6.07542L23.7053 6.48975H24.0508L22.3678 5.75874L22.0266 6.48975L22.1916 6.48847Z" fill="white"/>
</g>
<g opacity="0.16">
<path opacity="0.16" d="M74.2612 36.3376V37.8956H77.3445V36.3376H74.2612ZM77.1942 37.4365C77.1503 37.4365 77.1069 37.4448 77.0663 37.461C77.0258 37.4772 76.989 37.501 76.958 37.5309C76.927 37.5609 76.9024 37.5964 76.8856 37.6355C76.8689 37.6747 76.8603 37.7166 76.8603 37.7589H74.7455C74.7455 37.7166 74.7369 37.6747 74.7201 37.6355C74.7034 37.5964 74.6788 37.5609 74.6478 37.5309C74.6168 37.501 74.58 37.4772 74.5394 37.461C74.4989 37.4448 74.4555 37.4365 74.4116 37.4365V36.7961C74.5001 36.7961 74.5851 36.7621 74.6477 36.7017C74.7103 36.6413 74.7455 36.5594 74.7455 36.474H76.8603C76.8603 36.5594 76.8955 36.6413 76.9581 36.7017C77.0207 36.7621 77.1056 36.7961 77.1942 36.7961V37.4365Z" fill="white"/>
<path opacity="0.16" d="M75.5787 36.8925C75.5782 36.8976 75.5782 36.9027 75.5787 36.9078C75.5787 36.9776 75.6494 37.0359 75.7447 37.0545V36.7612C75.6554 36.7772 75.588 36.8291 75.5787 36.8925Z" fill="white"/>
<path opacity="0.16" d="M75.8621 37.472C75.958 37.4544 76.028 37.3955 76.028 37.3254C76.028 37.2552 75.957 37.1973 75.8621 37.179V37.472Z" fill="white"/>
<path opacity="0.16" d="M75.803 36.4746C75.4903 36.4746 75.2361 36.7628 75.2361 37.115C75.2361 37.4672 75.4903 37.7573 75.803 37.7573C76.1156 37.7573 76.3698 37.4691 76.3698 37.115C76.3698 36.7609 76.1159 36.4746 75.803 36.4746ZM76.1461 37.3254C76.1461 37.4563 76.023 37.5652 75.862 37.587V37.6017C75.8609 37.616 75.8542 37.6294 75.8433 37.6392C75.8324 37.649 75.818 37.6544 75.8031 37.6544C75.7882 37.6544 75.7739 37.649 75.7629 37.6392C75.752 37.6294 75.7453 37.616 75.7442 37.6017V37.587C75.5829 37.5652 75.4598 37.4563 75.4598 37.3254C75.4609 37.311 75.4676 37.2976 75.4785 37.2878C75.4894 37.2781 75.5038 37.2726 75.5187 37.2726C75.5336 37.2726 75.5479 37.2781 75.5589 37.2878C75.5698 37.2976 75.5765 37.311 75.5776 37.3254C75.5776 37.3955 75.6483 37.4534 75.7435 37.472V37.1694C75.5822 37.1476 75.4591 37.0388 75.4591 36.9078C75.4591 36.8898 75.4614 36.8718 75.4661 36.8543C75.4943 36.748 75.6048 36.6648 75.7435 36.6462V36.6305C75.7447 36.6162 75.7514 36.6028 75.7623 36.593C75.7732 36.5832 75.7876 36.5778 75.8025 36.5778C75.8174 36.5778 75.8317 36.5832 75.8426 36.593C75.8536 36.6028 75.8603 36.6162 75.8614 36.6305V36.6453C76.0223 36.6667 76.1455 36.7759 76.1455 36.9069C76.1455 36.9219 76.1393 36.9363 76.1283 36.9469C76.1173 36.9576 76.1023 36.9635 76.0867 36.9635C76.0712 36.9635 76.0562 36.9576 76.0452 36.9469C76.0342 36.9363 76.028 36.9219 76.028 36.9069C76.028 36.8367 75.9573 36.7788 75.862 36.7602V37.0628C76.023 37.0855 76.1461 37.1944 76.1461 37.3254Z" fill="white"/>
<path opacity="0.16" d="M77.4285 37.7192L77.8901 36.7298L77.4285 36.5294V36.9895C77.4623 37.0324 77.5067 37.0665 77.5576 37.0887L77.4285 37.3657V37.7192Z" fill="white"/>
<path opacity="0.16" d="M76.9041 38.0083L77.2273 38.1489L77.2927 38.0083H76.9041Z" fill="white"/>
<path opacity="0.16" d="M74.9025 36.238L75.0207 35.985C75.1012 36.0202 75.1929 36.0232 75.2757 35.9931C75.3585 35.9631 75.4255 35.9026 75.4621 35.8249L76.4163 36.2393H76.7618L75.0787 35.5082L74.7375 36.2393L74.9025 36.238Z" fill="white"/>
</g>
<g opacity="0.16">
<path opacity="0.16" d="M8.32837 2.83055V4.38831H11.4117V2.83055H8.32837ZM11.2613 3.92947C11.2175 3.92942 11.174 3.93773 11.1335 3.9539C11.093 3.97007 11.0561 3.9938 11.0251 4.02372C10.9941 4.05364 10.9695 4.08917 10.9528 4.12827C10.936 4.16737 10.9274 4.20927 10.9274 4.25159H8.8126C8.81265 4.20927 8.80404 4.16737 8.78728 4.12827C8.77051 4.08917 8.74592 4.05364 8.71491 4.02372C8.6839 3.9938 8.64707 3.97007 8.60654 3.9539C8.56601 3.93773 8.52258 3.92942 8.47872 3.92947V3.28907C8.52258 3.28911 8.56601 3.28081 8.60654 3.26464C8.64707 3.24847 8.6839 3.22474 8.71491 3.19482C8.74592 3.1649 8.77051 3.12937 8.78728 3.09027C8.80404 3.05117 8.81265 3.00927 8.8126 2.96696H10.9274C10.9274 3.00927 10.936 3.05117 10.9528 3.09027C10.9695 3.12937 10.9941 3.1649 11.0251 3.19482C11.0561 3.22474 11.093 3.24847 11.1335 3.26464C11.174 3.28081 11.2175 3.28911 11.2613 3.28907V3.92947Z" fill="white"/>
<path opacity="0.16" d="M9.64589 3.38513C9.64538 3.39035 9.64538 3.3956 9.64589 3.40082C9.64589 3.47062 9.71657 3.5289 9.81182 3.54715V3.25417C9.72255 3.27018 9.65518 3.32173 9.64589 3.38513Z" fill="white"/>
<path opacity="0.16" d="M9.9292 3.96469C10.0248 3.9474 10.0951 3.88848 10.0951 3.81804C10.0951 3.74823 10.0238 3.68996 9.9292 3.67203V3.96469Z" fill="white"/>
<path opacity="0.16" d="M9.8701 2.96727C9.55746 2.96727 9.30322 3.25545 9.30322 3.60926C9.30322 3.96308 9.55746 4.25158 9.8701 4.25158C10.1827 4.25158 10.437 3.9634 10.437 3.60926C10.437 3.25513 10.1831 2.96727 9.8701 2.96727ZM10.2133 3.81803C10.2133 3.94899 10.0901 4.05818 9.92918 4.07995V4.09436C9.92979 4.10219 9.92872 4.11004 9.92603 4.11745C9.92335 4.12485 9.91911 4.13164 9.91358 4.1374C9.90805 4.14315 9.90135 4.14773 9.89389 4.15087C9.88644 4.15401 9.8784 4.15563 9.87027 4.15563C9.86214 4.15563 9.85409 4.15401 9.84664 4.15087C9.83919 4.14773 9.83249 4.14315 9.82696 4.1374C9.82143 4.13164 9.81719 4.12485 9.8145 4.11745C9.81182 4.11004 9.81075 4.10219 9.81135 4.09436V4.07995C9.65005 4.05818 9.52692 3.94899 9.52692 3.81803C9.52804 3.8037 9.53473 3.7903 9.54565 3.78052C9.55658 3.77074 9.57093 3.76531 9.58583 3.76531C9.60073 3.76531 9.61509 3.77074 9.62601 3.78052C9.63694 3.7903 9.64363 3.8037 9.64474 3.81803C9.64474 3.88848 9.71544 3.94611 9.81069 3.96468V3.66242C9.64939 3.64064 9.52626 3.53146 9.52626 3.40082C9.5262 3.38267 9.52854 3.3646 9.53323 3.34702C9.56144 3.24104 9.67196 3.15747 9.81069 3.1389V3.12449C9.81181 3.11015 9.8185 3.09675 9.82942 3.08697C9.84035 3.07719 9.8547 3.07176 9.8696 3.07176C9.8845 3.07176 9.89886 3.07719 9.90978 3.08697C9.92071 3.09675 9.9274 3.11015 9.92851 3.12449V3.13793C10.0895 3.15971 10.2126 3.26889 10.2126 3.39986C10.2126 3.41489 10.2064 3.4293 10.1954 3.43993C10.1844 3.45056 10.1695 3.45653 10.1539 3.45653C10.1383 3.45653 10.1233 3.45056 10.1123 3.43993C10.1013 3.4293 10.0951 3.41489 10.0951 3.39986C10.0951 3.32973 10.0241 3.27178 9.92918 3.2532V3.55547C10.0898 3.5782 10.2133 3.68739 10.2133 3.81803V3.81803Z" fill="white"/>
<path opacity="0.16" d="M11.4958 4.21027L11.9575 3.22086L11.4958 3.02042V3.48054C11.5295 3.52366 11.5739 3.5579 11.625 3.58012L11.4958 3.85677V4.21027Z" fill="white"/>
<path opacity="0.16" d="M10.9712 4.50101L11.2945 4.64157L11.3598 4.50101H10.9712Z" fill="white"/>
<path opacity="0.16" d="M8.96964 2.73097L9.08779 2.47801C9.16856 2.51304 9.26043 2.51568 9.34321 2.48535C9.426 2.45503 9.4929 2.39422 9.52921 2.31631L10.4834 2.73257H10.8289L9.14588 2.00124L8.80469 2.73257L8.96964 2.73097Z" fill="white"/>
</g>
<g opacity="0.16">
<path opacity="0.16" d="M86.8723 35.2937H85.9832C85.9341 35.2937 85.9221 35.3052 85.9221 35.353V36.9936C85.9222 37.0164 85.9316 37.0382 85.9483 37.0542C85.9649 37.0703 85.9875 37.0794 86.0111 37.0795H86.8445C86.8681 37.0795 86.8907 37.0704 86.9075 37.0543C86.9242 37.0383 86.9336 37.0164 86.9337 36.9936V35.353C86.9337 35.3056 86.9234 35.2937 86.8723 35.2937ZM86.4279 35.71C86.4033 35.71 86.3792 35.7029 86.3587 35.6897C86.3383 35.6765 86.3223 35.6577 86.3129 35.6358C86.3035 35.6138 86.3011 35.5897 86.3059 35.5664C86.3107 35.5431 86.3226 35.5217 86.34 35.5049C86.3575 35.4881 86.3797 35.4767 86.4038 35.4721C86.428 35.4675 86.453 35.4699 86.4758 35.4791C86.4985 35.4882 86.5179 35.5036 86.5316 35.5234C86.5452 35.5432 86.5525 35.5665 86.5524 35.5902C86.5525 35.606 86.5493 35.6217 86.5431 35.6364C86.5369 35.651 86.5277 35.6643 86.5162 35.6755C86.5046 35.6868 86.4909 35.6957 86.4757 35.7017C86.4606 35.7078 86.4443 35.7109 86.4279 35.7109V35.71Z" fill="white"/>
<path opacity="0.16" d="M86.4278 35.6261C86.3704 35.6261 86.3412 35.5544 86.3319 35.53C86.3286 35.5215 86.3288 35.5121 86.3327 35.5038C86.3366 35.4955 86.3437 35.4891 86.3525 35.4858C86.3613 35.4826 86.371 35.4829 86.3796 35.4866C86.3882 35.4903 86.3949 35.4972 86.3983 35.5057C86.4169 35.5515 86.4315 35.5582 86.4315 35.5582C86.4666 35.5431 86.5357 35.3104 86.5357 34.9015C86.5357 34.4926 86.4666 34.2611 86.4281 34.2441C86.393 34.2595 86.3236 34.4919 86.3236 34.9011C86.3236 35.0228 86.3375 35.2021 86.3502 35.3088C86.3513 35.3176 86.3486 35.3266 86.3429 35.3336C86.3372 35.3406 86.3288 35.3452 86.3196 35.3462C86.3104 35.3473 86.3012 35.3448 86.2939 35.3393C86.2866 35.3337 86.2819 35.3256 86.2808 35.3168C86.2678 35.2079 86.2539 35.0254 86.2539 34.9005C86.2539 34.8711 86.2559 34.1765 86.4298 34.1765C86.6037 34.1765 86.6057 34.8711 86.6057 34.9008C86.6057 34.9306 86.6014 35.6261 86.4278 35.6261Z" fill="white"/>
<path opacity="0.16" d="M87.8197 35.2937H87.4937C87.4937 35.2937 87.1509 35.7132 87.1509 35.7606V36.9936C87.151 37.0164 87.1604 37.0382 87.177 37.0542C87.1937 37.0703 87.2163 37.0794 87.2398 37.0795H88.0736C88.0971 37.0794 88.1197 37.0703 88.1364 37.0542C88.153 37.0382 88.1624 37.0164 88.1625 36.9936V35.7606C88.1628 35.7132 87.8197 35.2937 87.8197 35.2937ZM87.6567 35.71C87.6321 35.71 87.608 35.7029 87.5875 35.6897C87.567 35.6765 87.5511 35.6577 87.5417 35.6358C87.5323 35.6138 87.5298 35.5897 87.5346 35.5664C87.5395 35.5431 87.5514 35.5217 87.5688 35.5049C87.5862 35.4881 87.6084 35.4767 87.6326 35.4721C87.6568 35.4675 87.6818 35.4699 87.7046 35.4791C87.7273 35.4882 87.7467 35.5036 87.7603 35.5234C87.774 35.5432 87.7812 35.5665 87.7812 35.5902C87.7812 35.606 87.7781 35.6217 87.7719 35.6363C87.7657 35.6509 87.7566 35.6642 87.7451 35.6754C87.7335 35.6866 87.7198 35.6955 87.7047 35.7016C87.6896 35.7077 87.6734 35.7109 87.657 35.7109L87.6567 35.71Z" fill="white"/>
<path opacity="0.16" d="M87.6568 35.6261C87.5994 35.6261 87.5702 35.5544 87.5609 35.53C87.5576 35.5215 87.5578 35.5121 87.5617 35.5038C87.5656 35.4955 87.5727 35.4891 87.5815 35.4858C87.5903 35.4826 87.6001 35.4829 87.6086 35.4866C87.6172 35.4903 87.6239 35.4972 87.6273 35.5057C87.6459 35.5518 87.6605 35.5582 87.6605 35.5582C87.6956 35.5431 87.7647 35.3107 87.7647 34.9015C87.7647 34.4923 87.6957 34.2611 87.6572 34.2441C87.622 34.2595 87.5529 34.4923 87.5529 34.9011C87.5529 35.0219 87.5665 35.2015 87.5792 35.3091C87.5802 35.318 87.5776 35.3269 87.5718 35.3339C87.5661 35.3409 87.5577 35.3454 87.5485 35.3464C87.5393 35.3474 87.53 35.3449 87.5228 35.3393C87.5155 35.3337 87.5108 35.3256 87.5098 35.3168C87.4968 35.2073 87.4829 35.0244 87.4829 34.9005C87.4829 34.8711 87.4849 34.1765 87.6588 34.1765C87.8327 34.1765 87.8344 34.8711 87.8344 34.9008C87.8344 34.9306 87.8304 35.6261 87.6568 35.6261Z" fill="white"/>
<path opacity="0.16" d="M88.886 35.2937C88.7518 35.2937 88.6232 35.3451 88.5283 35.4366C88.4334 35.5282 88.3801 35.6523 88.3801 35.7817V37.0113C88.3802 37.0291 88.3876 37.0463 88.4007 37.0589C88.4139 37.0716 88.4316 37.0787 88.4502 37.0788H89.3211C89.3304 37.0788 89.3396 37.077 89.3481 37.0736C89.3567 37.0702 89.3644 37.0652 89.371 37.0588C89.3775 37.0525 89.3827 37.045 89.3862 37.0367C89.3897 37.0284 89.3915 37.0196 89.3915 37.0106V35.7811C89.3913 35.6518 89.338 35.5279 89.2432 35.4365C89.1484 35.3452 89.0199 35.2938 88.886 35.2937ZM88.886 35.71C88.8617 35.71 88.8379 35.703 88.8177 35.69C88.7975 35.677 88.7818 35.6585 88.7725 35.6368C88.7632 35.6152 88.7608 35.5914 88.7655 35.5684C88.7703 35.5454 88.782 35.5243 88.7991 35.5077C88.8163 35.4912 88.8382 35.4799 88.862 35.4753C88.8858 35.4707 88.9105 35.4731 88.933 35.482C88.9554 35.491 88.9746 35.5062 88.9881 35.5257C89.0016 35.5452 89.0088 35.5681 89.0088 35.5915C89.0089 35.6071 89.0058 35.6226 88.9997 35.6371C88.9936 35.6516 88.9846 35.6648 88.9732 35.6759C88.9617 35.687 88.9482 35.6958 88.9332 35.7018C88.9182 35.7078 88.9022 35.7109 88.886 35.7109V35.71Z" fill="white"/>
<path opacity="0.16" d="M88.8859 35.6261C88.8285 35.6261 88.7996 35.5544 88.79 35.53C88.7867 35.5215 88.7869 35.5121 88.7908 35.5038C88.7947 35.4955 88.8018 35.4891 88.8106 35.4858C88.8194 35.4826 88.8292 35.4829 88.8377 35.4866C88.8463 35.4903 88.853 35.4972 88.8564 35.5057C88.875 35.5515 88.8896 35.5582 88.8896 35.5582C88.9228 35.5431 88.9938 35.3104 88.9938 34.9015C88.9938 34.4926 88.9244 34.2611 88.8859 34.2441C88.8507 34.2595 88.7817 34.4919 88.7817 34.9011C88.7817 35.0212 88.7953 35.2009 88.8079 35.3091C88.8084 35.3135 88.8081 35.3179 88.8068 35.3221C88.8056 35.3263 88.8035 35.3303 88.8006 35.3338C88.7978 35.3372 88.7943 35.3401 88.7903 35.3422C88.7863 35.3444 88.7819 35.3457 88.7774 35.3462C88.7682 35.3472 88.759 35.3447 88.7518 35.3392C88.7446 35.3337 88.7399 35.3256 88.7389 35.3168C88.7256 35.2066 88.7117 35.0238 88.7117 34.9005C88.7117 34.8711 88.714 34.1765 88.8876 34.1765C89.0612 34.1765 89.0635 34.8711 89.0635 34.9008C89.0635 34.9306 89.0598 35.6261 88.8859 35.6261Z" fill="white"/>
</g>
<g opacity="0.16">
<path opacity="0.16" d="M14.7432 6.44301H13.8544C13.8049 6.44301 13.793 6.45486 13.793 6.50225V8.14326C13.7931 8.16604 13.8025 8.18787 13.8192 8.20395C13.836 8.22004 13.8586 8.22907 13.8822 8.22907H14.7153C14.7389 8.22907 14.7616 8.22004 14.7783 8.20395C14.7951 8.18787 14.8045 8.16604 14.8046 8.14326V6.50225C14.8046 6.45486 14.7926 6.44301 14.7432 6.44301ZM14.2988 6.85926C14.2742 6.85926 14.2501 6.85222 14.2296 6.83903C14.2092 6.82584 14.1932 6.80708 14.1838 6.78514C14.1744 6.7632 14.1719 6.73906 14.1767 6.71577C14.1815 6.69247 14.1934 6.67108 14.2108 6.65429C14.2282 6.63749 14.2504 6.62606 14.2745 6.62142C14.2986 6.61679 14.3237 6.61917 14.3464 6.62826C14.3691 6.63735 14.3886 6.65274 14.4023 6.67248C14.4159 6.69223 14.4232 6.71544 14.4232 6.73919C14.4234 6.75507 14.4203 6.77082 14.4141 6.78554C14.408 6.80025 14.3988 6.81364 14.3873 6.82493C14.3757 6.83621 14.3619 6.84517 14.3467 6.85129C14.3315 6.8574 14.3152 6.86055 14.2988 6.86055V6.85926Z" fill="white"/>
<path opacity="0.16" d="M14.2986 6.77537C14.2412 6.77537 14.2123 6.70364 14.2027 6.67931C14.1993 6.67082 14.1996 6.66138 14.2034 6.65306C14.2072 6.64474 14.2143 6.63823 14.2231 6.63496C14.2319 6.63169 14.2417 6.63193 14.2503 6.63562C14.259 6.63932 14.2657 6.64616 14.2691 6.65466C14.2877 6.70076 14.3023 6.70749 14.3023 6.70749C14.3355 6.69212 14.4042 6.46062 14.4042 6.05172C14.4042 5.64283 14.3348 5.41133 14.2963 5.39468C14.2611 5.40973 14.1921 5.64251 14.1921 6.05172C14.1921 6.17308 14.2057 6.35239 14.2183 6.45933C14.2191 6.46374 14.2189 6.46825 14.2177 6.47257C14.2165 6.47689 14.2144 6.48093 14.2116 6.48443C14.2087 6.48792 14.2051 6.4908 14.201 6.49288C14.1969 6.49495 14.1924 6.49618 14.1878 6.49648C14.1832 6.4972 14.1785 6.497 14.1741 6.49588C14.1696 6.49476 14.1654 6.49274 14.1618 6.48997C14.1582 6.4872 14.1552 6.48372 14.153 6.47977C14.1509 6.47582 14.1496 6.47147 14.1493 6.46702C14.136 6.35815 14.1221 6.17564 14.1221 6.05076C14.1221 6.02098 14.1244 5.32648 14.298 5.32648C14.4716 5.32648 14.4739 6.0213 14.4739 6.05076C14.4739 6.08022 14.4726 6.77537 14.2986 6.77537Z" fill="white"/>
<path opacity="0.16" d="M15.6908 6.44301H15.3648C15.3648 6.44301 15.022 6.86279 15.022 6.91018V8.14326C15.0221 8.16604 15.0315 8.18787 15.0482 8.20395C15.065 8.22004 15.0876 8.22907 15.1113 8.22907H15.9447C15.9683 8.22898 15.9908 8.21992 16.0075 8.20384C16.0242 8.18777 16.0336 8.16599 16.0337 8.14326V6.91018C16.0337 6.86279 15.6908 6.44301 15.6908 6.44301ZM15.5278 6.85926C15.5032 6.85926 15.4791 6.85222 15.4587 6.83903C15.4382 6.82584 15.4222 6.80708 15.4128 6.78514C15.4034 6.7632 15.4009 6.73906 15.4057 6.71577C15.4105 6.69247 15.4224 6.67108 15.4398 6.65429C15.4572 6.63749 15.4794 6.62606 15.5035 6.62142C15.5277 6.61679 15.5527 6.61917 15.5754 6.62826C15.5982 6.63735 15.6176 6.65274 15.6313 6.67248C15.645 6.69223 15.6523 6.71544 15.6523 6.73919C15.6525 6.75507 15.6494 6.77082 15.6432 6.78554C15.637 6.80025 15.6279 6.81364 15.6163 6.82493C15.6047 6.83621 15.5909 6.84517 15.5758 6.85129C15.5606 6.8574 15.5443 6.86055 15.5278 6.86055V6.85926Z" fill="white"/>
<path opacity="0.16" d="M15.5276 6.77537C15.4702 6.77537 15.4413 6.70364 15.4317 6.67931C15.4283 6.67082 15.4285 6.66137 15.4324 6.65306C15.4362 6.64474 15.4433 6.63823 15.4521 6.63496C15.4609 6.63169 15.4707 6.63193 15.4793 6.63562C15.4879 6.63932 15.4947 6.64616 15.4981 6.65465C15.5167 6.70076 15.5313 6.70749 15.5313 6.70749C15.5665 6.69212 15.6358 6.45965 15.6358 6.05044C15.6358 5.64123 15.5665 5.41005 15.5279 5.3934C15.4928 5.40845 15.4237 5.64123 15.4237 6.05044C15.4237 6.17116 15.4373 6.35047 15.4499 6.45805C15.451 6.46688 15.4484 6.47576 15.4426 6.48272C15.4369 6.48969 15.4286 6.49418 15.4194 6.49519C15.4102 6.49621 15.401 6.49368 15.3938 6.48816C15.3866 6.48263 15.3819 6.47457 15.3809 6.46574C15.3676 6.35623 15.354 6.17372 15.354 6.04948C15.354 6.0197 15.356 5.3252 15.5296 5.3252C15.7032 5.3252 15.7055 6.02002 15.7055 6.04948C15.7055 6.07894 15.7016 6.77537 15.5276 6.77537Z" fill="white"/>
<path opacity="0.16" d="M16.7568 6.44301C16.6227 6.44309 16.4941 6.49453 16.3992 6.58603C16.3044 6.67753 16.2511 6.8016 16.251 6.93099V8.16087C16.2509 8.16981 16.2527 8.17867 16.2562 8.18694C16.2598 8.19522 16.2649 8.20274 16.2715 8.20907C16.278 8.21541 16.2858 8.22044 16.2943 8.22387C16.3029 8.2273 16.3121 8.22907 16.3213 8.22907H17.1922C17.2015 8.22907 17.2106 8.2273 17.2192 8.22387C17.2278 8.22044 17.2355 8.21541 17.2421 8.20907C17.2486 8.20274 17.2538 8.19522 17.2573 8.18694C17.2608 8.17867 17.2626 8.16981 17.2626 8.16087V6.93099C17.2626 6.86691 17.2495 6.80345 17.2241 6.74425C17.1986 6.68504 17.1614 6.63125 17.1144 6.58594C17.0675 6.54062 17.0117 6.50468 16.9503 6.48015C16.889 6.45563 16.8232 6.44301 16.7568 6.44301V6.44301ZM16.7568 6.85926C16.7325 6.85926 16.7087 6.85232 16.6885 6.8393C16.6684 6.82628 16.6526 6.80778 16.6433 6.78613C16.634 6.76448 16.6316 6.74066 16.6363 6.71768C16.6411 6.6947 16.6528 6.67359 16.6699 6.65702C16.6871 6.64045 16.709 6.62917 16.7328 6.6246C16.7566 6.62003 16.7813 6.62237 16.8038 6.63134C16.8262 6.6403 16.8454 6.65549 16.8589 6.67497C16.8724 6.69446 16.8796 6.71736 16.8796 6.74079C16.8797 6.75643 16.8766 6.77194 16.8705 6.78642C16.8644 6.80091 16.8554 6.81408 16.844 6.82519C16.8325 6.83629 16.819 6.8451 16.804 6.85112C16.789 6.85713 16.773 6.86023 16.7568 6.86023V6.85926Z" fill="white"/>
<path opacity="0.16" d="M16.7567 6.77537C16.6993 6.77537 16.6704 6.70364 16.6608 6.67931C16.6574 6.67082 16.6576 6.66137 16.6614 6.65306C16.6653 6.64474 16.6724 6.63823 16.6812 6.63496C16.69 6.63169 16.6998 6.63193 16.7084 6.63562C16.717 6.63932 16.7237 6.64616 16.7271 6.65465C16.7457 6.70076 16.7603 6.70749 16.7603 6.70749C16.7955 6.69212 16.8645 6.45965 16.8645 6.05044C16.8645 5.64123 16.7955 5.41005 16.7567 5.3934C16.7215 5.40845 16.6525 5.64123 16.6525 6.05044C16.6525 6.1702 16.6661 6.34983 16.679 6.45805C16.6798 6.46248 16.6795 6.46702 16.6784 6.47136C16.6772 6.4757 16.6751 6.47975 16.6722 6.48326C16.6692 6.48676 16.6656 6.48963 16.6615 6.49169C16.6573 6.49375 16.6528 6.49494 16.6481 6.49519C16.6436 6.49592 16.6389 6.49572 16.6344 6.49459C16.63 6.49347 16.6258 6.49146 16.6221 6.48869C16.6185 6.48591 16.6155 6.48244 16.6134 6.47849C16.6112 6.47453 16.61 6.47019 16.6096 6.46574C16.5967 6.35591 16.5828 6.17276 16.5828 6.04948C16.5828 6.0197 16.5848 5.3252 16.7583 5.3252C16.9319 5.3252 16.9342 6.02002 16.9342 6.04948C16.9342 6.07894 16.9306 6.77537 16.7567 6.77537Z" fill="white"/>
</g>
<g opacity="0.16">
<path opacity="0.16" d="M94.0969 27.3022H93.2051C93.1941 27.3022 93.1835 27.298 93.1757 27.2905C93.1679 27.283 93.1636 27.2728 93.1636 27.2622V26.9449C93.1636 26.9344 93.1678 26.9242 93.1755 26.9167C93.1793 26.913 93.1839 26.91 93.1889 26.908C93.1939 26.9059 93.1993 26.9049 93.2047 26.9049H94.0966C94.1076 26.9049 94.1182 26.9091 94.1259 26.9166C94.1337 26.9241 94.1381 26.9343 94.1381 26.9449V27.2625C94.1381 27.2678 94.1371 27.2729 94.1351 27.2778C94.133 27.2826 94.13 27.287 94.1261 27.2907C94.1223 27.2944 94.1178 27.2973 94.1127 27.2993C94.1077 27.3013 94.1024 27.3023 94.0969 27.3022V27.3022Z" fill="white"/>
<path opacity="0.16" d="M95.1757 27.3025H94.2838C94.2729 27.3025 94.2624 27.2983 94.2547 27.2909C94.247 27.2834 94.2427 27.2733 94.2427 27.2628V26.9452C94.2426 26.94 94.2437 26.9348 94.2457 26.93C94.2478 26.9251 94.2508 26.9207 94.2546 26.9171C94.2585 26.9134 94.263 26.9104 94.268 26.9085C94.273 26.9065 94.2784 26.9055 94.2838 26.9055H95.1757C95.1866 26.9055 95.1971 26.9097 95.2048 26.9171C95.2125 26.9246 95.2169 26.9347 95.2169 26.9452V27.2628C95.2169 27.2733 95.2126 27.2835 95.2049 27.291C95.2011 27.2947 95.1966 27.2976 95.1915 27.2996C95.1865 27.3016 95.1811 27.3026 95.1757 27.3025Z" fill="white"/>
<path opacity="0.16" d="M94.0969 28.5769H93.2462C93.2353 28.5769 93.2249 28.5726 93.2172 28.5652C93.2095 28.5578 93.2052 28.5477 93.2051 28.5372V27.4627C93.2052 27.4521 93.2096 27.442 93.2173 27.4346C93.2251 27.4271 93.2356 27.4229 93.2466 27.4229H94.0969C94.1023 27.4229 94.1077 27.4239 94.1127 27.4259C94.1178 27.4279 94.1223 27.4308 94.1262 27.4345C94.1301 27.4382 94.1331 27.4425 94.1352 27.4474C94.1373 27.4522 94.1384 27.4574 94.1384 27.4627V28.5372C94.1384 28.5478 94.1341 28.5579 94.1264 28.5654C94.1185 28.5728 94.1079 28.577 94.0969 28.5769V28.5769Z" fill="white"/>
<path opacity="0.16" d="M95.1346 28.5773H94.2838C94.2784 28.5773 94.273 28.5763 94.268 28.5743C94.263 28.5723 94.2585 28.5694 94.2546 28.5657C94.2508 28.562 94.2478 28.5576 94.2457 28.5528C94.2437 28.548 94.2426 28.5428 94.2427 28.5376V27.4633C94.2426 27.458 94.2437 27.4529 94.2457 27.448C94.2478 27.4431 94.2508 27.4387 94.2546 27.435C94.2584 27.4313 94.263 27.4283 94.268 27.4263C94.273 27.4243 94.2784 27.4233 94.2838 27.4233H95.1342C95.1452 27.4233 95.1558 27.4275 95.1636 27.435C95.1713 27.4425 95.1757 27.4527 95.1757 27.4633V28.5379C95.1756 28.5484 95.1713 28.5584 95.1636 28.5659C95.1559 28.5733 95.1454 28.5775 95.1346 28.5776V28.5773Z" fill="white"/>
<path opacity="0.16" d="M93.6498 26.7685C93.7013 26.8185 93.7568 26.8645 93.8157 26.9062H94.5433C94.6022 26.8646 94.6577 26.8187 94.7092 26.7688C94.9084 26.5767 95.0557 26.3311 94.9366 26.2158C94.9216 26.2019 94.9038 26.1911 94.8844 26.1839C94.8649 26.1768 94.8442 26.1735 94.8234 26.1742C94.7069 26.1742 94.5307 26.2744 94.3637 26.4355C94.2941 26.5017 94.2323 26.5751 94.1795 26.6545C94.1267 26.5751 94.0649 26.5017 93.9953 26.4355C93.8293 26.2754 93.6518 26.1742 93.5353 26.1742C93.5145 26.1734 93.4938 26.1767 93.4744 26.1839C93.455 26.191 93.4374 26.2019 93.4224 26.2158C93.3809 26.2558 93.3481 26.3346 93.4267 26.4845C93.4856 26.5896 93.5608 26.6853 93.6498 26.7685V26.7685ZM94.4862 26.5536C94.6216 26.4227 94.7454 26.3561 94.8052 26.3436C94.7922 26.3942 94.7295 26.5129 94.5868 26.6506C94.454 26.7787 94.3312 26.8456 94.2685 26.8597C94.2827 26.8005 94.3514 26.6817 94.4862 26.552V26.5536ZM93.8728 26.5536C94.0155 26.6913 94.0783 26.8098 94.0912 26.861C94.0318 26.8482 93.908 26.7816 93.7723 26.651C93.6963 26.5802 93.6319 26.4988 93.5811 26.4095C93.5698 26.3892 93.561 26.3677 93.5549 26.3455C93.6149 26.3554 93.7381 26.4217 93.8728 26.5517V26.5536Z" fill="white"/>
<path opacity="0.16" d="M94.3687 26.9052C94.3928 26.8699 94.4056 26.8286 94.4056 26.7864C94.4056 26.7285 94.3817 26.6729 94.3393 26.632C94.2968 26.591 94.2393 26.568 94.1792 26.568C94.1192 26.568 94.0616 26.591 94.0192 26.632C93.9767 26.6729 93.9529 26.7285 93.9529 26.7864C93.9529 26.8286 93.9657 26.8699 93.9897 26.9052H94.3687Z" fill="white"/>
</g>
<g opacity="0.16">
<path opacity="0.16" d="M4.02891 10.8073H3.1371C3.12621 10.8072 3.1158 10.803 3.1081 10.7956C3.1004 10.7881 3.09603 10.7781 3.09595 10.7676V10.45C3.09595 10.4394 3.10027 10.4293 3.10798 10.4218C3.11569 10.4143 3.12616 10.41 3.1371 10.4099H4.02891C4.03434 10.4099 4.03972 10.411 4.04473 10.413C4.04975 10.415 4.0543 10.418 4.05813 10.4217C4.06195 10.4254 4.06498 10.4298 4.06703 10.4347C4.06908 10.4395 4.07011 10.4447 4.07006 10.45V10.7676C4.07011 10.7728 4.06907 10.778 4.06702 10.7828C4.06497 10.7877 4.06194 10.7921 4.05811 10.7958C4.05428 10.7995 4.04972 10.8024 4.04471 10.8044C4.0397 10.8063 4.03433 10.8073 4.02891 10.8073V10.8073Z" fill="white"/>
<path opacity="0.16" d="M5.10801 10.8076H4.21523C4.20431 10.8076 4.19384 10.8035 4.18613 10.796C4.17841 10.7886 4.17407 10.7785 4.17407 10.7679V10.4503C4.17416 10.4398 4.17852 10.4297 4.18622 10.4223C4.19392 10.4149 4.20434 10.4107 4.21523 10.4106H5.10702C5.11796 10.4106 5.12847 10.4147 5.13624 10.4222C5.14401 10.4296 5.14842 10.4397 5.14851 10.4503V10.7679C5.14852 10.7785 5.14423 10.7886 5.13656 10.7961C5.12898 10.8034 5.11873 10.8076 5.10801 10.8076V10.8076Z" fill="white"/>
<path opacity="0.16" d="M4.02878 12.0823H3.17845C3.17302 12.0824 3.16763 12.0814 3.1626 12.0794C3.15757 12.0774 3.15299 12.0745 3.14914 12.0708C3.14528 12.0671 3.14222 12.0627 3.14013 12.0579C3.13804 12.053 3.13696 12.0479 3.13696 12.0426V10.9677C3.13692 10.9625 3.13795 10.9573 3.14001 10.9525C3.14206 10.9476 3.14509 10.9432 3.14892 10.9395C3.15275 10.9358 3.1573 10.9329 3.16232 10.9309C3.16733 10.929 3.1727 10.928 3.17812 10.928H4.02878C4.03419 10.928 4.03957 10.929 4.04458 10.9309C4.04959 10.9329 4.05415 10.9358 4.05798 10.9395C4.06181 10.9432 4.06484 10.9476 4.06689 10.9525C4.06894 10.9573 4.06998 10.9625 4.06993 10.9677V12.0423C4.06995 12.0528 4.06566 12.063 4.05798 12.0705C4.05419 12.0742 4.04965 12.0772 4.04463 12.0793C4.03961 12.0813 4.03422 12.0823 4.02878 12.0823V12.0823Z" fill="white"/>
<path opacity="0.16" d="M5.06652 12.0823H4.21523C4.20428 12.0822 4.19381 12.078 4.18611 12.0705C4.1784 12.063 4.17407 12.0529 4.17407 12.0423V10.968C4.17407 10.9574 4.1784 10.9473 4.18611 10.9398C4.19381 10.9323 4.20428 10.9281 4.21523 10.928H5.06586C5.07681 10.9281 5.08727 10.9323 5.09498 10.9398C5.10269 10.9473 5.10701 10.9574 5.10701 10.968V12.0426C5.10684 12.0532 5.10244 12.0633 5.09473 12.0708C5.0872 12.078 5.07711 12.0821 5.06652 12.0823V12.0823Z" fill="white"/>
<path opacity="0.16" d="M3.58181 10.2723C3.63341 10.3221 3.68889 10.368 3.74776 10.4096H4.47561C4.53448 10.368 4.58996 10.3221 4.64155 10.2723C4.84069 10.0801 4.98839 9.83455 4.8689 9.71959C4.85402 9.70558 4.83635 9.69464 4.81695 9.68743C4.79755 9.68022 4.77683 9.67689 4.75606 9.67764C4.63923 9.67764 4.46299 9.77787 4.29605 9.93893C4.22646 10.0051 4.16478 10.0785 4.11218 10.158C4.05924 10.0786 3.99735 10.0051 3.92764 9.93893C3.7617 9.77883 3.58446 9.67764 3.46797 9.67764C3.44714 9.67683 3.42635 9.68013 3.40689 9.68734C3.38743 9.69455 3.3697 9.70553 3.35479 9.71959C3.31364 9.7593 3.28078 9.83807 3.35911 9.98793C3.41809 10.093 3.49317 10.1888 3.58181 10.2723V10.2723ZM4.41819 10.0571C4.55393 9.92613 4.67773 9.85984 4.73714 9.84703C4.7242 9.89763 4.66147 10.0164 4.51875 10.1541C4.38599 10.2822 4.26352 10.3491 4.2008 10.3635C4.21507 10.3053 4.28377 10.1868 4.41819 10.0571V10.0571ZM3.80484 10.0571C3.94756 10.1951 4.01062 10.3133 4.02356 10.3645C3.96382 10.3517 3.84002 10.2854 3.70428 10.1544C3.62834 10.0838 3.56399 10.0024 3.51344 9.913C3.50208 9.89274 3.49327 9.87124 3.48722 9.84896C3.54696 9.86208 3.67009 9.92613 3.80484 10.0568V10.0571Z" fill="white"/>
<path opacity="0.16" d="M4.30105 10.4102C4.32329 10.3773 4.3359 10.3392 4.33754 10.2999C4.33918 10.2606 4.32979 10.2216 4.31036 10.187C4.29093 10.1524 4.26219 10.1236 4.22716 10.1034C4.19214 10.0833 4.15213 10.0727 4.11137 10.0727C4.0706 10.0727 4.0306 10.0833 3.99557 10.1034C3.96054 10.1236 3.9318 10.1524 3.91237 10.187C3.89294 10.2216 3.88355 10.2606 3.88519 10.2999C3.88683 10.3392 3.89944 10.3773 3.92168 10.4102H4.30105Z" fill="white"/>
</g>
<g opacity="0.16">
<path opacity="0.16" d="M25.0858 2.65764H24.1951C24.1896 2.65768 24.1842 2.65668 24.1792 2.65471C24.1742 2.65273 24.1696 2.64981 24.1657 2.64612C24.1619 2.64243 24.1588 2.63804 24.1567 2.6332C24.1546 2.62836 24.1536 2.62317 24.1536 2.61793V2.3003C24.1535 2.29507 24.1546 2.28989 24.1566 2.28505C24.1587 2.28021 24.1617 2.27582 24.1655 2.27212C24.1694 2.26843 24.1739 2.26551 24.1789 2.26353C24.1839 2.26155 24.1893 2.26055 24.1947 2.26059H25.0865C25.0974 2.26059 25.1079 2.26476 25.1157 2.2722C25.1235 2.27964 25.1279 2.28974 25.128 2.3003V2.61825C25.1279 2.62875 25.1235 2.63881 25.1158 2.64623C25.1081 2.65366 25.0977 2.65787 25.0868 2.65796L25.0858 2.65764Z" fill="white"/>
<path opacity="0.16" d="M26.1644 2.65763H25.2726C25.2617 2.65763 25.2512 2.65345 25.2435 2.646C25.2358 2.63856 25.2314 2.62846 25.2314 2.61793V2.30029C25.2314 2.29505 25.2324 2.28986 25.2345 2.285C25.2365 2.28015 25.2396 2.27573 25.2434 2.27201C25.2472 2.26829 25.2518 2.26534 25.2568 2.26332C25.2618 2.26131 25.2672 2.26027 25.2726 2.26027H26.1644C26.1754 2.26035 26.1859 2.26461 26.1936 2.2721C26.2013 2.2796 26.2056 2.28973 26.2056 2.30029V2.61793C26.2056 2.62316 26.2046 2.62834 26.2026 2.63317C26.2005 2.63801 26.1975 2.6424 26.1936 2.6461C26.1898 2.64979 26.1853 2.65272 26.1802 2.6547C26.1752 2.65668 26.1699 2.65768 26.1644 2.65763V2.65763Z" fill="white"/>
<path opacity="0.16" d="M25.0859 3.93298H24.2352C24.2243 3.9329 24.2138 3.92864 24.2061 3.92115C24.1984 3.91365 24.1941 3.90352 24.1941 3.89296V2.81773C24.1942 2.80715 24.1986 2.79703 24.2064 2.78956C24.2102 2.78579 24.2147 2.7828 24.2197 2.78076C24.2247 2.77873 24.2301 2.77769 24.2356 2.77771H25.0859C25.0969 2.77771 25.1074 2.78193 25.1152 2.78943C25.123 2.79694 25.1273 2.80712 25.1273 2.81773V3.89232C25.1274 3.89754 25.1264 3.90272 25.1243 3.90756C25.1222 3.9124 25.1192 3.91679 25.1154 3.92049C25.1116 3.92418 25.107 3.9271 25.102 3.92908C25.097 3.93106 25.0916 3.93206 25.0862 3.93202L25.0859 3.93298Z" fill="white"/>
<path opacity="0.16" d="M26.1232 3.9333H25.2726C25.2617 3.9333 25.2512 3.92912 25.2435 3.92167C25.2358 3.91423 25.2314 3.90413 25.2314 3.8936V2.81774C25.2314 2.81251 25.2324 2.80733 25.2345 2.80249C25.2365 2.79765 25.2396 2.79326 25.2434 2.78957C25.2472 2.78587 25.2518 2.78295 25.2568 2.78097C25.2618 2.77899 25.2672 2.77799 25.2726 2.77803H26.1229C26.1283 2.77799 26.1337 2.77898 26.1387 2.78096C26.1438 2.78294 26.1483 2.78586 26.1522 2.78955C26.1561 2.79324 26.1591 2.79763 26.1612 2.80247C26.1633 2.80731 26.1644 2.81249 26.1644 2.81774V3.89232C26.1644 3.90286 26.1601 3.91299 26.1524 3.92049C26.1487 3.92442 26.1442 3.92758 26.1392 3.92978C26.1342 3.93198 26.1287 3.93318 26.1232 3.9333V3.9333Z" fill="white"/>
<path opacity="0.16" d="M24.6388 2.12291C24.6903 2.17279 24.7458 2.21872 24.8047 2.26027H25.5322C25.5913 2.21882 25.6467 2.17288 25.6982 2.12291C25.8973 1.93079 26.0447 1.68552 25.9255 1.57025C25.9105 1.55635 25.8928 1.54551 25.8733 1.53836C25.8539 1.53121 25.8332 1.5279 25.8124 1.52863C25.6959 1.52863 25.5196 1.62853 25.3527 1.7899C25.2831 1.85613 25.2213 1.92958 25.1685 2.00892C25.1156 1.92953 25.0538 1.85597 24.9843 1.78959C24.8183 1.62949 24.6408 1.52863 24.5243 1.52863C24.5035 1.52787 24.4828 1.53116 24.4634 1.53832C24.4441 1.54547 24.4264 1.55633 24.4114 1.57025C24.3699 1.60996 24.3371 1.68904 24.4157 1.83889C24.4746 1.944 24.5498 2.03978 24.6388 2.12291V2.12291ZM25.4752 1.90806C25.6106 1.7771 25.7344 1.7105 25.7941 1.69769C25.7812 1.7486 25.7184 1.86739 25.5757 2.00508C25.443 2.13315 25.3202 2.20008 25.2574 2.21416C25.2717 2.15621 25.3404 2.03774 25.4752 1.90806V1.90806ZM24.8618 1.90806C25.0045 2.04574 25.0673 2.16421 25.0802 2.21512C25.0208 2.20264 24.897 2.13604 24.7612 2.00508C24.6853 1.93443 24.6209 1.85315 24.5701 1.76397C24.5587 1.74316 24.5499 1.72113 24.5439 1.69833C24.6039 1.71114 24.7261 1.77774 24.8618 1.90774V1.90806Z" fill="white"/>
<path opacity="0.16" d="M25.3567 2.26092C25.3808 2.22567 25.3936 2.18435 25.3935 2.14213C25.3935 2.08421 25.3697 2.02867 25.3273 1.98771C25.2848 1.94676 25.2272 1.92375 25.1672 1.92375C25.1072 1.92375 25.0496 1.94676 25.0072 1.98771C24.9648 2.02867 24.9409 2.08421 24.9409 2.14213C24.9408 2.18435 24.9537 2.22567 24.9778 2.26092H25.3567Z" fill="white"/>
</g>
<g opacity="0.16">
<path opacity="0.16" d="M82.2084 36.1301H81.3166C81.3057 36.1301 81.2952 36.1259 81.2874 36.1185C81.2796 36.111 81.2752 36.1009 81.2751 36.0904V35.7727C81.2751 35.7622 81.2794 35.7521 81.2871 35.7445C81.2909 35.7408 81.2954 35.7378 81.3005 35.7358C81.3055 35.7337 81.3109 35.7327 81.3163 35.7327H82.2081C82.2191 35.7327 82.2297 35.7369 82.2374 35.7444C82.2452 35.7519 82.2496 35.7621 82.2496 35.7727V36.0904C82.2496 36.1009 82.2453 36.111 82.2376 36.1185C82.2298 36.1259 82.2193 36.13 82.2084 36.1301V36.1301Z" fill="white"/>
<path opacity="0.16" d="M83.2871 36.1304H82.3952C82.3898 36.1304 82.3844 36.1294 82.3794 36.1275C82.3744 36.1255 82.3698 36.1226 82.3659 36.1189C82.3621 36.1152 82.359 36.1108 82.3569 36.1059C82.3548 36.1011 82.3538 36.0959 82.3538 36.0907V35.773C82.3538 35.7678 82.3548 35.7626 82.3569 35.7578C82.359 35.7529 82.3621 35.7485 82.3659 35.7449C82.3698 35.7412 82.3744 35.7382 82.3794 35.7363C82.3844 35.7343 82.3898 35.7333 82.3952 35.7333H83.2871C83.298 35.7333 83.3084 35.7375 83.3162 35.745C83.3239 35.7524 83.3282 35.7625 83.3282 35.773V36.0907C83.3282 36.1012 83.3239 36.1113 83.3163 36.1189C83.3125 36.1226 83.3079 36.1255 83.3029 36.1275C83.2979 36.1295 83.2925 36.1304 83.2871 36.1304V36.1304Z" fill="white"/>
<path opacity="0.16" d="M82.2085 37.4051H81.3578C81.3469 37.4051 81.3364 37.4009 81.3287 37.3935C81.321 37.386 81.3167 37.3759 81.3167 37.3654V36.2908C81.3168 36.2802 81.3212 36.2701 81.3289 36.2626C81.3367 36.2552 81.3472 36.2511 81.3581 36.2511H82.2085C82.2139 36.2511 82.2193 36.2521 82.2243 36.254C82.2293 36.256 82.2339 36.2589 82.2378 36.2626C82.2416 36.2663 82.2447 36.2707 82.2468 36.2755C82.2489 36.2804 82.2499 36.2856 82.2499 36.2908V37.3654C82.25 37.3759 82.2457 37.3861 82.238 37.3936C82.2341 37.3973 82.2295 37.4002 82.2244 37.4022C82.2194 37.4042 82.2139 37.4052 82.2085 37.4051Z" fill="white"/>
<path opacity="0.16" d="M83.246 37.4051H82.3953C82.3842 37.4051 82.3737 37.4009 82.3659 37.3934C82.3581 37.3859 82.3538 37.3757 82.3538 37.3651V36.2908C82.3538 36.2802 82.3581 36.27 82.3659 36.2625C82.3737 36.255 82.3842 36.2508 82.3953 36.2508H83.2456C83.2567 36.2508 83.2672 36.255 83.275 36.2625C83.2828 36.27 83.2871 36.2802 83.2871 36.2908V37.367C83.2872 37.3722 83.2862 37.3774 83.2841 37.3822C83.282 37.3871 83.279 37.3915 83.2752 37.3952C83.2714 37.3989 83.2668 37.4018 83.2618 37.4038C83.2568 37.4057 83.2514 37.4067 83.246 37.4067V37.4051Z" fill="white"/>
<path opacity="0.16" d="M81.7613 35.595C81.8129 35.6449 81.8683 35.6908 81.9273 35.7324H82.6548C82.7137 35.6907 82.7692 35.6448 82.8207 35.595C83.0199 35.4029 83.1673 35.1573 83.0481 35.042C83.0331 35.0281 83.0153 35.0173 82.9959 35.0101C82.9765 35.003 82.9557 34.9997 82.9349 35.0004C82.8184 35.0004 82.6422 35.1006 82.4752 35.2617C82.4057 35.3279 82.3439 35.4014 82.291 35.4807C82.2382 35.4014 82.1764 35.3279 82.1068 35.2617C81.9409 35.1016 81.7633 35.0004 81.6468 35.0004C81.6261 34.9997 81.6054 35.003 81.586 35.0101C81.5666 35.0173 81.5489 35.0281 81.534 35.042C81.4925 35.0821 81.4596 35.1608 81.5383 35.3107C81.5973 35.4158 81.6725 35.5117 81.7613 35.595V35.595ZM82.5977 35.3798C82.7331 35.2489 82.8569 35.1823 82.9167 35.1698C82.9037 35.2204 82.841 35.3392 82.6983 35.4769C82.5655 35.6049 82.4427 35.6719 82.38 35.686C82.3943 35.628 82.463 35.5098 82.5977 35.3798V35.3798ZM81.9844 35.3798C82.1271 35.5178 82.1898 35.636 82.2028 35.6872C82.1434 35.6744 82.0196 35.6081 81.8838 35.4772C81.8079 35.4064 81.7434 35.325 81.6926 35.2358C81.6814 35.2154 81.6726 35.1939 81.6664 35.1717C81.7265 35.1832 81.8496 35.2498 81.9844 35.3795V35.3798Z" fill="white"/>
<path opacity="0.16" d="M82.4803 35.734C82.5043 35.6987 82.5172 35.6574 82.5172 35.6152C82.5172 35.5865 82.5113 35.5581 82.4999 35.5316C82.4885 35.5051 82.4719 35.4811 82.4509 35.4608C82.4298 35.4405 82.4049 35.4244 82.3774 35.4134C82.35 35.4025 82.3205 35.3968 82.2908 35.3968C82.2611 35.3968 82.2316 35.4025 82.2042 35.4134C82.1767 35.4244 82.1518 35.4405 82.1307 35.4608C82.1097 35.4811 82.0931 35.5051 82.0817 35.5316C82.0703 35.5581 82.0645 35.5865 82.0645 35.6152C82.0644 35.6574 82.0772 35.6987 82.1013 35.734H82.4803Z" fill="white"/>
</g>
<path d="M10.1762 22.1365L10.1699 22.1304L10.1762 22.1365Z" fill="url(#paint2_linear)"/>
<defs>
<linearGradient id="paint0_linear" x1="0.0192292" y1="11.0839" x2="77.3633" y2="11.0839" gradientUnits="userSpaceOnUse">
<stop stop-color="#4F7DB9"/>
<stop offset="0.98" stop-color="#EF4CA3"/>
</linearGradient>
<linearGradient id="paint1_linear" x1="79974.4" y1="-44794.3" x2="-100456" y2="-44794.3" gradientUnits="userSpaceOnUse">
<stop stop-color="#4F7DB9"/>
<stop offset="0.98" stop-color="#EF4CA3"/>
</linearGradient>
<linearGradient id="paint2_linear" x1="10.1699" y1="22.1339" x2="10.1762" y2="22.1339" gradientUnits="userSpaceOnUse">
<stop stop-color="#C50001"/>
<stop offset="0.98" stop-color="#FFC502"/>
</linearGradient>
</defs>
</svg>
