<svg id="Layer_1" data-name="Layer 1" xmlns="http://www.w3.org/2000/svg" xmlns:xlink="http://www.w3.org/1999/xlink" viewBox="0 0 3225.6 1951.2"><defs><style>.cls-1{fill:#4e7db6;}.cls-2{stroke:#000;stroke-miterlimit:10;}.cls-3{fill:url(#linear-gradient);}.cls-4{fill:url(#linear-gradient-2);}.cls-5{opacity:0.16;}.cls-6{fill:#fff;}.cls-7{fill:url(#linear-gradient-3);}</style><linearGradient id="linear-gradient" x1="40.58" y1="765.16" x2="2370.95" y2="765.16" gradientUnits="userSpaceOnUse"><stop offset="0" stop-color="#4f7db9"/><stop offset="0.98" stop-color="#ef4ca3"/></linearGradient><linearGradient id="linear-gradient-2" x1="-1032.93" y1="2721.65" x2="1298.68" y2="2721.65" gradientTransform="translate(2019.41 4101) rotate(180)" xlink:href="#linear-gradient"/><linearGradient id="linear-gradient-3" x1="346.42" y1="1110.26" x2="346.61" y2="1110.26" gradientUnits="userSpaceOnUse"><stop offset="0" stop-color="#c50001"/><stop offset="0.98" stop-color="#ffc502"/></linearGradient></defs><path class="cls-1" d="M511.61,1053.26q0,20.25-7.67,34a62.35,62.35,0,0,1-20.84,22.27,90.24,90.24,0,0,1-30.62,12.23,177.26,177.26,0,0,1-36.86,3.71,204.94,204.94,0,0,1-37.88-3.37,130.74,130.74,0,0,1-19-5,4,4,0,0,0-.53-.19c-1.06-.37-2.1-.76-3.12-1.16h0c-.74-.33-1.45-.67-2.12-1a32.79,32.79,0,0,1-6.36-4.4V1058q3.12,2.63,6.36,5a103.52,103.52,0,0,0,60.28,19.67,77,77,0,0,0,18-1.86,41.94,41.94,0,0,0,12.82-5.14,22.54,22.54,0,0,0,7.68-7.76,19.35,19.35,0,0,0,2.53-9.7,21,21,0,0,0-4.05-12.66,43.58,43.58,0,0,0-11.05-10.29,116.16,116.16,0,0,0-16.62-9.11q-9.61-4.38-20.75-8.94-28.33-11.8-42.26-28.85T345.6,947.14q0-18.89,7.59-32.47a64.42,64.42,0,0,1,20.67-22.36,92.66,92.66,0,0,1,30.28-12.9,155.44,155.44,0,0,1,36.45-4.14,218.91,218.91,0,0,1,33.48,2.28,131.74,131.74,0,0,1,26.91,7V935a81.76,81.76,0,0,0-13.24-7.43A106.35,106.35,0,0,0,473,922.26a111.34,111.34,0,0,0-15.1-3.12,106.17,106.17,0,0,0-14.26-1,74.4,74.4,0,0,0-16.87,1.78,43.37,43.37,0,0,0-12.82,5,24.76,24.76,0,0,0-8.1,7.68,18.22,18.22,0,0,0-2.87,10,19.15,19.15,0,0,0,3.21,10.88,36.55,36.55,0,0,0,9.11,9.11A96.22,96.22,0,0,0,429.62,971q8.43,4.13,19.06,8.52a211.83,211.83,0,0,1,26.07,12.9,92.76,92.76,0,0,1,19.82,15.44,60.3,60.3,0,0,1,12.66,19.66Q511.61,1038.58,511.61,1053.26Z"/><path class="cls-2" d="M1911.92,1112v-54a103.57,103.57,0,0,0,31.88,18.47,102.44,102.44,0,0,0,34.76,6.16,77,77,0,0,0,18-1.86,42,42,0,0,0,12.82-5.14,22.54,22.54,0,0,0,7.68-7.76,19.45,19.45,0,0,0,2.53-9.7,21,21,0,0,0-4-12.66,43.75,43.75,0,0,0-11-10.29,116.16,116.16,0,0,0-16.62-9.11q-9.61-4.38-20.75-8.94-28.35-11.8-42.27-28.85t-13.91-41.17q0-18.89,7.59-32.47a64.42,64.42,0,0,1,20.67-22.36,92.66,92.66,0,0,1,30.28-12.9,155.35,155.35,0,0,1,36.44-4.14,219,219,0,0,1,33.49,2.28,131.74,131.74,0,0,1,26.91,7V935a82.19,82.19,0,0,0-13.24-7.43,106.94,106.94,0,0,0-14.77-5.31,111,111,0,0,0-15.1-3.12,106,106,0,0,0-14.25-1,74.34,74.34,0,0,0-16.87,1.78,43.43,43.43,0,0,0-12.83,5,24.82,24.82,0,0,0-8.09,7.68,18.14,18.14,0,0,0-2.87,10,19.22,19.22,0,0,0,3.2,10.88,36.89,36.89,0,0,0,9.11,9.11,97.26,97.26,0,0,0,14.34,8.44q8.44,4.13,19.07,8.52a211.67,211.67,0,0,1,26.06,12.9,92.58,92.58,0,0,1,19.83,15.44,60.17,60.17,0,0,1,12.65,19.65q4.38,11.06,4.39,25.73,0,20.25-7.68,34a62.33,62.33,0,0,1-20.83,22.27,90.29,90.29,0,0,1-30.63,12.23,177.26,177.26,0,0,1-36.86,3.71,204.83,204.83,0,0,1-37.87-3.37Q1925.08,1118.72,1911.92,1112Z"/><path class="cls-2" d="M760.8,1121.25H706.14v-98.52H605.92v98.52H551.43V879.32h54.49v96.5H706.14v-96.5H760.8Z"/><path class="cls-2" d="M918.38,1125.47q-52,0-84.7-33.82T801,1003.49q0-57.36,33.24-92.79t88.07-35.43q51.78,0,83.76,33.91t32,89.42q0,57-33.15,91.95T918.38,1125.47Zm2.36-203.3q-28.68,0-45.55,21.52t-16.87,56.93q0,35.94,16.87,56.86t44.2,20.92q28.17,0,44.71-20.33t16.53-56.43q0-37.62-16-58.55T920.74,922.17Z"/><path class="cls-2" d="M1132.64,1037.91v83.34h-54.49V879.32h85.36q91.44,0,91.45,77.1,0,36.45-26.24,59t-70.1,22.52Zm0-116.75v75.42h21.43q43.52,0,43.52-38.13,0-37.29-43.52-37.29Z"/><path class="cls-2" d="M1344.88,1037.91v83.34h-54.5V879.32h85.37q91.44,0,91.44,77.1,0,36.45-26.23,59t-70.1,22.52Zm0-116.75v75.42h21.43q43.51,0,43.52-38.13,0-37.29-43.52-37.29Z"/><path class="cls-2" d="M1647.72,1121.25h-145.1V879.32h139.53v44.37h-85v53.82h79.12v44.2h-79.12v55.34h90.6Z"/><path class="cls-2" d="M1889.48,1121.25h-62.59L1789.27,1059q-4.23-7.08-8.1-12.65a70.78,70.78,0,0,0-7.85-9.54,31.39,31.39,0,0,0-8.26-6.07,21,21,0,0,0-9.37-2.11H1741v92.62h-54.49V879.32h86.38q88.06,0,88.07,65.8a68.38,68.38,0,0,1-3.88,23.37,65,65,0,0,1-11,19.31,69.36,69.36,0,0,1-17.12,14.85,88.46,88.46,0,0,1-22.36,9.78v.68a34.74,34.74,0,0,1,10.46,5.48,74.89,74.89,0,0,1,9.79,8.86,121.41,121.41,0,0,1,9,10.88q4.3,5.82,7.85,11.39ZM1741,920.15v67.32h23.62q17.55,0,28.18-10.13a33.8,33.8,0,0,0,10.8-25.47q0-31.73-38-31.72Z"/><path class="cls-2" d="M2249.85,1121.25H2105.77V879.32h54.49v197.73h89.59Z"/><path class="cls-2" d="M2376,1125.47q-52,0-84.69-33.82t-32.73-88.16q0-57.36,33.24-92.79t88.06-35.43q51.79,0,83.77,33.91t32,89.42q0,57-33.15,91.95T2376,1125.47Zm2.37-203.3q-28.69,0-45.56,21.52T2316,1000.62q0,35.94,16.87,56.86t44.21,20.92q28.17,0,44.7-20.33t16.54-56.43q0-37.62-16-58.55T2378.41,922.17Z"/><path class="cls-2" d="M2638.05,1125.47q-52,0-84.69-33.82t-32.73-88.16q0-57.36,33.24-92.79t88.06-35.43q51.8,0,83.77,33.91t32,89.42q0,57-33.15,91.95T2638.05,1125.47Zm2.36-203.3q-28.68,0-45.55,21.52T2578,1000.62q0,35.94,16.87,56.86t44.2,20.92q28.18,0,44.71-20.33t16.54-56.43q0-37.62-16-58.55T2640.41,922.17Z"/><path class="cls-1" d="M2852.32,1037.91v83.34h-54.5V879.32h85.37q91.44,0,91.44,77.1,0,36.45-26.23,59t-70.1,22.52Zm0-116.75v75.42h21.42q43.53,0,43.53-38.13,0-37.29-43.53-37.29Z"/><path class="cls-3" d="M2371,696.67s-740.8-51.37-1557.32,0S353,1062.57,353,1062.57v.38q-3.24-2.34-6.36-5v52.37l-.19-.19-.42-.4c-.15-.16-.3-.3-.45-.44l-.22-.22h0c-888.8-869.27,449.38-669.28,449.38-669.28l1322.1,148.7v-100Z"/><path class="cls-4" d="M2851.83,1121.88c214.76,150.82,202.82,250.38,199,271.08-33.24,181.21-526.33,232-581,237.23-90.81,8.68-158.9,6.52-170.65,6.1-398.8-14.11-1073.2-91.69-1324.35-121.44v100L720.74,1406.7s740.8,51.37,1557.32,0c0,0,463.78-41,535-194.21a89.14,89.14,0,0,0,8-41.23c-2.15-23.57-15.63-40.72-23.7-49.38Z"/><g class="cls-5"><path class="cls-6" d="M2774.67,1461a11.3,11.3,0,1,1,11.3-11.3A11.31,11.31,0,0,1,2774.67,1461Z"/><path class="cls-6" d="M2825.41,1461a11.3,11.3,0,1,1,11.3-11.3A11.32,11.32,0,0,1,2825.41,1461Z"/><path class="cls-6" d="M2825.41,1451.42h-48.22a4.27,4.27,0,0,1-4.06-5.56l6.48-15.91a1.74,1.74,0,1,1,3.22,1.31l-6.43,15.79a.84.84,0,0,0,.16.57.81.81,0,0,0,.63.31h48.22a1.75,1.75,0,0,1,0,3.49Z"/><path class="cls-6" d="M2840.28,1388.07a4.27,4.27,0,0,0-3.44-1.74l-72.62,0-3.41-7.82a1.75,1.75,0,0,0-1.6-1h-16.13a1.74,1.74,0,1,0,0,3.48h15l21.3,48.8a4.25,4.25,0,0,0,3.91,2.58H2825a4.26,4.26,0,0,0,4.06-3l11.84-37.5A4.29,4.29,0,0,0,2840.28,1388.07Zm-18.83,34.19h-35.63a1.74,1.74,0,0,1,0-3.48h35.63a1.74,1.74,0,1,1,0,3.48Zm3-11h-41.71a1.75,1.75,0,0,1,0-3.49h41.71a1.75,1.75,0,0,1,0,3.49Zm2.5-11h-46.7a1.75,1.75,0,1,1,0-3.49H2827a1.75,1.75,0,0,1,0,3.49Z"/><path class="cls-6" d="M2746.36,1379.35a2.75,2.75,0,1,1-2.75-2.75A2.75,2.75,0,0,1,2746.36,1379.35Z"/></g><g class="cls-5"><path class="cls-6" d="M135.24,636.81a11.31,11.31,0,1,1,11.3-11.31A11.32,11.32,0,0,1,135.24,636.81Z"/><path class="cls-6" d="M186,636.81a11.31,11.31,0,1,1,11.3-11.31A11.32,11.32,0,0,1,186,636.81Z"/><path class="cls-6" d="M186,627.25H137.76a4.27,4.27,0,0,1-4.06-5.56l6.48-15.91a1.74,1.74,0,1,1,3.22,1.31L137,622.88a.84.84,0,0,0,.16.57.78.78,0,0,0,.63.31H186a1.75,1.75,0,1,1,0,3.49Z"/><path class="cls-6" d="M200.85,563.9a4.27,4.27,0,0,0-3.44-1.74l-72.62,0-3.41-7.81a1.74,1.74,0,0,0-1.6-1H103.65a1.74,1.74,0,1,0,0,3.48h15l21.3,48.8a4.25,4.25,0,0,0,3.91,2.58h41.73a4.26,4.26,0,0,0,4.06-3l11.84-37.5A4.29,4.29,0,0,0,200.85,563.9ZM182,598.09H146.39a1.74,1.74,0,1,1,0-3.48H182a1.74,1.74,0,0,1,0,3.48Zm3-11H143.35a1.74,1.74,0,1,1,0-3.48h41.71a1.74,1.74,0,1,1,0,3.48Zm2.5-11h-46.7a1.75,1.75,0,1,1,0-3.49h46.7a1.75,1.75,0,0,1,0,3.49Z"/><path class="cls-6" d="M106.93,555.18a2.75,2.75,0,1,1-2.75-2.75A2.75,2.75,0,0,1,106.93,555.18Z"/></g><g class="cls-5"><path class="cls-6" d="M2387.53,1504.19a11.3,11.3,0,1,1,11.31-11.3A11.31,11.31,0,0,1,2387.53,1504.19Z"/><path class="cls-6" d="M2438.27,1504.19a11.3,11.3,0,1,1,11.3-11.3A11.31,11.31,0,0,1,2438.27,1504.19Z"/><path class="cls-6" d="M2438.27,1494.63h-48.22a4.3,4.3,0,0,1-3.44-1.74,4.25,4.25,0,0,1-.61-3.81l6.47-15.92a1.74,1.74,0,0,1,3.23,1.32l-6.43,15.79a.77.77,0,0,0,.16.56.75.75,0,0,0,.62.32h48.22a1.74,1.74,0,1,1,0,3.48Z"/><path class="cls-6" d="M2453.14,1431.28a4.29,4.29,0,0,0-3.43-1.73l-72.62,0-3.42-7.82a1.73,1.73,0,0,0-1.59-1h-16.14a1.74,1.74,0,0,0,0,3.48h15l21.3,48.8a4.24,4.24,0,0,0,3.9,2.57h41.73a4.23,4.23,0,0,0,4.06-3l11.84-37.51A4.26,4.26,0,0,0,2453.14,1431.28Zm-18.83,34.2h-35.62a1.74,1.74,0,1,1,0-3.48h35.62a1.74,1.74,0,1,1,0,3.48Zm3.05-11h-41.71a1.75,1.75,0,1,1,0-3.49h41.71a1.75,1.75,0,0,1,0,3.49Zm2.49-11h-46.7a1.74,1.74,0,0,1,0-3.48h46.7a1.74,1.74,0,1,1,0,3.48Z"/><path class="cls-6" d="M2359.22,1422.57a2.75,2.75,0,1,1-2.75-2.75A2.75,2.75,0,0,1,2359.22,1422.57Z"/></g><g class="cls-5"><path class="cls-6" d="M581.71,532.6A11.3,11.3,0,1,1,593,521.3,11.31,11.31,0,0,1,581.71,532.6Z"/><path class="cls-6" d="M632.45,532.6a11.3,11.3,0,1,1,11.3-11.3A11.32,11.32,0,0,1,632.45,532.6Z"/><path class="cls-6" d="M632.45,523H584.23a4.25,4.25,0,0,1-4.06-5.55l6.48-15.91a1.74,1.74,0,0,1,3.23,1.31l-6.43,15.79a.77.77,0,0,0,.15.57.81.81,0,0,0,.63.31h48.22a1.74,1.74,0,0,1,0,3.48Z"/><path class="cls-6" d="M647.32,459.7a4.27,4.27,0,0,0-3.43-1.74l-72.63,0-3.41-7.82a1.74,1.74,0,0,0-1.59-1H550.12a1.74,1.74,0,1,0,0,3.48h15l21.3,48.8a4.25,4.25,0,0,0,3.91,2.58h41.73a4.25,4.25,0,0,0,4.06-3L648,463.5A4.29,4.29,0,0,0,647.32,459.7Zm-18.83,34.19H592.86a1.74,1.74,0,0,1,0-3.48h35.63a1.74,1.74,0,1,1,0,3.48Zm3-11H589.82a1.75,1.75,0,0,1,0-3.49h41.71a1.75,1.75,0,1,1,0,3.49Zm2.5-11h-46.7a1.74,1.74,0,0,1,0-3.48H634a1.74,1.74,0,0,1,0,3.48Z"/><path class="cls-6" d="M553.4,451a2.75,2.75,0,1,1-2.75-2.75A2.75,2.75,0,0,1,553.4,451Z"/></g><g class="cls-5"><path class="cls-6" d="M2659.34,1375.65h-87.17a8.76,8.76,0,0,0-8.72,8.73v5.45h104.62v-5.44A8.74,8.74,0,0,0,2659.34,1375.65Z"/><rect class="cls-6" x="2581.27" y="1423.32" width="6.66" height="2.55"/><path class="cls-6" d="M2563.45,1434.65a8.72,8.72,0,0,0,8.71,8.73h87.19a8.74,8.74,0,0,0,8.72-8.72v-34.2H2563.45Zm53.59-25.89h37.45a2,2,0,0,1,0,4H2617a2,2,0,0,1,0-4Zm0,8.56h15a2,2,0,0,1,0,4h-15a2,2,0,0,1,0-4Zm0,8.55h37.45a2,2,0,1,1,0,4H2617a2,2,0,1,1,0-4Zm-39.81-4.57v-15.82a2,2,0,0,1,2-2H2590a2,2,0,0,1,2,2v4.57h4a2,2,0,0,1,2,2v9.23a2,2,0,0,1-2,2h-4v4.57a2,2,0,0,1-2,2h-10.7a2,2,0,0,1-2-2Z"/><polygon class="cls-6" points="2593.97 1414.1 2589.95 1414.1 2581.27 1414.1 2581.27 1419.28 2589.95 1419.28 2593.97 1419.28 2593.97 1414.1"/><rect class="cls-6" x="2581.27" y="1407.5" width="6.66" height="2.55"/><rect class="cls-6" x="2563.45" y="1386.91" width="2.65" height="13.55"/><rect class="cls-6" x="2665.42" y="1386.91" width="2.65" height="13.55"/></g><g class="cls-5"><path class="cls-6" d="M2232.13,1437.2H2145a8.74,8.74,0,0,0-8.72,8.72v5.45h104.61v-5.44A8.73,8.73,0,0,0,2232.13,1437.2Z"/><rect class="cls-6" x="2154.06" y="1484.86" width="6.66" height="2.55"/><path class="cls-6" d="M2136.24,1496.19a8.72,8.72,0,0,0,8.71,8.73h87.19a8.73,8.73,0,0,0,8.71-8.72V1462H2136.24Zm53.59-25.89h37.45a2,2,0,0,1,0,4h-37.45a2,2,0,0,1,0-4Zm0,8.56h15a2,2,0,0,1,0,4h-15a2,2,0,0,1,0-4Zm0,8.55h37.45a2,2,0,0,1,0,4h-37.45a2,2,0,0,1,0-4Zm-39.82-4.57V1467a2,2,0,0,1,2-2h10.7a2,2,0,0,1,2,2v4.57h4a2,2,0,0,1,2,2v9.23a2,2,0,0,1-2,2h-4v4.57a2,2,0,0,1-2,2H2152a2,2,0,0,1-2-2Z"/><polygon class="cls-6" points="2166.76 1475.63 2162.74 1475.63 2154.06 1475.63 2154.06 1480.82 2162.74 1480.82 2166.76 1480.82 2166.76 1475.63"/><rect class="cls-6" x="2154.06" y="1469.04" width="6.66" height="2.55"/><rect class="cls-6" x="2136.24" y="1448.45" width="2.65" height="13.55"/><rect class="cls-6" x="2238.21" y="1448.45" width="2.65" height="13.55"/></g><g class="cls-5"><path class="cls-6" d="M376.68,676H289.52a8.76,8.76,0,0,0-8.73,8.73v5.45H385.41V684.7A8.74,8.74,0,0,0,376.68,676Z"/><rect class="cls-6" x="298.61" y="723.64" width="6.66" height="2.55"/><path class="cls-6" d="M280.79,735a8.72,8.72,0,0,0,8.72,8.73h87.18a8.73,8.73,0,0,0,8.72-8.72v-34.2H280.79Zm53.59-25.89h37.45a2,2,0,0,1,0,4H334.38a2,2,0,0,1,0-4Zm0,8.56h15a2,2,0,0,1,0,4h-15a2,2,0,0,1,0-4Zm0,8.55h37.45a2,2,0,1,1,0,4H334.38a2,2,0,0,1,0-4Zm-39.81-4.57V705.8a2,2,0,0,1,2-2h10.7a2,2,0,0,1,2,2v4.57h4a2,2,0,0,1,2,2v9.23a2,2,0,0,1-2,2h-4v4.57a2,2,0,0,1-2,2h-10.7a2,2,0,0,1-2-2Z"/><polygon class="cls-6" points="311.32 714.41 307.29 714.41 298.61 714.41 298.61 719.6 307.29 719.6 311.32 719.6 311.32 714.41"/><rect class="cls-6" x="298.61" y="707.82" width="6.66" height="2.55"/><rect class="cls-6" x="280.79" y="687.23" width="2.65" height="13.55"/><rect class="cls-6" x="382.76" y="687.23" width="2.65" height="13.55"/></g><g class="cls-5"><path class="cls-6" d="M2913.12,1375.69v48.65H3006v-48.65Zm88.37,34.32a10.06,10.06,0,0,0-10.06,10.06h-63.72a10.06,10.06,0,0,0-10.06-10.06v-20a10.06,10.06,0,0,0,10.06-10.06h63.72a10.06,10.06,0,0,0,10.06,10.06Z"/><path class="cls-6" d="M2952.82,1393a2.63,2.63,0,0,0,0,.49c0,2.18,2.13,4,5,4.57v-9.15C2955.13,1389.42,2953.1,1391,2952.82,1393Z"/><path class="cls-6" d="M2961.35,1411.12c2.89-.55,5-2.39,5-4.58h0c0-2.19-2.14-4-5-4.57Z"/><path class="cls-6" d="M2959.57,1380c-9.42,0-17.08,9-17.08,20s7.66,20.06,17.08,20.06,17.08-9,17.08-20.06S2969,1380,2959.57,1380Zm10.34,26.57c0,4.09-3.71,7.49-8.56,8.17v.45a1.78,1.78,0,1,1-3.55,0v-.45c-4.86-.68-8.57-4.08-8.57-8.17a1.78,1.78,0,0,1,3.55,0c0,2.19,2.13,4,5,4.58v-9.45c-4.86-.68-8.57-4.09-8.57-8.17a6.59,6.59,0,0,1,.21-1.67c.86-3.32,4.18-5.92,8.36-6.5v-.46a1.78,1.78,0,0,1,3.55,0v.46c4.85.67,8.56,4.08,8.56,8.17a1.77,1.77,0,1,1-3.54,0c0-2.19-2.13-4-5-4.58v9.45C2966.2,1399,2969.91,1402.45,2969.91,1406.54Z"/><path class="cls-6" d="M3008.55,1418.79l13.91-30.9-13.91-6.26V1396a10.12,10.12,0,0,0,3.89,3.1l-3.89,8.65Z"/><polygon class="cls-6" points="2992.75 1427.87 3002.49 1432.25 3004.46 1427.87 2992.75 1427.87"/><path class="cls-6" d="M2932.44,1372.58l3.56-7.9a10.06,10.06,0,0,0,13.3-5l28.75,12.94h10.41l-50.71-22.83-10.28,22.83Z"/></g><g class="cls-5"><path class="cls-6" d="M689.31,624.75v48.66h92.9V624.75Zm88.37,34.32a10.06,10.06,0,0,0-10.06,10.06H703.9a10.06,10.06,0,0,0-10.06-10.06v-20A10.06,10.06,0,0,0,703.9,629h63.72a10.06,10.06,0,0,0,10.06,10.06Z"/><path class="cls-6" d="M729,642.08a2.45,2.45,0,0,0,0,.48c0,2.18,2.13,4,5,4.58V638C731.32,638.48,729.29,640.1,729,642.08Z"/><path class="cls-6" d="M737.54,660.18c2.88-.55,5-2.39,5-4.58h0c0-2.19-2.15-4-5-4.57Z"/><path class="cls-6" d="M735.76,629c-9.42,0-17.08,9-17.08,20.05s7.66,20,17.08,20,17.08-9,17.08-20S745.19,629,735.76,629ZM746.1,655.6c0,4.09-3.71,7.49-8.56,8.17v.45a1.78,1.78,0,1,1-3.55,0v-.45c-4.86-.68-8.57-4.08-8.57-8.17a1.78,1.78,0,0,1,3.55,0c0,2.19,2.13,4,5,4.58v-9.45c-4.86-.68-8.57-4.08-8.57-8.17a6.59,6.59,0,0,1,.21-1.67c.85-3.32,4.18-5.92,8.36-6.5v-.46a1.78,1.78,0,0,1,3.55,0v.46c4.85.67,8.56,4.08,8.56,8.17a1.77,1.77,0,0,1-3.54,0c0-2.19-2.14-4-5-4.58v9.45C742.39,648.11,746.1,651.51,746.1,655.6Z"/><path class="cls-6" d="M784.74,667.85,798.65,637l-13.91-6.26v14.37a10.12,10.12,0,0,0,3.89,3.1l-3.89,8.65Z"/><polygon class="cls-6" points="768.94 676.93 778.68 681.31 780.65 676.93 768.94 676.93"/><path class="cls-6" d="M708.63,621.64l3.56-7.9a10.06,10.06,0,0,0,13.3-5l28.75,12.94h10.41l-50.71-22.83-10.28,22.83Z"/></g><g class="cls-5"><path class="cls-6" d="M2277.49,1553.85v48.66h92.9v-48.66Zm88.37,34.32a10.06,10.06,0,0,0-10.06,10.07h-63.72a10.06,10.06,0,0,0-10.06-10.07v-20a10.06,10.06,0,0,0,10.06-10.06h63.72a10.06,10.06,0,0,0,10.06,10.06Z"/><path class="cls-6" d="M2317.19,1571.18a2.52,2.52,0,0,0,0,.48c0,2.18,2.13,4,5,4.58v-9.16C2319.5,1567.58,2317.47,1569.2,2317.19,1571.18Z"/><path class="cls-6" d="M2325.72,1589.28c2.89-.55,5-2.39,5-4.58h0c0-2.19-2.14-4-5-4.57Z"/><path class="cls-6" d="M2323.94,1558.13c-9.42,0-17.08,9-17.08,20s7.66,20.06,17.08,20.06,17.08-9,17.08-20.06S2333.37,1558.13,2323.94,1558.13Zm10.34,26.57c0,4.09-3.71,7.49-8.56,8.17v.46a1.78,1.78,0,0,1-3.55,0v-.46c-4.86-.68-8.57-4.08-8.57-8.17a1.78,1.78,0,0,1,3.55,0c0,2.19,2.13,4,5,4.58v-9.45c-4.86-.68-8.57-4.08-8.57-8.17a6.65,6.65,0,0,1,.21-1.67c.85-3.32,4.18-5.92,8.36-6.5V1563a1.78,1.78,0,0,1,3.55,0v.46c4.85.67,8.56,4.08,8.56,8.17a1.77,1.77,0,0,1-3.54,0c0-2.19-2.13-4-5-4.58v9.45C2330.57,1577.21,2334.28,1580.61,2334.28,1584.7Z"/><path class="cls-6" d="M2372.92,1597l13.91-30.9-13.91-6.26v14.37a10.12,10.12,0,0,0,3.89,3.1l-3.89,8.65Z"/><polygon class="cls-6" points="2357.12 1606.03 2366.86 1610.42 2368.83 1606.03 2357.12 1606.03"/><path class="cls-6" d="M2296.81,1550.74l3.56-7.9a10.05,10.05,0,0,0,13.3-5l28.75,12.94h10.41l-50.71-22.83-10.28,22.83Z"/></g><g class="cls-5"><path class="cls-6" d="M290.93,507.4v48.65h92.9V507.4Zm88.37,34.32a10.05,10.05,0,0,0-10.06,10.06H305.52a10.05,10.05,0,0,0-10.06-10.06v-20a10.05,10.05,0,0,0,10.06-10.06h63.72a10.05,10.05,0,0,0,10.06,10.06Z"/><path class="cls-6" d="M330.63,524.72a2.63,2.63,0,0,0,0,.49c0,2.18,2.13,4,5,4.57v-9.15C332.94,521.13,330.91,522.74,330.63,524.72Z"/><path class="cls-6" d="M339.16,542.82c2.88-.54,5-2.38,5-4.58h0c0-2.18-2.15-4-5-4.56Z"/><path class="cls-6" d="M337.38,511.67c-9.42,0-17.08,9-17.08,20.05s7.66,20.06,17.08,20.06,17.08-9,17.08-20.06S346.81,511.67,337.38,511.67Zm10.34,26.57c0,4.09-3.71,7.5-8.56,8.18v.45a1.78,1.78,0,1,1-3.55,0v-.45c-4.86-.68-8.57-4.09-8.57-8.18a1.78,1.78,0,0,1,3.55,0c0,2.2,2.13,4,5,4.58v-9.44c-4.86-.68-8.57-4.09-8.57-8.17a6.67,6.67,0,0,1,.21-1.68c.85-3.31,4.18-5.92,8.36-6.5v-.45a1.78,1.78,0,0,1,3.55,0V517c4.85.68,8.56,4.09,8.56,8.18a1.77,1.77,0,0,1-3.54,0c0-2.19-2.14-4-5-4.58v9.44C344,530.75,347.72,534.16,347.72,538.24Z"/><path class="cls-6" d="M386.36,550.49l13.91-30.9-13.91-6.26V527.7a10.05,10.05,0,0,0,3.89,3.11l-3.89,8.64Z"/><polygon class="cls-6" points="370.56 559.57 380.3 563.96 382.27 559.57 370.56 559.57"/><path class="cls-6" d="M310.25,504.29l3.56-7.9a10.06,10.06,0,0,0,13.3-5.05l28.75,13h10.41l-50.71-22.84-10.28,22.84Z"/></g><g class="cls-5"><path class="cls-6" d="M2657.46,1521.25h-26.79c-1.48,0-1.84.36-1.84,1.85v51.24a2.69,2.69,0,0,0,2.68,2.68h25.11a2.69,2.69,0,0,0,2.69-2.68V1523.1C2659.31,1521.62,2659,1521.25,2657.46,1521.25Zm-13.39,13a3.75,3.75,0,1,1,3.75-3.74A3.75,3.75,0,0,1,2644.07,1534.28Z"/><path class="cls-6" d="M2644.07,1531.63c-1.73,0-2.61-2.24-2.89-3a1.05,1.05,0,0,1,2-.76c.56,1.43,1,1.64,1,1.64,1.06-.47,3.14-7.74,3.14-20.51s-2.08-20-3.24-20.53c-1.06.48-3.15,7.74-3.15,20.52,0,3.8.42,9.4.8,12.73a1.05,1.05,0,0,1-2.09.25c-.39-3.4-.81-9.1-.81-13,0-.92.06-22.61,5.3-22.61s5.3,21.69,5.3,22.62S2649.3,1531.63,2644.07,1531.63Z"/><path class="cls-6" d="M2686,1521.25h-9.82s-10.33,13.1-10.33,14.58v38.51a2.69,2.69,0,0,0,2.68,2.68h25.12a2.69,2.69,0,0,0,2.68-2.68v-38.51C2696.34,1534.35,2686,1521.25,2686,1521.25Zm-4.91,13a3.75,3.75,0,1,1,3.75-3.74A3.75,3.75,0,0,1,2681.1,1534.28Z"/><path class="cls-6" d="M2681.1,1531.63c-1.73,0-2.61-2.24-2.89-3a1.05,1.05,0,1,1,2-.76c.56,1.44,1,1.64,1,1.64,1.06-.47,3.14-7.73,3.14-20.51s-2.08-20-3.24-20.53c-1.06.48-3.14,7.75-3.14,20.52,0,3.77.41,9.38.79,12.74a1.05,1.05,0,0,1-2.09.24c-.39-3.42-.81-9.13-.81-13,0-.92.06-22.61,5.3-22.61s5.29,21.69,5.29,22.62S2686.33,1531.63,2681.1,1531.63Z"/><path class="cls-6" d="M2718.13,1521.25a15.24,15.24,0,0,0-15.24,15.24v38.4A2.12,2.12,0,0,0,2705,1577h26.24a2.12,2.12,0,0,0,2.12-2.13v-38.4A15.24,15.24,0,0,0,2718.13,1521.25Zm0,13a3.7,3.7,0,1,1,3.7-3.7A3.7,3.7,0,0,1,2718.13,1534.28Z"/><path class="cls-6" d="M2718.13,1531.63c-1.73,0-2.6-2.24-2.89-3a1.05,1.05,0,0,1,2-.76c.56,1.43,1,1.64,1,1.64,1-.47,3.14-7.74,3.14-20.51s-2.09-20-3.25-20.53c-1.06.48-3.14,7.74-3.14,20.52,0,3.75.41,9.36.79,12.74a1,1,0,1,1-2.08.24c-.4-3.44-.82-9.15-.82-13,0-.92.07-22.61,5.3-22.61s5.3,21.69,5.3,22.62S2723.37,1531.63,2718.13,1531.63Z"/></g><g class="cls-5"><path class="cls-6" d="M484.21,620.22H457.43c-1.49,0-1.85.37-1.85,1.85v51.25a2.69,2.69,0,0,0,2.69,2.68h25.1a2.69,2.69,0,0,0,2.69-2.68V622.07C486.06,620.59,485.7,620.22,484.21,620.22Zm-13.39,13a3.75,3.75,0,1,1,3.75-3.75A3.75,3.75,0,0,1,470.82,633.26Z"/><path class="cls-6" d="M470.82,630.6c-1.73,0-2.6-2.24-2.89-3a1.05,1.05,0,0,1,2-.77c.56,1.44,1,1.65,1,1.65C471.93,628,474,620.77,474,608s-2.09-20-3.25-20.52c-1.06.47-3.14,7.74-3.14,20.52,0,3.79.41,9.39.79,12.73a1,1,0,0,1-.92,1.16,1,1,0,0,1-1.16-.92c-.4-3.4-.82-9.1-.82-13,0-.93.07-22.62,5.3-22.62s5.3,21.7,5.3,22.62S476.06,630.6,470.82,630.6Z"/><path class="cls-6" d="M512.76,620.22h-9.82s-10.33,13.11-10.33,14.59v38.51A2.69,2.69,0,0,0,495.3,676h25.11a2.69,2.69,0,0,0,2.68-2.68V634.81C523.09,633.33,512.76,620.22,512.76,620.22Zm-4.91,13a3.75,3.75,0,1,1,3.75-3.75A3.75,3.75,0,0,1,507.85,633.26Z"/><path class="cls-6" d="M507.85,630.6c-1.73,0-2.6-2.24-2.89-3a1.05,1.05,0,0,1,2-.77c.56,1.44,1,1.65,1,1.65,1.06-.48,3.15-7.74,3.15-20.52s-2.09-20-3.25-20.52c-1.06.47-3.14,7.74-3.14,20.52,0,3.77.41,9.37.79,12.73a1,1,0,0,1-2.08.24c-.4-3.42-.81-9.12-.81-13,0-.93.06-22.62,5.29-22.62s5.3,21.7,5.3,22.62S513.09,630.6,507.85,630.6Z"/><path class="cls-6" d="M544.88,620.22a15.25,15.25,0,0,0-15.24,15.24v38.41a2.12,2.12,0,0,0,2.12,2.13H558a2.12,2.12,0,0,0,2.12-2.13V635.46A15.24,15.24,0,0,0,544.88,620.22Zm0,13a3.7,3.7,0,1,1,3.7-3.7A3.7,3.7,0,0,1,544.88,633.25Z"/><path class="cls-6" d="M544.88,630.6c-1.73,0-2.6-2.24-2.89-3a1.05,1.05,0,0,1,2-.77c.56,1.44,1,1.65,1,1.65,1.06-.48,3.14-7.74,3.14-20.52s-2.08-20-3.25-20.52c-1.06.47-3.14,7.74-3.14,20.52,0,3.74.41,9.35.8,12.73a1,1,0,0,1-.93,1.16,1,1,0,0,1-1.16-.92c-.39-3.43-.81-9.15-.81-13,0-.93.06-22.62,5.29-22.62s5.3,21.7,5.3,22.62S550.12,630.6,544.88,630.6Z"/></g><g class="cls-5"><path class="cls-6" d="M2875.14,1271.67h-26.87a1.25,1.25,0,0,1-1.25-1.25v-9.91a1.25,1.25,0,0,1,.36-.88,1.23,1.23,0,0,1,.88-.37h26.87a1.25,1.25,0,0,1,1.25,1.25v9.92a1.23,1.23,0,0,1-1.24,1.24Z"/><path class="cls-6" d="M2907.64,1271.68h-26.87a1.24,1.24,0,0,1-1.24-1.24v-9.92a1.23,1.23,0,0,1,1.24-1.24h26.87a1.24,1.24,0,0,1,1.24,1.24v9.92a1.25,1.25,0,0,1-.36.88A1.22,1.22,0,0,1,2907.64,1271.68Z"/><path class="cls-6" d="M2875.14,1311.48h-25.63a1.25,1.25,0,0,1-1.24-1.24v-33.56a1.25,1.25,0,0,1,1.25-1.24h25.62a1.24,1.24,0,0,1,1.25,1.24v33.56a1.25,1.25,0,0,1-.36.88A1.27,1.27,0,0,1,2875.14,1311.48Z"/><path class="cls-6" d="M2906.4,1311.49h-25.63a1.23,1.23,0,0,1-1.24-1.24v-33.55a1.24,1.24,0,0,1,1.24-1.25h25.62a1.25,1.25,0,0,1,1.25,1.25v33.56a1.25,1.25,0,0,1-1.24,1.24Z"/><path class="cls-6" d="M2861.67,1255a42.37,42.37,0,0,0,5,4.3h21.92a42.24,42.24,0,0,0,5-4.29c6-6,10.44-13.67,6.85-17.27a4.68,4.68,0,0,0-3.41-1.3c-3.51,0-8.82,3.13-13.85,8.16a39.89,39.89,0,0,0-5.55,6.84,39.84,39.84,0,0,0-5.55-6.84c-5-5-10.35-8.16-13.86-8.16a4.64,4.64,0,0,0-3.4,1.3c-1.25,1.25-2.24,3.71.13,8.39A36.54,36.54,0,0,0,2861.67,1255Zm25.2-6.71c4.08-4.09,7.81-6.17,9.61-6.56-.39,1.58-2.28,5.29-6.58,9.59-4,4-7.7,6.09-9.59,6.53C2880.74,1256,2882.81,1252.29,2886.87,1248.24Zm-18.48,0c4.3,4.3,6.19,8,6.58,9.6-1.79-.4-5.52-2.48-9.61-6.56a31.66,31.66,0,0,1-5.76-7.54,9.35,9.35,0,0,1-.79-2C2860.62,1242.1,2864.33,1244.17,2868.39,1248.23Z"/><path class="cls-6" d="M2883.33,1259.27a6.75,6.75,0,0,0,1.11-3.71,6.82,6.82,0,0,0-13.64,0,6.75,6.75,0,0,0,1.11,3.71Z"/></g><g class="cls-5"><path class="cls-6" d="M161.39,756.52H134.52a1.25,1.25,0,0,1-1.24-1.24v-9.92a1.25,1.25,0,0,1,1.24-1.25h26.87a1.24,1.24,0,0,1,1.24,1.25v9.92a1.23,1.23,0,0,1-1.24,1.24Z"/><path class="cls-6" d="M193.9,756.53H167a1.24,1.24,0,0,1-1.24-1.24v-9.92a1.25,1.25,0,0,1,1.24-1.24h26.87a1.25,1.25,0,0,1,1.25,1.24v9.92a1.25,1.25,0,0,1-.36.88A1.23,1.23,0,0,1,193.9,756.53Z"/><path class="cls-6" d="M161.39,796.34H135.77a1.24,1.24,0,0,1-1.25-1.24V761.53a1.23,1.23,0,0,1,1.24-1.24h25.63a1.23,1.23,0,0,1,1.24,1.24v33.56a1.25,1.25,0,0,1-.36.88A1.22,1.22,0,0,1,161.39,796.34Z"/><path class="cls-6" d="M192.65,796.34H167a1.25,1.25,0,0,1-1.24-1.25V761.54a1.25,1.25,0,0,1,1.24-1.25h25.63a1.25,1.25,0,0,1,1.24,1.25V795.1a1.28,1.28,0,0,1-.37.88A1.25,1.25,0,0,1,192.65,796.34Z"/><path class="cls-6" d="M147.92,739.81a43.06,43.06,0,0,0,5,4.29h21.93a43,43,0,0,0,5-4.29c6-6,10.45-13.67,6.85-17.26a4.62,4.62,0,0,0-3.4-1.31c-3.52,0-8.83,3.13-13.86,8.16a39.33,39.33,0,0,0-5.54,6.84,39.91,39.91,0,0,0-5.56-6.84c-5-5-10.34-8.16-13.85-8.16a4.61,4.61,0,0,0-3.41,1.31c-1.24,1.24-2.23,3.7.13,8.38A37.09,37.09,0,0,0,147.92,739.81Zm25.2-6.72c4.09-4.09,7.82-6.16,9.61-6.56-.39,1.58-2.28,5.29-6.58,9.59-4,4-7.69,6.09-9.58,6.54C167,740.84,169.07,737.14,173.12,733.09Zm-18.48,0c4.3,4.31,6.2,8,6.59,9.6-1.8-.4-5.53-2.47-9.62-6.56a31.33,31.33,0,0,1-5.75-7.54,9,9,0,0,1-.79-2C146.87,727,150.58,729,154.64,733.08Z"/><path class="cls-6" d="M169.59,744.12a6.82,6.82,0,1,0-11.43,0Z"/></g><g class="cls-5"><path class="cls-6" d="M795.84,502H769a1.24,1.24,0,0,1-1.25-1.24v-9.92a1.23,1.23,0,0,1,1.24-1.24h26.87a1.25,1.25,0,0,1,1.25,1.24v9.93a1.25,1.25,0,0,1-1.24,1.24Z"/><path class="cls-6" d="M828.34,502H801.47a1.24,1.24,0,0,1-1.24-1.24v-9.92a1.24,1.24,0,0,1,1.24-1.25h26.87a1.25,1.25,0,0,1,1.24,1.25v9.92a1.23,1.23,0,0,1-1.24,1.24Z"/><path class="cls-6" d="M795.84,541.83H770.21a1.25,1.25,0,0,1-1.24-1.25V507a1.26,1.26,0,0,1,.37-.88,1.22,1.22,0,0,1,.88-.37h25.62a1.25,1.25,0,0,1,1.25,1.25v33.56a1.23,1.23,0,0,1-1.24,1.24Z"/><path class="cls-6" d="M827.1,541.84H801.47a1.24,1.24,0,0,1-1.24-1.24V507a1.23,1.23,0,0,1,1.24-1.24h25.62a1.24,1.24,0,0,1,1.25,1.24v33.56a1.25,1.25,0,0,1-.36.88A1.23,1.23,0,0,1,827.1,541.84Z"/><path class="cls-6" d="M782.37,485.3a42.24,42.24,0,0,0,5,4.29h21.92a41.33,41.33,0,0,0,5-4.29c6-6,10.44-13.66,6.85-17.26a4.68,4.68,0,0,0-3.41-1.3c-3.51,0-8.82,3.12-13.85,8.16a39.89,39.89,0,0,0-5.55,6.84,40.28,40.28,0,0,0-5.55-6.85c-5-5-10.35-8.15-13.86-8.15a4.64,4.64,0,0,0-3.4,1.3c-1.25,1.24-2.24,3.71.13,8.39A36.54,36.54,0,0,0,782.37,485.3Zm25.2-6.71c4.08-4.09,7.81-6.17,9.61-6.57-.39,1.59-2.28,5.3-6.58,9.6-4,4-7.7,6.09-9.59,6.53C801.44,486.34,803.51,482.64,807.57,478.59Zm-18.48,0c4.3,4.3,6.19,8,6.58,9.59-1.79-.39-5.52-2.47-9.61-6.56a31.63,31.63,0,0,1-5.76-7.53,9.35,9.35,0,0,1-.79-2.05C781.32,472.44,785,474.52,789.09,478.58Z"/><path class="cls-6" d="M804,489.61a6.72,6.72,0,0,0,1.11-3.71,6.82,6.82,0,1,0-13.64,0,6.72,6.72,0,0,0,1.11,3.71Z"/></g><g class="cls-5"><path class="cls-6" d="M2516.94,1547.37h-26.87a1.25,1.25,0,0,1-1.25-1.24v-9.92a1.25,1.25,0,0,1,.36-.88,1.23,1.23,0,0,1,.88-.37h26.87a1.25,1.25,0,0,1,1.25,1.25v9.92a1.25,1.25,0,0,1-.36.88A1.27,1.27,0,0,1,2516.94,1547.37Z"/><path class="cls-6" d="M2549.44,1547.38h-26.87a1.24,1.24,0,0,1-1.25-1.24v-9.92a1.24,1.24,0,0,1,1.25-1.24h26.87a1.24,1.24,0,0,1,1.24,1.24v9.92a1.25,1.25,0,0,1-.36.88A1.22,1.22,0,0,1,2549.44,1547.38Z"/><path class="cls-6" d="M2516.94,1587.19h-25.63a1.24,1.24,0,0,1-1.24-1.24v-33.56a1.28,1.28,0,0,1,.37-.88,1.25,1.25,0,0,1,.88-.36h25.62a1.24,1.24,0,0,1,1.25,1.24v33.56a1.25,1.25,0,0,1-.36.88A1.23,1.23,0,0,1,2516.94,1587.19Z"/><path class="cls-6" d="M2548.2,1587.19h-25.63a1.25,1.25,0,0,1-1.25-1.25v-33.55a1.25,1.25,0,0,1,1.25-1.25h25.62a1.25,1.25,0,0,1,1.25,1.25V1586a1.23,1.23,0,0,1-1.24,1.24Z"/><path class="cls-6" d="M2503.47,1530.66a42.24,42.24,0,0,0,5,4.29h21.92a43.06,43.06,0,0,0,5-4.29c6-6,10.44-13.67,6.85-17.27a4.68,4.68,0,0,0-3.41-1.3c-3.51,0-8.82,3.13-13.85,8.16a39.89,39.89,0,0,0-5.55,6.84,39.84,39.84,0,0,0-5.55-6.84c-5-5-10.35-8.16-13.86-8.16a4.64,4.64,0,0,0-3.4,1.3c-1.25,1.25-2.24,3.71.13,8.39A36.77,36.77,0,0,0,2503.47,1530.66Zm25.2-6.72c4.08-4.09,7.81-6.17,9.61-6.56-.39,1.58-2.28,5.29-6.58,9.59-4,4-7.7,6.09-9.59,6.53C2522.54,1531.69,2524.61,1528,2528.67,1523.94Zm-18.48,0c4.3,4.31,6.19,8,6.58,9.6-1.79-.4-5.52-2.47-9.61-6.56a31.66,31.66,0,0,1-5.76-7.54,9.52,9.52,0,0,1-.79-2C2502.42,1517.8,2506.13,1519.88,2510.19,1523.93Z"/><path class="cls-6" d="M2525.13,1535a6.75,6.75,0,0,0,1.11-3.71,6.82,6.82,0,1,0-13.64,0,6.75,6.75,0,0,0,1.11,3.71Z"/></g><path class="cls-7" d="M346.61,1110.34v0l-.19-.19Z"/></svg>