<svg id="Layer_1" data-name="Layer 1" xmlns="http://www.w3.org/2000/svg" xmlns:xlink="http://www.w3.org/1999/xlink" viewBox="0 0 1080 1350"><defs><style>.cls-1{fill:url(#linear-gradient);}.cls-2{fill:url(#linear-gradient-2);}.cls-3{fill:url(#linear-gradient-3);}.cls-4{fill:url(#linear-gradient-4);}.cls-5{fill:url(#linear-gradient-5);}.cls-6{fill:url(#linear-gradient-6);}.cls-7{fill:url(#linear-gradient-7);}.cls-8{fill:url(#linear-gradient-8);}</style><linearGradient id="linear-gradient" x1="-1107.93" y1="-1010.91" x2="-1104.27" y2="-1010.91" gradientTransform="translate(1446.49 1499.43) rotate(1.44)" gradientUnits="userSpaceOnUse"><stop offset="0" stop-color="#4f7db9"/><stop offset="0.98" stop-color="#ef4ca3"/></linearGradient><linearGradient id="linear-gradient-2" x1="-3330.58" y1="4587.99" x2="-3330.58" y2="4556.92" gradientTransform="translate(869.75 6405.68) rotate(138.8)" xlink:href="#linear-gradient"/><linearGradient id="linear-gradient-3" x1="-3657.39" y1="4786.52" x2="-3462.85" y2="4786.52" gradientTransform="translate(869.75 6405.68) rotate(138.8)" gradientUnits="userSpaceOnUse"><stop offset="0" stop-color="#4f7db9"/><stop offset="0.52" stop-color="#c060ad"/><stop offset="0.98" stop-color="#ef4ca3"/></linearGradient><linearGradient id="linear-gradient-4" x1="-3728.81" y1="4694.8" x2="-3170.02" y2="4694.8" gradientTransform="translate(869.75 6405.68) rotate(138.8)" gradientUnits="userSpaceOnUse"><stop offset="0" stop-color="#4f7db9" stop-opacity="0.5"/><stop offset="0.53" stop-color="#8074b5"/><stop offset="0.98" stop-color="#ef4ca3"/></linearGradient><linearGradient id="linear-gradient-5" x1="-1041.56" y1="-4015.45" x2="-1037.9" y2="-4015.45" gradientTransform="translate(-224.44 -3273.33) rotate(-178.56)" gradientUnits="userSpaceOnUse"><stop offset="0" stop-color="#235e76"/><stop offset="0.49" stop-color="#6aa596"/><stop offset="1" stop-color="#95d4aa" stop-opacity="0.5"/></linearGradient><linearGradient id="linear-gradient-6" x1="-5414.85" y1="6753.05" x2="-5414.85" y2="6721.98" gradientTransform="translate(352.29 -8179.57) rotate(-41.2)" xlink:href="#linear-gradient-5"/><linearGradient id="linear-gradient-7" x1="-5741.65" y1="6951.58" x2="-5547.12" y2="6951.58" gradientTransform="translate(352.29 -8179.57) rotate(-41.2)" xlink:href="#linear-gradient-3"/><linearGradient id="linear-gradient-8" x1="-5813.08" y1="6859.86" x2="-5254.29" y2="6859.86" gradientTransform="translate(352.29 -8179.57) rotate(-41.2)" xlink:href="#linear-gradient-4"/></defs><path class="cls-1" d="M368,461.29c-1.22-.22-2.44-.43-3.65-.62C365.6,460.86,366.82,461.07,368,461.29Z"/><path class="cls-2" d="M335.3,775.75a159,159,0,0,0,56.88-8.52c-4.7,2-9.59,4-14.66,5.75C360.63,777.88,346.18,779.2,335.3,775.75Z"/><path class="cls-3" d="M276.89,471.49c43.29-21.17,129.62-51.88,233.83-28.09l1,1s0,0,.06.06l-14,13.24L463.66,490l-14,13.25c-.37-.36-.75-.73-1.13-1.08L447.36,501c-1.58-1.47-3.17-2.9-4.8-4.29L441,495.46c-.28-.23-.56-.47-.85-.69l-.77-.65c-1-.82-2-1.62-3.05-2.42s-2.1-1.6-3.17-2.38c-.67-.49-1.34-1-2-1.46L430,487l-1.62-1.12-1.45-1-1.12-.74-.52-.33-.74-.48-1.12-.7-1.66-1c-1.12-.68-2.24-1.34-3.37-2-.48-.28-1-.56-1.45-.83l-.6-.33c-.44-.26-.9-.5-1.35-.74l-1.68-.9-.09-.05L411.6,476l-.17-.09c-.53-.28-1.07-.54-1.61-.8l0,0-1.73-.84-1.75-.82c-.59-.28-1.17-.54-1.76-.8s-1.16-.53-1.76-.78-1-.45-1.54-.66l-.51-.22-1.31-.53-.32-.14-1.44-.57-.4-.16c-.48-.19-1-.38-1.45-.55l-.28-.11-1.26-.47-.71-.26-1.08-.39-.65-.22c-.54-.19-1.07-.38-1.62-.56l-1.7-.56-.2-.06-1.47-.47-.34-.11-1.77-.53c-.61-.19-1.22-.36-1.84-.53s-1.22-.35-1.84-.51-1.23-.34-1.85-.49-1.24-.32-1.86-.47l-1.85-.44c-.62-.15-1.24-.29-1.87-.42-1.85-.41-3.72-.79-5.59-1.13h0c-1.22-.22-2.44-.43-3.65-.62l-.11,0-1.88-.28-2-.29c-.58-.07-1.15-.15-1.73-.21l-1.9-.22-1.89-.2-1.89-.17-1.9-.15-1.9-.13-1.72-.09-.44,0c-.55,0-1.09-.06-1.64-.07l-.9,0-.89,0h-.27l-1.74,0c-.57,0-1.13,0-1.69,0h-.52l-1.6,0c-.63,0-1.27,0-1.9,0l-1.9.05-1.9.08c-.57,0-1.13.05-1.69.09l-.38,0-1.63.1-.2,0c-.52,0-1,.07-1.55.12l-.41,0-1.74.16-1.17.11c-.46,0-.92.09-1.37.15-.81.08-1.62.17-2.43.28l-1,.12-1.63.23-1.88.28c-.64.09-1.26.2-1.89.3l-1.49.26c-1.05.18-2.1.38-3.15.59l-1.28.25-.06,0-1.78.38c-2.45.53-4.89,1.13-7.31,1.78-1.19.32-2.36.65-3.54,1q-4.5,1.33-8.92,2.92l-1.2.44c-2,.73-4,1.51-5.92,2.32l-.88.37Z"/><path class="cls-4" d="M111.12,703.18A244.07,244.07,0,0,1,436.89,393.42q2.82,1.23,5.58,2.52c.46.21.93.42,1.38.64l2.94,1.41,1.19.59c1.46.72,2.92,1.47,4.37,2.22.8.42,1.6.84,2.39,1.27s1.79,1,2.68,1.45l1.33.74c2.22,1.24,4.41,2.51,6.59,3.83l1.27.77,2.58,1.59,1.28.82c.43.27.86.54,1.28.82l.22.13,3.54,2.34,0,0q1.89,1.28,3.76,2.58c.41.3.83.58,1.23.88q1.86,1.31,3.69,2.67l1.14.84c.83.62,1.67,1.26,2.5,1.9l1.2.93c1.94,1.52,3.87,3.06,5.76,4.63l.9.74c.43.37.86.72,1.28,1.09.27.23.55.45.81.69.82.69,1.63,1.4,2.44,2.1l1.06.95,1.07,1,1.26,1.14.78.72,1.12,1,2.09,2c1,1,2.06,2,3.08,3-104.21-23.79-190.54,6.92-233.83,28.09l-.45.2-1.42.62-1.27.57-.64.29-.91.43-.93.43-.66.32-1,.49-.88.43-1,.49c-.2.09-.4.2-.61.31l-1.1.57-.46.23-1.45.78-.18.09-1.5.83a2,2,0,0,0-.25.14l-1.11.63c-.36.2-.72.4-1.07.61l-.39.22-1.44.85-.06,0-1.39.84-.55.34-1,.63-.68.43-1,.65-.44.3c-.45.28-.88.56-1.31.85s-.84.56-1.25.85-.66.45-1,.67-.61.41-.91.63l-.33.24c-.38.26-.75.52-1.11.79l-.19.13-.06,0-1.5,1.1-.36.26-1.2.9c-.46.35-.92.7-1.37,1.06l-1.05.81-2.13,1.71-.91.76c-.7.57-1.4,1.16-2.09,1.76l-.77.66-.88.77-1.47,1.32c-1,.88-2,1.79-2.92,2.71C166.9,562.49,164.37,663,224.59,726.35a157.91,157.91,0,0,0,109.65,49.11h0c10.89,3.46,25.34,2.14,42.23-2.76C487.29,740.55,703,554.38,703,554.38L665.22,682.2l-19.07-20.06L507.55,793.92l-1.4,1.32-.09.09-1.22,1.14-.21.18-1.27,1.17-1.47,1.32-.61.54-.89.79-1.6,1.4L497.46,803l-1.13,1-.34.28a3.48,3.48,0,0,0-.28.24l-1.37,1.13-.6.49-.29.24-1.26,1-.33.28L490,809.12c-1.28,1-2.58,2-3.88,3l-.36.27c-.54.42-1.09.83-1.64,1.23l-.3.22-2,1.47-1.71,1.22-.63.45-1.85,1.28-2,1.34-.23.15-2.05,1.37-2.14,1.39-2.16,1.37h0l-2.16,1.34c-.57.35-1.15.69-1.71,1a1.55,1.55,0,0,0-.22.12c-.3.19-.61.36-.92.55L462,828.15c-.41.23-.81.47-1.22.69-.26.16-.53.32-.81.47,0,0,0,0,0,0-.57.33-1.14.66-1.71,1l-2.92,1.6-1.38.73-.65.35c-.58.31-1.16.62-1.75.92l-.51.26-1.79.91-1.69.84-1.76.86c-1.34.65-2.69,1.29-4,1.91l-1.85.85-.26.12-2.19,1-2,.88-1.27.53c-1.1.47-2.21.92-3.32,1.37l-1,.42-1.42.56-1,.39-1.86.71a242.5,242.5,0,0,1-72.45,15.25q-9.82.56-19.75.3A244.16,244.16,0,0,1,111.12,703.18Z"/><path class="cls-5" d="M712,766.73c1.22.22,2.44.42,3.65.62C714.4,767.16,713.18,767,712,766.73Z"/><path class="cls-6" d="M744.7,452.27a159.19,159.19,0,0,0-56.88,8.51c4.7-2,9.59-4,14.66-5.74C719.37,450.14,733.82,448.82,744.7,452.27Z"/><path class="cls-7" d="M803.11,756.53c-43.29,21.17-129.62,51.88-233.83,28.09l-1-1a.34.34,0,0,1-.06-.06l14-13.24L616.34,738l14-13.25c.37.36.75.73,1.13,1.08l1.19,1.12c1.58,1.47,3.17,2.9,4.8,4.29l1.52,1.29.85.69.77.65c1,.82,2,1.62,3,2.42s2.1,1.6,3.17,2.38c.67.49,1.34,1,2,1.46L650,741l1.62,1.11,1.45,1,1.12.74.52.33.74.48,1.12.7,1.66,1c1.12.68,2.24,1.34,3.37,2,.48.28,1,.56,1.45.83l.6.33,1.35.74,1.68.9.09,0,1.62.84.17.09c.53.28,1.07.54,1.61.8h0l1.73.85,1.75.82c.59.28,1.17.54,1.76.8s1.16.53,1.76.78,1,.45,1.54.66l.51.22,1.31.53.32.14,1.44.57.4.16c.48.19,1,.38,1.45.55l.28.11,1.26.47.71.26,1.08.38.65.23c.54.19,1.07.38,1.62.56l1.7.56.2.06,1.47.47.34.11,1.77.53,1.84.53c.61.18,1.22.35,1.84.51s1.23.34,1.85.49,1.24.32,1.86.47l1.85.44c.62.15,1.24.28,1.87.42,1.85.41,3.72.79,5.59,1.13h0c1.22.23,2.44.44,3.65.63l.11,0,1.88.28,2,.28c.58.08,1.15.16,1.73.22l1.9.22c.63.07,1.26.14,1.89.19l1.89.18,1.9.14c.63.06,1.26.1,1.9.13l1.72.1.44,0c.55,0,1.09,0,1.64.06.3,0,.59,0,.9,0l.89,0h.27l1.74,0c.57,0,1.13,0,1.69,0h2.12c.63,0,1.27,0,1.9,0s1.27,0,1.9-.06l1.9-.07c.57,0,1.13,0,1.69-.09l.38,0,1.63-.1.2,0c.52,0,1-.07,1.55-.12l.41,0,1.74-.16,1.17-.11c.46,0,.92-.09,1.37-.15.81-.08,1.62-.18,2.43-.28l1-.12,1.63-.23,1.88-.28c.64-.09,1.26-.2,1.89-.3l1.49-.26c1.05-.18,2.1-.38,3.15-.59l1.28-.26h.06l1.78-.38c2.45-.53,4.89-1.13,7.31-1.78,1.19-.32,2.36-.65,3.54-1q4.5-1.33,8.92-2.92l1.2-.44c2-.73,4-1.51,5.92-2.32l.88-.37Z"/><path class="cls-8" d="M968.88,524.84A244.07,244.07,0,0,1,643.11,834.6q-2.82-1.23-5.58-2.52l-1.38-.64L633.21,830l-1.19-.59c-1.46-.72-2.92-1.47-4.37-2.22-.8-.42-1.6-.84-2.39-1.27l-2.68-1.45-1.33-.74c-2.22-1.24-4.41-2.52-6.59-3.83l-1.27-.77-2.58-1.6-1.28-.81c-.43-.27-.86-.54-1.28-.82l-.22-.14q-1.78-1.15-3.54-2.34l0,0q-1.89-1.27-3.76-2.58c-.41-.3-.83-.58-1.23-.88-1.24-.88-2.47-1.76-3.69-2.67l-1.14-.84-2.5-1.9-1.2-.93c-1.94-1.52-3.87-3.06-5.76-4.63l-.9-.74c-.43-.37-.86-.72-1.28-1.09s-.55-.45-.81-.69c-.82-.69-1.63-1.4-2.44-2.11l-1.06-.94-1.07-.95-1.26-1.15-.78-.71-1.12-1-2.09-2c-1-1-2.06-2-3.08-3,104.21,23.79,190.54-6.92,233.83-28.09l.45-.2,1.42-.62,1.27-.57.64-.29.91-.43.93-.43.66-.32,1-.49.88-.43,1-.49.61-.31,1.1-.57.46-.24,1.45-.77.18-.09,1.5-.84a1.19,1.19,0,0,0,.25-.13l1.11-.63c.36-.2.72-.4,1.07-.61l.39-.22,1.44-.85.06,0,1.39-.84.55-.35c.35-.2.69-.41,1-.62l.68-.43,1-.66.44-.29c.45-.28.88-.57,1.31-.86s.84-.56,1.25-.84.66-.45,1-.67l.91-.63.33-.24c.38-.26.75-.52,1.11-.79l.19-.13.06,0,1.5-1.1.36-.27,1.2-.9c.46-.34.92-.69,1.37-1s.71-.54,1.05-.82l2.13-1.7.91-.76c.7-.57,1.4-1.16,2.09-1.76.26-.22.52-.44.77-.67l.88-.76,1.47-1.32c1-.89,2-1.79,2.92-2.71,63.34-60.22,65.87-160.74,5.65-224.08a157.91,157.91,0,0,0-109.65-49.11h0c-10.89-3.46-25.34-2.14-42.23,2.76C592.71,487.47,377.05,673.64,377.05,673.64l37.73-127.82,19.07,20.06L572.45,434.1l1.4-1.32.09-.09,1.22-1.14.21-.18,1.27-1.17,1.47-1.32.61-.54.89-.79,1.6-1.4,1.33-1.14,1.13-1,.34-.28.28-.24,1.37-1.13.6-.49.29-.24,1.26-1,.33-.28,1.87-1.48c1.28-1,2.58-2,3.88-3l.36-.28,1.64-1.22.3-.22,2-1.47,1.71-1.22.63-.45,1.85-1.28,2-1.34.23-.15,2-1.37,2.14-1.39,2.16-1.37h0l2.16-1.34,1.71-1.05a1.55,1.55,0,0,0,.22-.12c.3-.19.61-.36.92-.55l2-1.21,1.22-.7.81-.46,0,0,1.71-1,2.92-1.6,1.38-.73.65-.35c.58-.31,1.16-.62,1.75-.92l.51-.26,1.79-.91,1.69-.84,1.76-.86c1.34-.65,2.69-1.29,4-1.91l1.85-.85.26-.12,2.19-1,2-.88,1.27-.53c1.1-.47,2.21-.92,3.32-1.37l1-.42,1.42-.56,1-.39,1.86-.71A242.5,242.5,0,0,1,727,367.31q9.82-.56,19.75-.3A244.12,244.12,0,0,1,968.88,524.84Z"/></svg>