<svg width="30" height="30" viewBox="0 0 30 30" fill="none" xmlns="http://www.w3.org/2000/svg">
<path d="M9.20226 5.76351C9.16113 5.75021 9.12001 5.73751 9.07922 5.72601C9.12136 5.73751 9.16248 5.75021 9.20226 5.76351Z" fill="url(#paint0_linear)"/>
<path d="M8.09998 24.7833C8.75122 24.8221 9.40094 24.6474 10.0173 24.2679C9.85884 24.3889 9.69401 24.5099 9.52312 24.6157C8.95379 24.9121 8.46672 24.9919 8.09998 24.7833Z" fill="url(#paint1_linear)"/>
<path d="M6.1311 6.38044C7.59032 5.1 10.5003 3.24254 14.013 4.68145L14.0467 4.74194C14.0467 4.74194 14.0467 4.74194 14.0487 4.74557L13.5768 5.54637L12.4267 7.5L11.9548 8.30141C11.9423 8.27964 11.9295 8.25726 11.9167 8.23609L11.8773 8.16532C11.824 8.07641 11.7704 7.98992 11.7155 7.90585L11.6629 7.83024C11.6535 7.81633 11.644 7.80182 11.6342 7.78851L11.6083 7.7492C11.5746 7.6996 11.5409 7.65121 11.5055 7.60283C11.4701 7.55444 11.4347 7.50605 11.3986 7.45887C11.376 7.42924 11.3535 7.39839 11.3312 7.37057L11.2921 7.31855L11.2375 7.25081L11.1886 7.19032L11.1509 7.14557L11.1334 7.12561L11.1084 7.09657L11.0707 7.05424L11.0147 6.99375C10.9769 6.95262 10.9392 6.9127 10.9011 6.87278C10.8849 6.85585 10.8674 6.83891 10.8522 6.82258L10.832 6.80262C10.8172 6.7869 10.8017 6.77238 10.7865 6.75787L10.7299 6.70343L10.7268 6.70041L10.6719 6.65323L10.6662 6.64778C10.6483 6.63085 10.6301 6.61512 10.6119 6.5994L10.5536 6.54859L10.4946 6.49899C10.4747 6.48206 10.4551 6.46633 10.4353 6.45061C10.4154 6.43488 10.3962 6.41855 10.3759 6.40343C10.3557 6.38831 10.3422 6.37621 10.324 6.36351L10.3068 6.3502L10.2627 6.31815L10.2519 6.30968L10.2034 6.2752L10.1899 6.26553C10.1737 6.25403 10.1562 6.24254 10.141 6.23226L10.1316 6.22561L10.0891 6.19718L10.0651 6.18145L10.0287 6.15786L10.0068 6.14456C9.98863 6.13307 9.97077 6.12157 9.95223 6.11069L9.89492 6.07682L9.88818 6.07319L9.83863 6.04476L9.82717 6.03811L9.76751 6.00605C9.74695 5.99456 9.72638 5.98428 9.70549 5.97399C9.68459 5.96371 9.66436 5.95283 9.64346 5.94315C9.62256 5.93347 9.602 5.92258 9.5811 5.91351C9.5602 5.90444 9.53931 5.89415 9.51841 5.88508L9.45605 5.85847C9.43515 5.8494 9.41425 5.84093 9.39301 5.83307C9.33065 5.80827 9.26762 5.78528 9.20459 5.76472C9.16346 5.75141 9.12234 5.73871 9.08155 5.72722H9.07784L9.01447 5.71028L8.94706 5.69274C8.92751 5.68851 8.90829 5.68367 8.88874 5.68004L8.8247 5.66674L8.76099 5.65464L8.69728 5.64436L8.63324 5.63529L8.56919 5.62742L8.51122 5.62198H8.49638C8.47784 5.62198 8.45964 5.61835 8.4411 5.61774H8.41077H8.38077H8.37166H8.31301C8.2938 5.61774 8.27492 5.61774 8.25605 5.61774H8.23852H8.18459C8.16335 5.61774 8.14178 5.61774 8.12054 5.61774L8.0565 5.62077L7.99245 5.62561C7.97324 5.62561 7.95436 5.62863 7.93549 5.63105H7.92268L7.86773 5.6371H7.86099C7.84346 5.6371 7.82728 5.64133 7.80874 5.64436H7.79492L7.73627 5.65403L7.69683 5.66069C7.68133 5.66069 7.66582 5.66613 7.65065 5.66976C7.62335 5.6746 7.59605 5.68004 7.56874 5.68669L7.53504 5.69395L7.48009 5.70786L7.41672 5.7248C7.39515 5.73024 7.37425 5.7369 7.35301 5.74295L7.30279 5.75867C7.2674 5.76956 7.232 5.78165 7.19661 5.79436L7.15346 5.80948H7.15144L7.09144 5.83246C7.00886 5.86452 6.92661 5.90081 6.84504 5.94012C6.80492 5.95948 6.76549 5.97944 6.72571 6.00061C6.62459 6.05424 6.52436 6.11311 6.42504 6.17722L6.38459 6.20383C6.31717 6.24799 6.24975 6.29516 6.18504 6.34416L6.15537 6.36653L6.1311 6.38044Z" fill="url(#paint2_linear)"/>
<path d="M0.543311 20.3939C-0.0258058 17.6793 -0.136668 14.7241 0.224564 11.8971C0.585797 9.07009 1.40312 6.49667 2.57449 4.49811C3.74585 2.49956 5.21936 1.16443 6.81104 0.659417C8.40271 0.154402 10.042 0.501879 11.5243 1.65846C11.5877 1.70806 11.6504 1.75887 11.7124 1.81088C11.7279 1.82358 11.7438 1.83629 11.7589 1.84959L11.858 1.93487L11.8981 1.97056C11.9474 2.01411 11.9966 2.05947 12.0454 2.10483C12.0724 2.13024 12.0994 2.15564 12.126 2.18165C12.1526 2.20766 12.1863 2.24213 12.2163 2.26935L12.2612 2.31411C12.336 2.38911 12.4098 2.46592 12.4833 2.54576L12.5261 2.59233L12.6131 2.6885L12.6562 2.7381C12.6707 2.75443 12.6852 2.77076 12.6994 2.7877L12.7068 2.79556L12.8261 2.93709C12.8686 2.98871 12.9108 3.04072 12.9529 3.09314C12.9667 3.11129 12.9808 3.12822 12.9943 3.14637C13.0361 3.19919 13.0776 3.25302 13.1187 3.30786L13.1571 3.35867C13.1851 3.39617 13.2134 3.43487 13.2414 3.47358L13.2819 3.52983C13.3472 3.62177 13.4123 3.71491 13.476 3.80987L13.5063 3.85463C13.5208 3.87701 13.5353 3.89818 13.5495 3.92056C13.5586 3.93447 13.568 3.94778 13.5768 3.9623C13.6044 4.00403 13.6317 4.04697 13.659 4.08931L13.6948 4.14677L13.7308 4.20725L13.7733 4.27621L13.7996 4.31975L13.8374 4.38024L13.9078 4.50121C13.9415 4.56169 13.9772 4.62217 14.0116 4.68266C10.4989 3.24375 7.58893 5.10121 6.12972 6.38165L6.11455 6.39375L6.06668 6.43125L6.02387 6.46572L6.0023 6.48326L5.97163 6.50927L5.94028 6.53528L5.91803 6.55463L5.88432 6.58427L5.85466 6.61028L5.82095 6.63992C5.81421 6.64536 5.80747 6.65201 5.80039 6.65867L5.76331 6.69314L5.74781 6.70705L5.69893 6.75423L5.69286 6.75967L5.6423 6.80988C5.63938 6.81233 5.63657 6.81516 5.63387 6.81834L5.59646 6.85645C5.58432 6.86854 5.57219 6.88064 5.56039 6.89334L5.54724 6.90665L5.4987 6.95806H5.49668L5.44983 7.00887L5.43129 7.02943L5.39758 7.06754L5.37466 7.09354L5.34095 7.13286L5.32612 7.15101C5.31095 7.16794 5.29646 7.18487 5.28196 7.20241C5.26747 7.21996 5.25365 7.23629 5.23983 7.25383C5.22601 7.27137 5.21758 7.28105 5.20612 7.29435C5.19466 7.30766 5.18556 7.31915 5.17545 7.33246L5.16432 7.34697C5.15151 7.3627 5.13904 7.37842 5.12691 7.39476L5.1205 7.40262H5.11848L5.06792 7.46915L5.05578 7.48488L5.01533 7.53931C4.99983 7.56048 4.98432 7.58165 4.96915 7.60342L4.93376 7.65242L4.86196 7.75584L4.83129 7.80181C4.80769 7.83629 4.7841 7.87197 4.76084 7.90826L4.73488 7.94818L4.70522 7.99475L4.65567 8.07459C4.62196 8.12782 4.58825 8.18286 4.55724 8.2385C2.42354 11.8845 2.33825 17.9637 4.36814 21.7954C5.33392 23.6207 6.6622 24.6881 8.06421 24.7657V24.7657C8.43129 24.975 8.91837 24.8952 9.48769 24.5988C13.2232 22.6542 20.4943 11.3939 20.4943 11.3939L19.2208 19.125L18.578 17.9117L13.9061 25.8823L13.8589 25.9621L13.8559 25.9675L13.8148 26.0365L13.8077 26.0474L13.7649 26.1181L13.7153 26.198L13.6948 26.2306L13.6648 26.2784L13.6108 26.3631L13.566 26.4315L13.5279 26.4919L13.5165 26.5089C13.5132 26.5134 13.51 26.5183 13.507 26.5234L13.4608 26.5917L13.4406 26.6214L13.4308 26.6359L13.3884 26.6964L13.3772 26.7133L13.3145 26.8016C13.2714 26.8621 13.2276 26.9226 13.1838 26.9831L13.1716 26.9994C13.1534 27.0248 13.1349 27.0496 13.1163 27.0738L13.1062 27.0871L13.0388 27.176L12.9812 27.2498L12.9599 27.277L12.8976 27.3544L12.8302 27.4355L12.8224 27.4446L12.7533 27.5274L12.6812 27.6115L12.6084 27.6944L12.5356 27.7754C12.5163 27.7966 12.4968 27.8171 12.4779 27.8359C12.4753 27.8379 12.4729 27.8404 12.4705 27.8431C12.4604 27.8546 12.4499 27.8649 12.4395 27.8764L12.3707 27.9526C12.3569 27.9665 12.3434 27.981 12.3296 27.9944C12.3208 28.004 12.3117 28.0137 12.3023 28.0228C12.2831 28.0427 12.2639 28.0627 12.2447 28.0833L12.1462 28.18L12.0997 28.2242L12.0778 28.2454C12.0583 28.2641 12.0387 28.2829 12.0188 28.301L12.0016 28.3167L11.9413 28.3718L11.8843 28.4226L11.825 28.4746C11.7798 28.5139 11.7343 28.5526 11.6902 28.5901L11.6278 28.6415L11.619 28.6488L11.5452 28.7093L11.4778 28.7625L11.435 28.7946C11.3979 28.823 11.3605 28.8502 11.3231 28.8774L11.2894 28.9028L11.2415 28.9367L11.2078 28.9603L11.1451 29.0032C10.3622 29.5332 9.53853 29.8443 8.70297 29.9256C8.4823 29.9482 8.26039 29.9542 8.03724 29.9437C6.40041 29.8701 4.81303 28.9221 3.47808 27.2209C2.14314 25.5198 1.12133 23.1428 0.543311 20.3939V20.3939Z" fill="url(#paint3_linear)"/>
<path d="M20.7977 24.2377C20.8389 24.251 20.88 24.2631 20.9208 24.2752C20.8786 24.2637 20.8375 24.254 20.7977 24.2377Z" fill="url(#paint4_linear)"/>
<path d="M21.9 5.21794C21.2488 5.17921 20.5991 5.35363 19.9827 5.73266C20.1411 5.61169 20.3059 5.49072 20.4768 5.38548C21.0461 5.08911 21.5332 5.00927 21.9 5.21794Z" fill="url(#paint5_linear)"/>
<path d="M23.8688 23.6208C22.4096 24.9012 19.4996 26.7587 15.9869 25.3198L15.9532 25.2593C15.9524 25.2582 15.9518 25.257 15.9512 25.2557L16.4231 24.4548L17.5732 22.5L18.0451 21.6986C18.0576 21.7204 18.0704 21.7427 18.0832 21.7639L18.1233 21.8317C18.1766 21.9206 18.2302 22.0071 18.2851 22.0911L18.3363 22.1692L18.365 22.2109L18.3909 22.2502C18.4247 22.2998 18.4584 22.3482 18.4921 22.3966C18.5258 22.445 18.5629 22.4934 18.5989 22.5405C18.6215 22.5702 18.6441 22.601 18.6663 22.6288L18.7078 22.6815L18.7624 22.7486L18.8113 22.8091L18.849 22.8538L18.8666 22.8738L18.8915 22.9028L18.9293 22.9452L18.9852 23.0056C19.023 23.0468 19.0607 23.0867 19.0988 23.1266C19.115 23.1436 19.1325 23.1605 19.1477 23.1768L19.1679 23.1968L19.2134 23.2415L19.27 23.296H19.2731L19.3277 23.3468L19.3334 23.3522C19.3513 23.3692 19.3695 23.3849 19.3877 23.4006L19.446 23.452L19.505 23.5016C19.5249 23.5186 19.5444 23.5343 19.5643 23.55C19.5842 23.5657 19.6034 23.5821 19.6236 23.5972C19.6439 23.6123 19.6574 23.6244 19.6756 23.6371L19.6927 23.6504L19.7369 23.6825L19.7477 23.6909L19.7962 23.7254L19.8097 23.7351C19.8259 23.7466 19.8434 23.7581 19.8586 23.7684L19.868 23.775L19.9105 23.8034L19.9344 23.8192L19.9708 23.8421L19.9927 23.8561C20.0109 23.8675 20.0288 23.879 20.0474 23.8899L20.1047 23.9238L20.1114 23.9274L20.1609 23.9559L20.1724 23.9625L20.2321 23.9946L20.2941 24.0266C20.3147 24.0375 20.3352 24.0478 20.3561 24.0575C20.377 24.0671 20.3976 24.078 20.4185 24.0871C20.4394 24.0962 20.4603 24.1065 20.4812 24.1155L20.5435 24.1421C20.5644 24.1512 20.5853 24.1591 20.6066 24.1675C20.6689 24.1923 20.732 24.2153 20.795 24.2359C20.8361 24.2498 20.8772 24.2625 20.918 24.274H20.9217L20.9851 24.2909L21.0525 24.3079C21.0721 24.3127 21.0913 24.3175 21.1108 24.3212L21.1749 24.3345C21.1961 24.3387 21.2174 24.3429 21.2386 24.346L21.3023 24.3569L21.3663 24.3653C21.3876 24.369 21.4088 24.3714 21.4304 24.3732L21.4884 24.3792H21.5032C21.5217 24.3792 21.5399 24.3792 21.5585 24.3829C21.5686 24.3829 21.5784 24.3829 21.5888 24.3829H21.6188H21.6279H21.6866C21.7058 24.3829 21.7247 24.3829 21.7435 24.3829H21.815C21.8362 24.3829 21.8578 24.3829 21.879 24.3829C21.9003 24.3829 21.9218 24.3829 21.9431 24.3792L22.0071 24.375C22.0263 24.375 22.0452 24.375 22.0641 24.3696H22.0769L22.1318 24.3635H22.1386C22.1561 24.3635 22.1723 24.3593 22.1908 24.3563H22.2047L22.2633 24.3466L22.3027 24.3399C22.3183 24.3399 22.3338 24.3345 22.3489 24.3309C22.3762 24.326 22.4035 24.32 22.4308 24.3139L22.4645 24.3067L22.5195 24.2927L22.5829 24.2758C22.6044 24.2704 22.6253 24.2637 22.6466 24.2577L22.6968 24.2419C22.7322 24.2311 22.7676 24.219 22.803 24.2063L22.8461 24.1905H22.8481L22.9081 24.1675C22.9907 24.1355 23.073 24.0992 23.1545 24.0599C23.1947 24.0405 23.2341 24.0206 23.2739 23.9994C23.375 23.9458 23.4752 23.8869 23.5745 23.8228L23.615 23.7962C23.6824 23.752 23.7498 23.7048 23.8145 23.6559L23.8442 23.6335L23.8688 23.6208Z" fill="url(#paint6_linear)"/>
<path d="M29.4567 9.60726C30.0258 12.3219 30.1366 15.2772 29.7754 18.1041C29.4142 20.9311 28.5968 23.5045 27.4255 25.5031C26.2541 27.5016 24.7806 28.8368 23.1889 29.3418C21.5972 29.8468 19.9579 29.4993 18.4756 28.3427C18.4123 28.2931 18.3496 28.2423 18.2876 28.1903L18.241 28.1516L18.1419 28.0645L18.1018 28.0288C18.0526 27.9853 18.0034 27.9399 17.9545 27.8946C17.9276 27.8692 17.9006 27.8438 17.874 27.8177L17.7836 27.73L17.7388 27.6853C17.664 27.6103 17.5901 27.5329 17.5166 27.4536L17.4738 27.4071L17.3869 27.3103L17.3437 27.2613C17.3292 27.245 17.3147 27.2286 17.3006 27.2117L17.2932 27.2032C17.2532 27.1569 17.2134 27.1097 17.1738 27.0617C17.1314 27.0105 17.0891 26.9585 17.0471 26.9057C17.0333 26.8875 17.0191 26.8706 17.0056 26.8524C16.9638 26.7992 16.9224 26.746 16.8813 26.6909L16.8428 26.6401L16.7586 26.5252L16.7181 26.469C16.6527 26.377 16.5877 26.2839 16.524 26.1889L16.4936 26.1442C16.4791 26.1218 16.4646 26.1006 16.4505 26.0782C16.4363 26.0558 16.4319 26.051 16.4232 26.0365C16.3955 25.9948 16.3682 25.9518 16.3409 25.9089L16.3052 25.852L16.2691 25.7946L16.2267 25.725L16.2004 25.6821L16.1626 25.6216L16.0922 25.5006C16.0584 25.4401 16.0227 25.3796 15.9883 25.3192C19.501 26.7581 22.411 24.9006 23.8702 23.6202L23.8854 23.6081L23.9333 23.5706L23.9761 23.5361L23.9977 23.5186L24.0283 23.4925L24.0597 23.4665L24.0819 23.4472L24.1156 23.4175L24.1453 23.3915L24.179 23.3619L24.1996 23.3431L24.2367 23.3087L24.2522 23.2942L24.301 23.2476L24.3071 23.2421L24.3577 23.1913C24.3606 23.1893 24.3635 23.1867 24.3661 23.1835L24.4035 23.1454C24.4156 23.1333 24.4278 23.1212 24.4396 23.1085L24.4527 23.0952L24.5013 23.0438H24.5033L24.5501 22.9929L24.5687 22.9718C24.5805 22.9597 24.5919 22.947 24.6024 22.9343L24.6253 22.9083L24.659 22.8684L24.6738 22.8508C24.689 22.8339 24.7035 22.8163 24.718 22.7988C24.7325 22.7813 24.7463 22.7649 24.7601 22.748C24.774 22.7311 24.7824 22.7208 24.7938 22.7075L24.8245 22.6694L24.8356 22.6548C24.8484 22.6391 24.8609 22.6234 24.8731 22.6071L24.8795 22.5992H24.8815L24.932 22.5327L24.9442 22.5163L24.9846 22.4619C25.0001 22.4413 25.0156 22.4202 25.0308 22.4014C25.046 22.3827 25.0547 22.3688 25.0662 22.3518L25.138 22.249L25.1687 22.203C25.1923 22.1686 25.2159 22.1329 25.2391 22.0966C25.2479 22.0833 25.2567 22.07 25.2651 22.0561L25.2947 22.0101L25.3443 21.9302C25.378 21.8764 25.4117 21.822 25.4427 21.7663C27.5778 18.124 27.6631 12.0442 25.6332 8.21311C24.6674 6.38782 23.3391 5.32034 21.9371 5.24275C21.57 5.03347 21.0829 5.11331 20.5136 5.40968C16.7768 7.34698 9.50732 18.6073 9.50732 18.6073L10.7791 10.8762L11.4219 12.0895L16.0938 4.11896L16.141 4.03912L16.1441 4.03367L16.1852 3.96472L16.1923 3.95383L16.2351 3.88307L16.2846 3.80323L16.3052 3.77057L16.3352 3.72279L16.3891 3.63811L16.434 3.56916L16.472 3.50867L16.4835 3.49174L16.4929 3.47722L16.5391 3.40887L16.5593 3.37924L16.5691 3.36472L16.6116 3.30424L16.6227 3.2873L16.6858 3.19779C16.7289 3.1373 16.7727 3.07682 16.8165 3.01633L16.8287 2.9994L16.884 2.92561L16.8941 2.9123L16.9615 2.82339L17.0191 2.7496L17.0404 2.72238L17.1027 2.64496L17.1701 2.56392L17.1779 2.55484L17.2453 2.47198L17.3174 2.38791L17.3902 2.30504L17.4631 2.224L17.5207 2.16049C17.5233 2.15843 17.5258 2.156 17.5281 2.15323C17.5382 2.14174 17.5487 2.13145 17.5591 2.11996L17.6265 2.04678L17.6677 2.00444L17.695 1.97662L17.7526 1.91613L17.851 1.81936L17.8975 1.77521L17.9195 1.75404C17.939 1.73529 17.9586 1.71654 17.9784 1.69839L17.9956 1.68267L18.056 1.62762L18.1129 1.57682L18.1723 1.5248C18.2174 1.48549 18.2629 1.44678 18.3071 1.40928L18.3695 1.35787L18.3782 1.35061L18.452 1.29012L18.5195 1.2369L18.5623 1.20484C18.5993 1.17642 18.6368 1.1492 18.6742 1.12198L18.7079 1.09658L18.7558 1.06271L18.7895 1.03912L18.8522 0.996173C19.6381 0.466454 20.4649 0.157181 21.3034 0.0792374C21.5241 0.0566568 21.746 0.0506091 21.9691 0.061093C23.6047 0.136386 25.1906 1.0848 26.5243 2.78518C27.8579 4.48556 28.8789 6.86072 29.4567 9.60726V9.60726Z" fill="url(#paint7_linear)"/>
<defs>
<linearGradient id="paint0_linear" x1="9.07802" y1="5.74578" x2="9.2014" y2="5.74751" gradientUnits="userSpaceOnUse">
<stop stop-color="#4F7DB9"/>
<stop offset="0.98" stop-color="#EF4CA3"/>
</linearGradient>
<linearGradient id="paint1_linear" x1="3740.57" y1="-9386" x2="3752.4" y2="-9378.48" gradientUnits="userSpaceOnUse">
<stop stop-color="#4F7DB9"/>
<stop offset="0.98" stop-color="#EF4CA3"/>
</linearGradient>
<linearGradient id="paint2_linear" x1="12.5998" y1="1.76291" x2="5.56013" y2="5.19744" gradientUnits="userSpaceOnUse">
<stop stop-color="#4F7DB9"/>
<stop offset="0.52" stop-color="#C060AD"/>
<stop offset="0.98" stop-color="#EF4CA3"/>
</linearGradient>
<linearGradient id="paint3_linear" x1="16.4476" y1="3.09161" x2="-3.7729" y2="12.9568" gradientUnits="userSpaceOnUse">
<stop stop-color="#4F7DB9" stop-opacity="0.5"/>
<stop offset="0.53" stop-color="#8074B5"/>
<stop offset="0.98" stop-color="#EF4CA3"/>
</linearGradient>
<linearGradient id="paint4_linear" x1="20.9286" y1="24.2556" x2="20.8052" y2="24.2539" gradientUnits="userSpaceOnUse">
<stop stop-color="#235E76"/>
<stop offset="0.49" stop-color="#6AA596"/>
<stop offset="1" stop-color="#95D4AA" stop-opacity="0.5"/>
</linearGradient>
<linearGradient id="paint5_linear" x1="-6209.75" y1="14955.9" x2="-6221.56" y2="14948.4" gradientUnits="userSpaceOnUse">
<stop stop-color="#235E76"/>
<stop offset="0.49" stop-color="#6AA596"/>
<stop offset="1" stop-color="#95D4AA" stop-opacity="0.5"/>
</linearGradient>
<linearGradient id="paint6_linear" x1="-23593.1" y1="74894.7" x2="-21939.7" y2="74088" gradientUnits="userSpaceOnUse">
<stop stop-color="#4F7DB9"/>
<stop offset="0.52" stop-color="#C060AD"/>
<stop offset="0.98" stop-color="#EF4CA3"/>
</linearGradient>
<linearGradient id="paint7_linear" x1="-15218.5" y1="292489" x2="-2935.42" y2="286497" gradientUnits="userSpaceOnUse">
<stop stop-color="#4F7DB9" stop-opacity="0.5"/>
<stop offset="0.53" stop-color="#8074B5"/>
<stop offset="0.98" stop-color="#EF4CA3"/>
</linearGradient>
</defs>
</svg>
